<svg xmlns="http://www.w3.org/2000/svg" width="800" height="627" viewBox="299.24985 -612.0599 219.6 172.35" fill="none">
<path d="M324.3 -592.068L324.3 -566.01L324.3 -539.952L324.368 -539.343L324.571 -538.869L324.909 -538.531L325.383 -538.328L325.992 -538.26L336.3 -538.26L336.3 -500.01L319.242 -500.01L318.633 -499.942L318.159 -499.739L317.821 -499.401L317.618 -498.927L317.55 -498.318L317.55 -459.702L317.618 -459.093L317.821 -458.619L318.159 -458.281L318.633 -458.078L319.242 -458.01L345.3 -458.01L371.358 -458.01L371.967 -458.078L372.441 -458.281L372.779 -458.619L372.982 -459.093L373.05 -459.702L373.05 -498.318L372.982 -498.927L372.779 -499.401L372.441 -499.739L371.967 -499.942L371.358 -500.01L354.3 -500.01L354.3 -538.26L364.608 -538.26L365.217 -538.328L365.691 -538.531L366.029 -538.869L366.232 -539.343L366.3 -539.952L366.3 -557.01L398.925 -557.01L431.55 -557.01L431.55 -548.218L431.618 -547.603L431.823 -547.125L432.165 -546.783L432.643 -546.578L433.258 -546.51L466.05 -546.51L498.841 -546.51L500.049 -547.01L500.55 -548.218L500.55 -583.802L500.482 -584.417L500.276 -584.895L499.935 -585.237L499.456 -585.442L498.841 -585.51L466.05 -585.51L433.258 -585.51L432.643 -585.442L432.165 -585.237L431.823 -584.895L431.618 -584.417L431.55 -583.802L431.55 -575.01L398.925 -575.01L366.3 -575.01L366.3 -592.068L366.232 -592.677L366.029 -593.151L365.691 -593.489L365.217 -593.692L364.608 -593.76L325.992 -593.76L325.383 -593.692L324.909 -593.489L324.571 -593.151L324.368 -592.677L324.3 -592.068Z" fill="Beige" stroke="Red" stroke-width="0.5" />
</svg>
