<svg xmlns="http://www.w3.org/2000/svg" width="800" height="399" viewBox="-8.745178 -364.9349 820.62 410.0453" fill="none">
<path d="M570.218 -119.55L547.323 -96.6548L524.427 -73.7597L523.267 -72.765L513.49 -63.8519L503.079 -55.7306L492.075 -48.4492L480.529 -42.0415L468.504 -36.5239L468.504 -36.5239L468.504 -36.5239L468.504 -36.5239L468.504 -36.5239L468.504 -36.5239L468.504 -36.5239L468.504 -36.5239L468.504 -36.5239L468.504 -36.5239L456.099 -31.9224L443.405 -28.2896L430.475 -25.6571L417.372 -24.0382L404.156 -23.4274L404.156 -23.4274L404.156 -23.4274L404.156 -23.4274L404.156 -23.4274L404.156 -23.4274L404.156 -23.4274L404.156 -23.4274L404.156 -23.4274L404.156 -23.4274L402.631 -23.3099L365.411 -23.3099L328.191 -23.3099L290.971 -23.3099L253.752 -23.3099L216.532 -23.3099L179.312 -23.3099L178.464 -23.2746L170.5 -23.5817L162.659 -24.503L154.939 -26.0386L147.342 -28.1883L139.867 -30.9522L139.867 -30.9522L139.867 -30.9522L139.867 -30.9522L132.627 -34.2835L125.735 -38.1356L119.191 -42.5084L112.994 -47.4018L107.146 -52.816L107.146 -52.816L107.146 -52.816L107.146 -52.816L106.573 -53.4391L105.644 -54.3676L104.433 -55.3991L99.4988 -60.7285L95.0395 -66.3751L91.0547 -72.3387L87.5444 -78.6193L84.5086 -85.2171L84.5086 -85.2171L84.5086 -85.2171L84.5086 -85.2171L81.99 -92.029L80.0311 -98.9522L78.6319 -105.987L77.7925 -113.133L77.5128 -120.39L77.5128 -120.39L77.5128 -120.39L77.5128 -120.39L77.6398 -121.974L77.6398 -129.138L75.4068 -130.036L73.2626 -131.149L67.5479 -135.588L64.701 -138.882L62.4867 -142.439L60.9051 -146.257L59.9561 -150.337L59.6398 -154.68L59.9562 -159.022L60.9051 -163.103L62.4867 -166.921L64.701 -170.477L67.5479 -173.772L70.8422 -176.619L74.3986 -178.833L78.2169 -180.415L82.2974 -181.364L86.6398 -181.68L90.9823 -181.364L95.0627 -180.415L98.8811 -178.833L102.437 -176.619L105.732 -173.772L108.579 -170.478L110.793 -166.921L112.375 -163.103L113.324 -159.022L113.64 -154.68L113.324 -150.337L112.375 -146.257L110.793 -142.439L108.579 -138.882L105.732 -135.588L103.921 -133.918L102.029 -132.445L95.6398 -129.138L95.6398 -120.39L95.5259 -118.887L96.4793 -107.851L99.0304 -97.1639L103.224 -87.0394L108.977 -77.6783L116.106 -69.2004L116.106 -69.2004L116.106 -69.2004L116.106 -69.2004L116.106 -69.2004L116.106 -69.2004L116.106 -69.2004L116.106 -69.2004L117.25 -68.2172L119.899 -65.5689L120.443 -64.9804L125.163 -60.6843L130.156 -56.7959L135.419 -53.3166L140.951 -50.2459L146.755 -47.582L146.755 -47.582L146.755 -47.582L152.743 -45.3615L158.826 -43.6209L165.007 -42.3598L171.287 -41.5787L177.663 -41.2784L177.663 -41.2784L177.663 -41.2784L178.465 -41.3099L215.579 -41.3099L252.692 -41.3099L289.806 -41.3099L326.919 -41.3099L364.033 -41.3099L401.146 -41.3099L402.63 -41.4209L414.742 -41.8857L426.755 -43.2936L438.61 -45.6517L450.248 -48.9482L461.616 -53.1537L461.616 -53.1537L461.616 -53.1537L461.616 -53.1537L461.616 -53.1537L461.616 -53.1537L461.616 -53.1537L461.616 -53.1537L461.616 -53.1537L472.628 -58.2181L483.188 -64.1162L493.238 -70.8315L502.728 -78.3305L511.621 -86.566L511.621 -86.566L511.621 -86.566L511.621 -86.566L511.621 -86.566L511.621 -86.566L511.621 -86.566L511.621 -86.566L511.621 -86.566L512.748 -87.5363L530.619 -105.407L548.49 -123.278L548.49 -157.624L548.49 -191.969L548.49 -226.315L548.49 -260.661L548.49 -295.007L548.552 -295.562L548.737 -295.994L549.045 -296.303L549.477 -296.488L550.033 -296.55L588.416 -296.55L626.798 -296.55L665.181 -296.55L703.564 -296.55L741.947 -296.55L742.502 -296.488L742.934 -296.303L743.243 -295.994L743.428 -295.562L743.49 -295.007L743.49 -260.224L743.49 -225.441L743.49 -190.659L743.49 -155.876L743.49 -121.093L743.428 -120.537L743.243 -120.105L742.934 -119.797L742.502 -119.612L741.947 -119.55L707.601 -119.55L673.255 -119.55L638.909 -119.55L604.563 -119.55L570.218 -119.55Z" fill="Beige" stroke="Red" stroke-width="0.5" />
</svg>
