<svg xmlns="http://www.w3.org/2000/svg" width="800" height="670" viewBox="143.7725 78.5475 6.9299927 5.8050003" fill="none">
<path d="M145 80M144.35 80.6583L144.35 79.3417Q144.35 79.2986 144.366 79.2587Q144.383 79.2189 144.413 79.1885Q144.444 79.158 144.484 79.1415Q144.524 79.125 144.567 79.125L145.433 79.125Q145.476 79.125 145.516 79.1415Q145.556 79.158 145.587 79.1885Q145.617 79.2189 145.633 79.2587Q145.65 79.2986 145.65 79.3417L145.65 80.6583Q145.65 80.7014 145.633 80.7412Q145.617 80.7811 145.587 80.8115Q145.556 80.842 145.516 80.8585Q145.476 80.875 145.433 80.875L144.567 80.875Q144.524 80.875 144.484 80.8585Q144.444 80.842 144.413 80.8115Q144.383 80.7811 144.366 80.7412Q144.35 80.7014 144.35 80.6583Z" fill="none" stroke="rgba(255, 0, 0, 0.5)" stroke-width="0.1" />
<path d="M145 82.9M144.35 83.5583L144.35 82.2417Q144.35 82.1986 144.366 82.1587Q144.383 82.1189 144.413 82.0885Q144.444 82.058 144.484 82.0415Q144.524 82.025 144.567 82.025L145.433 82.025Q145.476 82.025 145.516 82.0415Q145.556 82.058 145.587 82.0885Q145.617 82.1189 145.633 82.1587Q145.65 82.1986 145.65 82.2417L145.65 83.5583Q145.65 83.6014 145.633 83.6412Q145.617 83.6811 145.587 83.7115Q145.556 83.742 145.516 83.7585Q145.476 83.775 145.433 83.775L144.567 83.775Q144.524 83.775 144.484 83.7585Q144.444 83.742 144.413 83.7115Q144.383 83.6811 144.366 83.6412Q144.35 83.6014 144.35 83.5583Z" fill="none" stroke="rgba(203, 255, 0, 0.5)" stroke-width="0.1" />
<path d="M144.5 82.9L144.5 80Q144.5 79.9508 144.51 79.9025Q144.519 79.8542 144.538 79.8087Q144.557 79.7632 144.584 79.7222Q144.612 79.6813 144.646 79.6464Q144.681 79.6116 144.722 79.5843Q144.763 79.5569 144.809 79.5381Q144.854 79.5192 144.902 79.5096Q144.951 79.5 145 79.5Q145.049 79.5 145.098 79.5096Q145.146 79.5192 145.191 79.5381Q145.237 79.5569 145.278 79.5843Q145.319 79.6116 145.354 79.6464Q145.388 79.6813 145.416 79.7222Q145.443 79.7632 145.462 79.8087Q145.481 79.8542 145.49 79.9025Q145.5 79.9508 145.5 80L145.5 82.9Q145.5 82.9492 145.49 82.9975Q145.481 83.0458 145.462 83.0913Q145.443 83.1368 145.416 83.1778Q145.388 83.2187 145.354 83.2535Q145.319 83.2884 145.278 83.3157Q145.237 83.3431 145.191 83.3619Q145.146 83.3808 145.098 83.3904Q145.049 83.4 145 83.4Q144.951 83.4 144.902 83.3904Q144.854 83.3808 144.809 83.3619Q144.763 83.3431 144.722 83.3157Q144.681 83.2884 144.646 83.2535Q144.612 83.2187 144.584 83.1778Q144.557 83.1368 144.538 83.0913Q144.519 83.0458 144.51 82.9975Q144.5 82.9492 144.5 82.9Z" fill="none" stroke="rgba(0, 255, 101, 0.5)" stroke-width="0.1" />
<path d="M145 79.5L149.025 79.5Q149.074 79.5 149.123 79.5096Q149.171 79.5192 149.216 79.5381Q149.262 79.5569 149.303 79.5843Q149.344 79.6116 149.379 79.6464Q149.413 79.6813 149.441 79.7222Q149.468 79.7632 149.487 79.8087Q149.506 79.8542 149.515 79.9025Q149.525 79.9508 149.525 80Q149.525 80.0492 149.515 80.0975Q149.506 80.1458 149.487 80.1913Q149.468 80.2368 149.441 80.2778Q149.413 80.3187 149.379 80.3535Q149.344 80.3884 149.303 80.4157Q149.262 80.4431 149.216 80.4619Q149.171 80.4808 149.123 80.4904Q149.074 80.5 149.025 80.5L145 80.5Q144.951 80.5 144.902 80.4904Q144.854 80.4808 144.809 80.4619Q144.763 80.4431 144.722 80.4157Q144.681 80.3884 144.646 80.3535Q144.612 80.3187 144.584 80.2778Q144.557 80.2368 144.538 80.1913Q144.519 80.1458 144.51 80.0975Q144.5 80.0492 144.5 80Q144.5 79.9508 144.51 79.9025Q144.519 79.8542 144.538 79.8087Q144.557 79.7632 144.584 79.7222Q144.612 79.6813 144.646 79.6464Q144.681 79.6116 144.722 79.5843Q144.763 79.5569 144.809 79.5381Q144.854 79.5192 144.902 79.5096Q144.951 79.5 145 79.5Z" fill="none" stroke="rgba(0, 101, 255, 0.5)" stroke-width="0.1" />
<path d="M149.025 80M147.925 80.2333L147.925 79.7667Q147.925 79.7306 147.932 79.6951Q147.939 79.6597 147.953 79.6263Q147.967 79.593 147.987 79.563Q148.007 79.5329 148.032 79.5074Q148.058 79.4818 148.088 79.4618Q148.118 79.4417 148.151 79.4279Q148.185 79.4141 148.22 79.407Q148.256 79.4 148.292 79.4L149.758 79.4Q149.794 79.4 149.83 79.407Q149.865 79.4141 149.899 79.4279Q149.932 79.4417 149.962 79.4618Q149.992 79.4818 150.018 79.5074Q150.043 79.5329 150.063 79.563Q150.083 79.593 150.097 79.6263Q150.111 79.6597 150.118 79.6951Q150.125 79.7306 150.125 79.7667L150.125 80.2333Q150.125 80.2694 150.118 80.3049Q150.111 80.3403 150.097 80.3736Q150.083 80.407 150.063 80.437Q150.043 80.4671 150.018 80.4926Q149.992 80.5181 149.962 80.5382Q149.932 80.5583 149.899 80.5721Q149.865 80.5859 149.83 80.5929Q149.794 80.6 149.758 80.6L148.292 80.6Q148.256 80.6 148.22 80.5929Q148.185 80.5859 148.151 80.5721Q148.118 80.5583 148.088 80.5382Q148.058 80.5181 148.032 80.4926Q148.007 80.4671 147.987 80.437Q147.967 80.407 147.953 80.3736Q147.939 80.3403 147.932 80.3049Q147.925 80.2694 147.925 80.2333Z" fill="none" stroke="rgba(203, 0, 255, 0.5)" stroke-width="0.1" />
</svg>
