<svg xmlns="http://www.w3.org/2000/svg" width="800" height="349" viewBox="136.6443 76.62086 27.596394 12.067844" fill="none">
<path d="M155.541 86.3459L155.541 80.6321Q155.541 80.6142 155.554 80.6016Q155.566 80.589 155.584 80.589L161.898 80.589Q161.916 80.589 161.928 80.6016Q161.941 80.6142 161.941 80.6321L161.941 86.3459Q161.941 86.3637 161.928 86.3764Q161.916 86.389 161.898 86.389L155.584 86.389Q155.566 86.389 155.554 86.3764Q155.541 86.3637 155.541 86.3459Z" fill="none" stroke="rgba(255, 0, 0, 0.5)" stroke-width="0.1" />
<path d="M158.564 83.6658L155.841 80.9426Q155.806 80.9074 155.787 80.8615Q155.768 80.8155 155.768 80.7658Q155.768 80.716 155.787 80.6701Q155.806 80.6242 155.841 80.589Q155.876 80.5538 155.922 80.5348Q155.968 80.5158 156.018 80.5158Q156.068 80.5158 156.113 80.5348Q156.159 80.5538 156.195 80.589L158.918 83.3122Q158.953 83.3474 158.972 83.3933Q158.991 83.4393 158.991 83.489Q158.991 83.5387 158.972 83.5847Q158.953 83.6306 158.918 83.6658Q158.883 83.7009 158.837 83.72Q158.791 83.739 158.741 83.739Q158.691 83.739 158.645 83.72Q158.599 83.7009 158.564 83.6658Z" fill="none" stroke="rgba(255, 170, 0, 0.5)" stroke-width="0.1" />
<path d="M155.842 80.9416Q154.321 79.4205 152.17 79.4206Q152.12 79.4205 152.074 79.4015Q152.028 79.3825 151.993 79.3473Q151.958 79.3121 151.939 79.2662Q151.92 79.2203 151.92 79.1706Q151.92 79.1208 151.939 79.0749Q151.958 79.0289 151.993 78.9938Q152.028 78.9586 152.074 78.9396Q152.12 78.9206 152.17 78.9206Q154.528 78.9205 156.196 80.588Q156.231 80.6232 156.25 80.6691Q156.269 80.715 156.269 80.7648Q156.269 80.8145 156.25 80.8605Q156.231 80.9064 156.196 80.9416Q156.16 80.9767 156.114 80.9957Q156.069 81.0148 156.019 81.0148Q155.969 81.0148 155.923 80.9957Q155.877 80.9767 155.842 80.9416Z" fill="none" stroke="rgba(169, 255, 0, 0.5)" stroke-width="0.1" />
<path d="M152.17 79.422L145.604 79.422Q145.554 79.422 145.508 79.403Q145.462 79.3839 145.427 79.3488Q145.392 79.3136 145.373 79.2677Q145.354 79.2217 145.354 79.172Q145.354 79.1223 145.373 79.0763Q145.392 79.0304 145.427 78.9952Q145.462 78.9601 145.508 78.941Q145.554 78.922 145.604 78.922L152.17 78.922Q152.22 78.922 152.266 78.941Q152.312 78.9601 152.347 78.9952Q152.382 79.0304 152.401 79.0763Q152.42 79.1223 152.42 79.172Q152.42 79.2217 152.401 79.2677Q152.382 79.3136 152.347 79.3488Q152.312 79.3839 152.266 79.403Q152.22 79.422 152.17 79.422Z" fill="none" stroke="rgba(0, 255, 0, 0.5)" stroke-width="0.1" />
<path d="M145.604 79.4242Q143.454 79.4242 141.935 80.9441Q141.899 80.9793 141.853 80.9983Q141.807 81.0173 141.758 81.0173Q141.708 81.0173 141.662 80.9983Q141.616 80.9793 141.581 80.9441Q141.546 80.909 141.527 80.863Q141.508 80.8171 141.508 80.7673Q141.508 80.7176 141.527 80.6717Q141.546 80.6257 141.581 80.5906Q143.247 78.9243 145.604 78.9242Q145.654 78.9242 145.7 78.9432Q145.746 78.9622 145.781 78.9974Q145.816 79.0326 145.835 79.0785Q145.854 79.1245 145.854 79.1742Q145.854 79.2239 145.835 79.2699Q145.816 79.3158 145.781 79.351Q145.746 79.3861 145.7 79.4052Q145.654 79.4242 145.604 79.4242Z" fill="none" stroke="rgba(0, 255, 169, 0.5)" stroke-width="0.1" />
<path d="M141.933 80.9426L140.689 82.1864Q140.654 82.2215 140.608 82.2405Q140.562 82.2596 140.512 82.2596Q140.463 82.2596 140.417 82.2405Q140.371 82.2215 140.336 82.1864Q140.3 82.1512 140.281 82.1052Q140.262 82.0593 140.262 82.0096Q140.262 81.9598 140.281 81.9139Q140.3 81.868 140.336 81.8328L141.579 80.589Q141.615 80.5538 141.661 80.5348Q141.706 80.5158 141.756 80.5158Q141.806 80.5158 141.852 80.5348Q141.898 80.5538 141.933 80.589Q141.968 80.6242 141.987 80.6701Q142.006 80.716 142.006 80.7658Q142.006 80.8155 141.987 80.8615Q141.968 80.9074 141.933 80.9426Z" fill="none" stroke="rgba(0, 169, 255, 0.5)" stroke-width="0.1" />
<path d="M140.687 82.184Q140.041 82.8302 140.041 83.744Q140.041 83.7937 140.022 83.8396Q140.003 83.8856 139.967 83.9208Q139.932 83.9559 139.886 83.975Q139.84 83.994 139.791 83.994Q139.741 83.994 139.695 83.975Q139.649 83.9559 139.614 83.9208Q139.579 83.8856 139.56 83.8396Q139.541 83.7937 139.541 83.744Q139.541 82.623 140.333 81.8305Q140.368 81.7953 140.414 81.7763Q140.46 81.7572 140.51 81.7572Q140.56 81.7572 140.606 81.7763Q140.652 81.7953 140.687 81.8305Q140.722 81.8656 140.741 81.9116Q140.76 81.9575 140.76 82.0072Q140.76 82.057 140.741 82.1029Q140.722 82.1488 140.687 82.184Z" fill="none" stroke="rgba(0, 0, 255, 0.5)" stroke-width="0.1" />
<path d="M140.044 83.744L140.044 84.76Q140.044 84.8097 140.025 84.8557Q140.006 84.9016 139.971 84.9368Q139.936 84.9719 139.89 84.991Q139.844 85.01 139.794 85.01Q139.744 85.01 139.698 84.991Q139.652 84.9719 139.617 84.9368Q139.582 84.9016 139.563 84.8557Q139.544 84.8097 139.544 84.76L139.544 83.744Q139.544 83.6943 139.563 83.6483Q139.582 83.6024 139.617 83.5672Q139.652 83.5321 139.698 83.513Q139.744 83.494 139.794 83.494Q139.844 83.494 139.89 83.513Q139.936 83.5321 139.971 83.5672Q140.006 83.6024 140.025 83.6483Q140.044 83.6943 140.044 83.744Z" fill="none" stroke="rgba(170, 0, 255, 0.5)" stroke-width="0.1" />
<path d="M138.944 83.91L140.644 83.91L140.644 85.61L138.944 85.61L138.944 83.91Z" fill="none" stroke="rgba(255, 0, 169, 0.5)" stroke-width="0.1" />
</svg>
