%TF.GenerationSoftware,KiCad,Pcbnew,9.0.2*%
%TF.CreationDate,2025-07-08T17:07:36-05:00*%
%TF.ProjectId,mosfetSwitches,6d6f7366-6574-4537-9769-74636865732e,rev?*%
%TF.SameCoordinates,PX8290510PY5f709e0*%
%TF.FileFunction,Soldermask,Top*%
%TF.FilePolarity,Negative*%
%FSLAX46Y46*%
G04 Gerber Fmt 4.6, Leading zero omitted, Abs format (unit mm)*
G04 Created by KiCad (PCBNEW 9.0.2) date 2025-07-08 17:07:36*
%MOMM*%
%LPD*%
G01*
G04 APERTURE LIST*
G04 Aperture macros list*
%AMRoundRect*
0 Rectangle with rounded corners*
0 $1 Rounding radius*
0 $2 $3 $4 $5 $6 $7 $8 $9 X,Y pos of 4 corners*
0 Add a 4 corners polygon primitive as box body*
4,1,4,$2,$3,$4,$5,$6,$7,$8,$9,$2,$3,0*
0 Add four circle primitives for the rounded corners*
1,1,$1+$1,$2,$3*
1,1,$1+$1,$4,$5*
1,1,$1+$1,$6,$7*
1,1,$1+$1,$8,$9*
0 Add four rect primitives between the rounded corners*
20,1,$1+$1,$2,$3,$4,$5,0*
20,1,$1+$1,$4,$5,$6,$7,0*
20,1,$1+$1,$6,$7,$8,$9,0*
20,1,$1+$1,$8,$9,$2,$3,0*%
G04 Aperture macros list end*
%ADD10RoundRect,0.250000X-0.850000X-0.350000X0.850000X-0.350000X0.850000X0.350000X-0.850000X0.350000X0*%
%ADD11RoundRect,0.249997X-2.950003X-2.650003X2.950003X-2.650003X2.950003X2.650003X-2.950003X2.650003X0*%
%ADD12RoundRect,0.250000X0.625000X-0.400000X0.625000X0.400000X-0.625000X0.400000X-0.625000X-0.400000X0*%
%ADD13R,1.700000X1.700000*%
%ADD14C,1.700000*%
%ADD15RoundRect,0.250000X-0.400000X-0.625000X0.400000X-0.625000X0.400000X0.625000X-0.400000X0.625000X0*%
G04 APERTURE END LIST*
D10*
%TO.C,Q2*%
X74829000Y9237000D03*
D11*
X81129000Y6957000D03*
D10*
X74829000Y4677000D03*
%TD*%
D12*
%TO.C,R2*%
X71106000Y12889000D03*
X71106000Y15989000D03*
%TD*%
D13*
%TO.C,J1*%
X62484000Y15338000D03*
D14*
X62484000Y12798000D03*
X62484000Y10258000D03*
X62484000Y7718000D03*
X62484000Y5178000D03*
%TD*%
D10*
%TO.C,Q1*%
X75131000Y18889000D03*
D11*
X81431000Y16609000D03*
D10*
X75131000Y14329000D03*
%TD*%
D12*
%TO.C,R4*%
X70829000Y3627000D03*
X70829000Y6727000D03*
%TD*%
D15*
%TO.C,R3*%
X67729000Y9177000D03*
X70829000Y9177000D03*
%TD*%
%TO.C,R1*%
X68006000Y18889000D03*
X71106000Y18889000D03*
%TD*%
%TO.C,R3*%
X38011000Y9177000D03*
X41111000Y9177000D03*
%TD*%
D13*
%TO.C,J1*%
X32766000Y15338000D03*
D14*
X32766000Y12798000D03*
X32766000Y10258000D03*
X32766000Y7718000D03*
X32766000Y5178000D03*
%TD*%
D10*
%TO.C,Q1*%
X45413000Y18889000D03*
D11*
X51713000Y16609000D03*
D10*
X45413000Y14329000D03*
%TD*%
%TO.C,Q2*%
X45111000Y9237000D03*
D11*
X51411000Y6957000D03*
D10*
X45111000Y4677000D03*
%TD*%
D15*
%TO.C,R1*%
X38288000Y18889000D03*
X41388000Y18889000D03*
%TD*%
D12*
%TO.C,R2*%
X41388000Y12889000D03*
X41388000Y15989000D03*
%TD*%
%TO.C,R4*%
X41111000Y3627000D03*
X41111000Y6727000D03*
%TD*%
D15*
%TO.C,R3*%
X8133000Y9155000D03*
X11233000Y9155000D03*
%TD*%
D13*
%TO.C,J1*%
X2888000Y15316000D03*
D14*
X2888000Y12776000D03*
X2888000Y10236000D03*
X2888000Y7696000D03*
X2888000Y5156000D03*
%TD*%
D10*
%TO.C,Q1*%
X15535000Y18867000D03*
D11*
X21835000Y16587000D03*
D10*
X15535000Y14307000D03*
%TD*%
%TO.C,Q2*%
X15233000Y9215000D03*
D11*
X21533000Y6935000D03*
D10*
X15233000Y4655000D03*
%TD*%
D12*
%TO.C,R4*%
X11233000Y3605000D03*
X11233000Y6705000D03*
%TD*%
%TO.C,R2*%
X11510000Y12867000D03*
X11510000Y15967000D03*
%TD*%
D15*
%TO.C,R1*%
X8410000Y18867000D03*
X11510000Y18867000D03*
%TD*%
M02*
