  0
SECTION
  2
HEADER
  9
$ANGBASE
  50
0.0
  9
$ANGDIR
  70
1
  9
$MEASUREMENT
  70
0
  0
ENDSEC
  0
SECTION
  2
TABLES
  0
TABLE
  2
LTYPE
  70
4
  0
LTYPE
  5
40F
  2
CONTINUOUS
  70
0
  3
Solid line
  72
65
  73
0
  40
0.0
  0
LTYPE
  5
410
  2
DASHDOT
 70
0
  3
Dash Dot ____ _ ____ _
 72
65
 73
4
 40
2.0
 49
1.25
 49
-0.25
 49
0.25
 49
-0.25
  0
LTYPE
  5
411
  2
DASHED
 70
0
  3
Dashed __ __ __ __ __
 72
65
 73
2
 40
0.75
 49
0.5
 49
-0.25
  0
LTYPE
  5
43B
  2
DOTTED
 70
0
  3
Dotted .  .  .  .
 72
65
 73
2
 40
0.2
 49
0.0
 49
-0.2
  0
ENDTAB
  0
TABLE
  2
STYLE
  70
4
  0
STYLE
  2
KICAD
  70
0
  40
0
  41
1
  42
1
  50
0
  71
0
  3
isocp.shx
  0
STYLE
  2
KICADB
  70
0
  40
0
  41
1
  42
1
  50
0
  71
0
  3
isocp.shx
  0
STYLE
  2
KICADI
  70
0
  40
0
  41
1
  42
1
  50
15
  71
0
  3
isocp.shx
  0
STYLE
  2
KICADBI
  70
0
  40
0
  41
1
  42
1
  50
15
  71
0
  3
isocp.shx
  0
ENDTAB
  0
TABLE
  2
LAYER
  70
1
  0
LAYER
  2
BLACK
  70
0
  62
7
  6
CONTINUOUS
  0
ENDTAB
  0
ENDSEC
  0
SECTION
  2
ENTITIES
0
LINE
8
BLACK
6
CONTINUOUS
10
0.470616968503937
20
0.1667704724409449
11
0.4738101181102362
21
0.1646368897637795
0
LINE
8
BLACK
6
CONTINUOUS
10
0.4738101181102362
20
0.1646368897637795
11
0.4759437007874016
21
0.1614437401574803
0
LINE
8
BLACK
6
CONTINUOUS
10
0.4759437007874016
20
0.1614437401574803
11
0.4766929133858268
21
0.1576771653543307
0
LINE
8
BLACK
6
CONTINUOUS
10
0.4766929133858268
20
0.1576771653543307
11
0.4766929133858268
21
0.1261811023622047
0
LINE
8
BLACK
6
CONTINUOUS
10
0.4766929133858268
20
0.1261811023622047
11
0.4759437007874016
21
0.1224145275590551
0
LINE
8
BLACK
6
CONTINUOUS
10
0.4759437007874016
20
0.1224145275590551
11
0.4738101181102362
21
0.1192213779527559
0
LINE
8
BLACK
6
CONTINUOUS
10
0.4738101181102362
20
0.1192213779527559
11
0.470616968503937
21
0.1170877952755905
0
LINE
8
BLACK
6
CONTINUOUS
10
0.470616968503937
20
0.1170877952755905
11
0.4668503937007874
21
0.1163385826771653
0
LINE
8
BLACK
6
CONTINUOUS
10
0.4668503937007874
20
0.1163385826771653
11
0.4176377952755905
21
0.1163385826771653
0
LINE
8
BLACK
6
CONTINUOUS
10
0.4176377952755905
20
0.1163385826771653
11
0.413871220472441
21
0.1170877952755905
0
LINE
8
BLACK
6
CONTINUOUS
10
0.413871220472441
20
0.1170877952755905
11
0.4106780708661417
21
0.1192213779527559
0
LINE
8
BLACK
6
CONTINUOUS
10
0.4106780708661417
20
0.1192213779527559
11
0.4085444881889764
21
0.1224145275590551
0
LINE
8
BLACK
6
CONTINUOUS
10
0.4085444881889764
20
0.1224145275590551
11
0.4077952755905512
21
0.1261811023622047
0
LINE
8
BLACK
6
CONTINUOUS
10
0.4077952755905512
20
0.1261811023622047
11
0.4077952755905512
21
0.1576771653543307
0
LINE
8
BLACK
6
CONTINUOUS
10
0.4077952755905512
20
0.1576771653543307
11
0.4085444881889764
21
0.1614437401574803
0
LINE
8
BLACK
6
CONTINUOUS
10
0.4085444881889764
20
0.1614437401574803
11
0.4106780708661417
21
0.1646368897637795
0
LINE
8
BLACK
6
CONTINUOUS
10
0.4106780708661417
20
0.1646368897637795
11
0.413871220472441
21
0.1667704724409449
0
LINE
8
BLACK
6
CONTINUOUS
10
0.413871220472441
20
0.1667704724409449
11
0.4176377952755905
21
0.1675196850393701
0
LINE
8
BLACK
6
CONTINUOUS
10
0.4176377952755905
20
0.1675196850393701
11
0.4668503937007874
21
0.1675196850393701
0
LINE
8
BLACK
6
CONTINUOUS
10
0.4668503937007874
20
0.1675196850393701
11
0.470616968503937
21
0.1667704724409449
0
LINE
8
BLACK
6
CONTINUOUS
10
1.6469161811023623
20
0.1676366141732283
11
1.6501093307086614
21
0.165503031496063
0
LINE
8
BLACK
6
CONTINUOUS
10
1.6501093307086614
20
0.165503031496063
11
1.6522429133858267
21
0.1623098818897638
0
LINE
8
BLACK
6
CONTINUOUS
10
1.6522429133858267
20
0.1623098818897638
11
1.6529921259842519
21
0.1585433070866142
0
LINE
8
BLACK
6
CONTINUOUS
10
1.6529921259842519
20
0.1585433070866142
11
1.6529921259842519
21
0.1270472440944882
0
LINE
8
BLACK
6
CONTINUOUS
10
1.6529921259842519
20
0.1270472440944882
11
1.6522429133858267
21
0.1232806692913386
0
LINE
8
BLACK
6
CONTINUOUS
10
1.6522429133858267
20
0.1232806692913386
11
1.6501093307086614
21
0.1200875196850394
0
LINE
8
BLACK
6
CONTINUOUS
10
1.6501093307086614
20
0.1200875196850394
11
1.6469161811023623
21
0.117953937007874
0
LINE
8
BLACK
6
CONTINUOUS
10
1.6469161811023623
20
0.117953937007874
11
1.6431496062992126
21
0.1172047244094488
0
LINE
8
BLACK
6
CONTINUOUS
10
1.6431496062992126
20
0.1172047244094488
11
1.5939370078740158
21
0.1172047244094488
0
LINE
8
BLACK
6
CONTINUOUS
10
1.5939370078740158
20
0.1172047244094488
11
1.5901704330708661
21
0.117953937007874
0
LINE
8
BLACK
6
CONTINUOUS
10
1.5901704330708661
20
0.117953937007874
11
1.5869772834645668
21
0.1200875196850394
0
LINE
8
BLACK
6
CONTINUOUS
10
1.5869772834645668
20
0.1200875196850394
11
1.5848437007874014
21
0.1232806692913386
0
LINE
8
BLACK
6
CONTINUOUS
10
1.5848437007874014
20
0.1232806692913386
11
1.5840944881889762
21
0.1270472440944882
0
LINE
8
BLACK
6
CONTINUOUS
10
1.5840944881889762
20
0.1270472440944882
11
1.5840944881889762
21
0.1585433070866142
0
LINE
8
BLACK
6
CONTINUOUS
10
1.5840944881889762
20
0.1585433070866142
11
1.5848437007874014
21
0.1623098818897638
0
LINE
8
BLACK
6
CONTINUOUS
10
1.5848437007874014
20
0.1623098818897638
11
1.5869772834645668
21
0.165503031496063
0
LINE
8
BLACK
6
CONTINUOUS
10
1.5869772834645668
20
0.165503031496063
11
1.5901704330708661
21
0.1676366141732283
0
LINE
8
BLACK
6
CONTINUOUS
10
1.5901704330708661
20
0.1676366141732283
11
1.5939370078740158
21
0.1683858267716535
0
LINE
8
BLACK
6
CONTINUOUS
10
1.5939370078740158
20
0.1683858267716535
11
1.6431496062992126
21
0.1683858267716535
0
LINE
8
BLACK
6
CONTINUOUS
10
1.6431496062992126
20
0.1683858267716535
11
1.6469161811023623
21
0.1676366141732283
0
LINE
8
BLACK
6
CONTINUOUS
10
2.816916181102362
20
0.1676366141732283
11
2.8201093307086613
21
0.165503031496063
0
LINE
8
BLACK
6
CONTINUOUS
10
2.8201093307086613
20
0.165503031496063
11
2.8222429133858267
21
0.1623098818897638
0
LINE
8
BLACK
6
CONTINUOUS
10
2.8222429133858267
20
0.1623098818897638
11
2.8229921259842521
21
0.1585433070866142
0
LINE
8
BLACK
6
CONTINUOUS
10
2.8229921259842521
20
0.1585433070866142
11
2.8229921259842521
21
0.1270472440944882
0
LINE
8
BLACK
6
CONTINUOUS
10
2.8229921259842521
20
0.1270472440944882
11
2.8222429133858267
21
0.1232806692913386
0
LINE
8
BLACK
6
CONTINUOUS
10
2.8222429133858267
20
0.1232806692913386
11
2.8201093307086613
21
0.1200875196850394
0
LINE
8
BLACK
6
CONTINUOUS
10
2.8201093307086613
20
0.1200875196850394
11
2.816916181102362
21
0.117953937007874
0
LINE
8
BLACK
6
CONTINUOUS
10
2.816916181102362
20
0.117953937007874
11
2.8131496062992127
21
0.1172047244094488
0
LINE
8
BLACK
6
CONTINUOUS
10
2.8131496062992127
20
0.1172047244094488
11
2.7639370078740155
21
0.1172047244094488
0
LINE
8
BLACK
6
CONTINUOUS
10
2.7639370078740155
20
0.1172047244094488
11
2.7601704330708663
21
0.117953937007874
0
LINE
8
BLACK
6
CONTINUOUS
10
2.7601704330708663
20
0.117953937007874
11
2.7569772834645669
21
0.1200875196850394
0
LINE
8
BLACK
6
CONTINUOUS
10
2.7569772834645669
20
0.1200875196850394
11
2.7548437007874016
21
0.1232806692913386
0
LINE
8
BLACK
6
CONTINUOUS
10
2.7548437007874016
20
0.1232806692913386
11
2.7540944881889762
21
0.1270472440944882
0
LINE
8
BLACK
6
CONTINUOUS
10
2.7540944881889762
20
0.1270472440944882
11
2.7540944881889762
21
0.1585433070866142
0
LINE
8
BLACK
6
CONTINUOUS
10
2.7540944881889762
20
0.1585433070866142
11
2.7548437007874016
21
0.1623098818897638
0
LINE
8
BLACK
6
CONTINUOUS
10
2.7548437007874016
20
0.1623098818897638
11
2.7569772834645669
21
0.165503031496063
0
LINE
8
BLACK
6
CONTINUOUS
10
2.7569772834645669
20
0.165503031496063
11
2.7601704330708663
21
0.1676366141732283
0
LINE
8
BLACK
6
CONTINUOUS
10
2.7601704330708663
20
0.1676366141732283
11
2.7639370078740155
21
0.1683858267716535
0
LINE
8
BLACK
6
CONTINUOUS
10
2.7639370078740155
20
0.1683858267716535
11
2.8131496062992127
21
0.1683858267716535
0
LINE
8
BLACK
6
CONTINUOUS
10
2.8131496062992127
20
0.1683858267716535
11
2.816916181102362
21
0.1676366141732283
0
LINE
8
BLACK
6
CONTINUOUS
10
0.8357744488188976
20
0.2663767716535433
11
0.8389675984251969
21
0.2642431889763779
0
LINE
8
BLACK
6
CONTINUOUS
10
0.8389675984251969
20
0.2642431889763779
11
0.8411011811023622
21
0.2610500393700788
0
LINE
8
BLACK
6
CONTINUOUS
10
0.8411011811023622
20
0.2610500393700788
11
0.8418503937007874
21
0.2572834645669291
0
LINE
8
BLACK
6
CONTINUOUS
10
0.8418503937007874
20
0.2572834645669291
11
0.8418503937007874
21
0.1687007874015748
0
LINE
8
BLACK
6
CONTINUOUS
10
0.8418503937007874
20
0.1687007874015748
11
0.8411011811023622
21
0.1649342125984252
0
LINE
8
BLACK
6
CONTINUOUS
10
0.8411011811023622
20
0.1649342125984252
11
0.8389675984251969
21
0.161741062992126
0
LINE
8
BLACK
6
CONTINUOUS
10
0.8389675984251969
20
0.161741062992126
11
0.8357744488188976
21
0.1596074803149606
0
LINE
8
BLACK
6
CONTINUOUS
10
0.8357744488188976
20
0.1596074803149606
11
0.8320078740157481
21
0.1588582677165354
0
LINE
8
BLACK
6
CONTINUOUS
10
0.8320078740157481
20
0.1588582677165354
11
0.7316141732283464
21
0.1588582677165354
0
LINE
8
BLACK
6
CONTINUOUS
10
0.7316141732283464
20
0.1588582677165354
11
0.7278475984251969
21
0.1596074803149606
0
LINE
8
BLACK
6
CONTINUOUS
10
0.7278475984251969
20
0.1596074803149606
11
0.7246544488188976
21
0.161741062992126
0
LINE
8
BLACK
6
CONTINUOUS
10
0.7246544488188976
20
0.161741062992126
11
0.7225208661417323
21
0.1649342125984252
0
LINE
8
BLACK
6
CONTINUOUS
10
0.7225208661417323
20
0.1649342125984252
11
0.7217716535433071
21
0.1687007874015748
0
LINE
8
BLACK
6
CONTINUOUS
10
0.7217716535433071
20
0.1687007874015748
11
0.7217716535433071
21
0.2572834645669291
0
LINE
8
BLACK
6
CONTINUOUS
10
0.7217716535433071
20
0.2572834645669291
11
0.7225208661417323
21
0.2610500393700788
0
LINE
8
BLACK
6
CONTINUOUS
10
0.7225208661417323
20
0.2610500393700788
11
0.7246544488188976
21
0.2642431889763779
0
LINE
8
BLACK
6
CONTINUOUS
10
0.7246544488188976
20
0.2642431889763779
11
0.7278475984251969
21
0.2663767716535433
0
LINE
8
BLACK
6
CONTINUOUS
10
0.7278475984251969
20
0.2663767716535433
11
0.7316141732283464
21
0.2671259842519685
0
LINE
8
BLACK
6
CONTINUOUS
10
0.7316141732283464
20
0.2671259842519685
11
0.8320078740157481
21
0.2671259842519685
0
LINE
8
BLACK
6
CONTINUOUS
10
0.8320078740157481
20
0.2671259842519685
11
0.8357744488188976
21
0.2663767716535433
0
LINE
8
BLACK
6
CONTINUOUS
10
0.9676642125984252
20
0.2663767716535433
11
0.9708573622047244
21
0.2642431889763779
0
LINE
8
BLACK
6
CONTINUOUS
10
0.9708573622047244
20
0.2642431889763779
11
0.9729909448818898
21
0.2610500393700788
0
LINE
8
BLACK
6
CONTINUOUS
10
0.9729909448818898
20
0.2610500393700788
11
0.9737401574803149
21
0.2572834645669291
0
LINE
8
BLACK
6
CONTINUOUS
10
0.9737401574803149
20
0.2572834645669291
11
0.9737401574803149
21
0.1687007874015748
0
LINE
8
BLACK
6
CONTINUOUS
10
0.9737401574803149
20
0.1687007874015748
11
0.9729909448818898
21
0.1649342125984252
0
LINE
8
BLACK
6
CONTINUOUS
10
0.9729909448818898
20
0.1649342125984252
11
0.9708573622047244
21
0.161741062992126
0
LINE
8
BLACK
6
CONTINUOUS
10
0.9708573622047244
20
0.161741062992126
11
0.9676642125984252
21
0.1596074803149606
0
LINE
8
BLACK
6
CONTINUOUS
10
0.9676642125984252
20
0.1596074803149606
11
0.9638976377952756
21
0.1588582677165354
0
LINE
8
BLACK
6
CONTINUOUS
10
0.9638976377952756
20
0.1588582677165354
11
0.863503937007874
21
0.1588582677165354
0
LINE
8
BLACK
6
CONTINUOUS
10
0.863503937007874
20
0.1588582677165354
11
0.8597373622047244
21
0.1596074803149606
0
LINE
8
BLACK
6
CONTINUOUS
10
0.8597373622047244
20
0.1596074803149606
11
0.8565442125984252
21
0.161741062992126
0
LINE
8
BLACK
6
CONTINUOUS
10
0.8565442125984252
20
0.161741062992126
11
0.8544106299212598
21
0.1649342125984252
0
LINE
8
BLACK
6
CONTINUOUS
10
0.8544106299212598
20
0.1649342125984252
11
0.8536614173228346
21
0.1687007874015748
0
LINE
8
BLACK
6
CONTINUOUS
10
0.8536614173228346
20
0.1687007874015748
11
0.8536614173228346
21
0.2572834645669291
0
LINE
8
BLACK
6
CONTINUOUS
10
0.8536614173228346
20
0.2572834645669291
11
0.8544106299212598
21
0.2610500393700788
0
LINE
8
BLACK
6
CONTINUOUS
10
0.8544106299212598
20
0.2610500393700788
11
0.8565442125984252
21
0.2642431889763779
0
LINE
8
BLACK
6
CONTINUOUS
10
0.8565442125984252
20
0.2642431889763779
11
0.8597373622047244
21
0.2663767716535433
0
LINE
8
BLACK
6
CONTINUOUS
10
0.8597373622047244
20
0.2663767716535433
11
0.863503937007874
21
0.2671259842519685
0
LINE
8
BLACK
6
CONTINUOUS
10
0.863503937007874
20
0.2671259842519685
11
0.9638976377952756
21
0.2671259842519685
0
LINE
8
BLACK
6
CONTINUOUS
10
0.9638976377952756
20
0.2671259842519685
11
0.9676642125984252
21
0.2663767716535433
0
LINE
8
BLACK
6
CONTINUOUS
10
0.6369555511811024
20
0.2061405511811024
11
0.6401487007874016
21
0.204006968503937
0
LINE
8
BLACK
6
CONTINUOUS
10
0.6401487007874016
20
0.204006968503937
11
0.6422822834645669
21
0.2008138188976378
0
LINE
8
BLACK
6
CONTINUOUS
10
0.6422822834645669
20
0.2008138188976378
11
0.6430314960629921
21
0.1970472440944882
0
LINE
8
BLACK
6
CONTINUOUS
10
0.6430314960629921
20
0.1970472440944882
11
0.6430314960629921
21
0.169488188976378
0
LINE
8
BLACK
6
CONTINUOUS
10
0.6430314960629921
20
0.169488188976378
11
0.6422822834645669
21
0.1657216141732283
0
LINE
8
BLACK
6
CONTINUOUS
10
0.6422822834645669
20
0.1657216141732283
11
0.6401487007874016
21
0.1625284645669291
0
LINE
8
BLACK
6
CONTINUOUS
10
0.6401487007874016
20
0.1625284645669291
11
0.6369555511811024
21
0.1603948818897638
0
LINE
8
BLACK
6
CONTINUOUS
10
0.6369555511811024
20
0.1603948818897638
11
0.6331889763779528
21
0.1596456692913386
0
LINE
8
BLACK
6
CONTINUOUS
10
0.6331889763779528
20
0.1596456692913386
11
0.566259842519685
21
0.1596456692913386
0
LINE
8
BLACK
6
CONTINUOUS
10
0.566259842519685
20
0.1596456692913386
11
0.5624932677165354
21
0.1603948818897638
0
LINE
8
BLACK
6
CONTINUOUS
10
0.5624932677165354
20
0.1603948818897638
11
0.5593001181102362
21
0.1625284645669291
0
LINE
8
BLACK
6
CONTINUOUS
10
0.5593001181102362
20
0.1625284645669291
11
0.5571665354330708
21
0.1657216141732283
0
LINE
8
BLACK
6
CONTINUOUS
10
0.5571665354330708
20
0.1657216141732283
11
0.5564173228346456
21
0.169488188976378
0
LINE
8
BLACK
6
CONTINUOUS
10
0.5564173228346456
20
0.169488188976378
11
0.5564173228346456
21
0.1970472440944882
0
LINE
8
BLACK
6
CONTINUOUS
10
0.5564173228346456
20
0.1970472440944882
11
0.5571665354330708
21
0.2008138188976378
0
LINE
8
BLACK
6
CONTINUOUS
10
0.5571665354330708
20
0.2008138188976378
11
0.5593001181102362
21
0.204006968503937
0
LINE
8
BLACK
6
CONTINUOUS
10
0.5593001181102362
20
0.204006968503937
11
0.5624932677165354
21
0.2061405511811024
0
LINE
8
BLACK
6
CONTINUOUS
10
0.5624932677165354
20
0.2061405511811024
11
0.566259842519685
21
0.2068897637795276
0
LINE
8
BLACK
6
CONTINUOUS
10
0.566259842519685
20
0.2068897637795276
11
0.6331889763779528
21
0.2068897637795276
0
LINE
8
BLACK
6
CONTINUOUS
10
0.6331889763779528
20
0.2068897637795276
11
0.6369555511811024
21
0.2061405511811024
0
LINE
8
BLACK
6
CONTINUOUS
10
2.0120736614173227
20
0.2672429133858268
11
2.015266811023622
21
0.2651093307086614
0
LINE
8
BLACK
6
CONTINUOUS
10
2.015266811023622
20
0.2651093307086614
11
2.0174003937007874
21
0.2619161811023622
0
LINE
8
BLACK
6
CONTINUOUS
10
2.0174003937007874
20
0.2619161811023622
11
2.0181496062992124
21
0.2581496062992126
0
LINE
8
BLACK
6
CONTINUOUS
10
2.0181496062992124
20
0.2581496062992126
11
2.0181496062992124
21
0.1695669291338583
0
LINE
8
BLACK
6
CONTINUOUS
10
2.0181496062992124
20
0.1695669291338583
11
2.0174003937007874
21
0.1658003543307087
0
LINE
8
BLACK
6
CONTINUOUS
10
2.0174003937007874
20
0.1658003543307087
11
2.015266811023622
21
0.1626072047244095
0
LINE
8
BLACK
6
CONTINUOUS
10
2.015266811023622
20
0.1626072047244095
11
2.0120736614173227
21
0.1604736220472441
0
LINE
8
BLACK
6
CONTINUOUS
10
2.0120736614173227
20
0.1604736220472441
11
2.008307086614173
21
0.1597244094488189
0
LINE
8
BLACK
6
CONTINUOUS
10
2.008307086614173
20
0.1597244094488189
11
1.9079133858267716
21
0.1597244094488189
0
LINE
8
BLACK
6
CONTINUOUS
10
1.9079133858267716
20
0.1597244094488189
11
1.9041468110236219
21
0.1604736220472441
0
LINE
8
BLACK
6
CONTINUOUS
10
1.9041468110236219
20
0.1604736220472441
11
1.9009536614173228
21
0.1626072047244095
0
LINE
8
BLACK
6
CONTINUOUS
10
1.9009536614173228
20
0.1626072047244095
11
1.8988200787401575
21
0.1658003543307087
0
LINE
8
BLACK
6
CONTINUOUS
10
1.8988200787401575
20
0.1658003543307087
11
1.8980708661417323
21
0.1695669291338583
0
LINE
8
BLACK
6
CONTINUOUS
10
1.8980708661417323
20
0.1695669291338583
11
1.8980708661417323
21
0.2581496062992126
0
LINE
8
BLACK
6
CONTINUOUS
10
1.8980708661417323
20
0.2581496062992126
11
1.8988200787401575
21
0.2619161811023622
0
LINE
8
BLACK
6
CONTINUOUS
10
1.8988200787401575
20
0.2619161811023622
11
1.9009536614173228
21
0.2651093307086614
0
LINE
8
BLACK
6
CONTINUOUS
10
1.9009536614173228
20
0.2651093307086614
11
1.9041468110236219
21
0.2672429133858268
0
LINE
8
BLACK
6
CONTINUOUS
10
1.9041468110236219
20
0.2672429133858268
11
1.9079133858267716
21
0.267992125984252
0
LINE
8
BLACK
6
CONTINUOUS
10
1.9079133858267716
20
0.267992125984252
11
2.008307086614173
21
0.267992125984252
0
LINE
8
BLACK
6
CONTINUOUS
10
2.008307086614173
20
0.267992125984252
11
2.0120736614173227
21
0.2672429133858268
0
LINE
8
BLACK
6
CONTINUOUS
10
2.1439634251968505
20
0.2672429133858268
11
2.1471565748031494
21
0.2651093307086614
0
LINE
8
BLACK
6
CONTINUOUS
10
2.1471565748031494
20
0.2651093307086614
11
2.1492901574803147
21
0.2619161811023622
0
LINE
8
BLACK
6
CONTINUOUS
10
2.1492901574803147
20
0.2619161811023622
11
2.1500393700787401
21
0.2581496062992126
0
LINE
8
BLACK
6
CONTINUOUS
10
2.1500393700787401
20
0.2581496062992126
11
2.1500393700787401
21
0.1695669291338583
0
LINE
8
BLACK
6
CONTINUOUS
10
2.1500393700787401
20
0.1695669291338583
11
2.1492901574803147
21
0.1658003543307087
0
LINE
8
BLACK
6
CONTINUOUS
10
2.1492901574803147
20
0.1658003543307087
11
2.1471565748031494
21
0.1626072047244095
0
LINE
8
BLACK
6
CONTINUOUS
10
2.1471565748031494
20
0.1626072047244095
11
2.1439634251968505
21
0.1604736220472441
0
LINE
8
BLACK
6
CONTINUOUS
10
2.1439634251968505
20
0.1604736220472441
11
2.1401968503937008
21
0.1597244094488189
0
LINE
8
BLACK
6
CONTINUOUS
10
2.1401968503937008
20
0.1597244094488189
11
2.0398031496062994
21
0.1597244094488189
0
LINE
8
BLACK
6
CONTINUOUS
10
2.0398031496062994
20
0.1597244094488189
11
2.0360365748031497
21
0.1604736220472441
0
LINE
8
BLACK
6
CONTINUOUS
10
2.0360365748031497
20
0.1604736220472441
11
2.0328434251968504
21
0.1626072047244095
0
LINE
8
BLACK
6
CONTINUOUS
10
2.0328434251968504
20
0.1626072047244095
11
2.030709842519685
21
0.1658003543307087
0
LINE
8
BLACK
6
CONTINUOUS
10
2.030709842519685
20
0.1658003543307087
11
2.0299606299212596
21
0.1695669291338583
0
LINE
8
BLACK
6
CONTINUOUS
10
2.0299606299212596
20
0.1695669291338583
11
2.0299606299212596
21
0.2581496062992126
0
LINE
8
BLACK
6
CONTINUOUS
10
2.0299606299212596
20
0.2581496062992126
11
2.030709842519685
21
0.2619161811023622
0
LINE
8
BLACK
6
CONTINUOUS
10
2.030709842519685
20
0.2619161811023622
11
2.0328434251968504
21
0.2651093307086614
0
LINE
8
BLACK
6
CONTINUOUS
10
2.0328434251968504
20
0.2651093307086614
11
2.0360365748031497
21
0.2672429133858268
0
LINE
8
BLACK
6
CONTINUOUS
10
2.0360365748031497
20
0.2672429133858268
11
2.0398031496062994
21
0.267992125984252
0
LINE
8
BLACK
6
CONTINUOUS
10
2.0398031496062994
20
0.267992125984252
11
2.1401968503937008
21
0.267992125984252
0
LINE
8
BLACK
6
CONTINUOUS
10
2.1401968503937008
20
0.267992125984252
11
2.1439634251968505
21
0.2672429133858268
0
LINE
8
BLACK
6
CONTINUOUS
10
3.1820736614173226
20
0.2672429133858268
11
3.185266811023622
21
0.2651093307086614
0
LINE
8
BLACK
6
CONTINUOUS
10
3.185266811023622
20
0.2651093307086614
11
3.1874003937007873
21
0.2619161811023622
0
LINE
8
BLACK
6
CONTINUOUS
10
3.1874003937007873
20
0.2619161811023622
11
3.1881496062992127
21
0.2581496062992126
0
LINE
8
BLACK
6
CONTINUOUS
10
3.1881496062992127
20
0.2581496062992126
11
3.1881496062992127
21
0.1695669291338583
0
LINE
8
BLACK
6
CONTINUOUS
10
3.1881496062992127
20
0.1695669291338583
11
3.1874003937007873
21
0.1658003543307087
0
LINE
8
BLACK
6
CONTINUOUS
10
3.1874003937007873
20
0.1658003543307087
11
3.185266811023622
21
0.1626072047244095
0
LINE
8
BLACK
6
CONTINUOUS
10
3.185266811023622
20
0.1626072047244095
11
3.1820736614173226
21
0.1604736220472441
0
LINE
8
BLACK
6
CONTINUOUS
10
3.1820736614173226
20
0.1604736220472441
11
3.1783070866141729
21
0.1597244094488189
0
LINE
8
BLACK
6
CONTINUOUS
10
3.1783070866141729
20
0.1597244094488189
11
3.0779133858267715
21
0.1597244094488189
0
LINE
8
BLACK
6
CONTINUOUS
10
3.0779133858267715
20
0.1597244094488189
11
3.0741468110236219
21
0.1604736220472441
0
LINE
8
BLACK
6
CONTINUOUS
10
3.0741468110236219
20
0.1604736220472441
11
3.070953661417323
21
0.1626072047244095
0
LINE
8
BLACK
6
CONTINUOUS
10
3.070953661417323
20
0.1626072047244095
11
3.0688200787401576
21
0.1658003543307087
0
LINE
8
BLACK
6
CONTINUOUS
10
3.0688200787401576
20
0.1658003543307087
11
3.0680708661417322
21
0.1695669291338583
0
LINE
8
BLACK
6
CONTINUOUS
10
3.0680708661417322
20
0.1695669291338583
11
3.0680708661417322
21
0.2581496062992126
0
LINE
8
BLACK
6
CONTINUOUS
10
3.0680708661417322
20
0.2581496062992126
11
3.0688200787401576
21
0.2619161811023622
0
LINE
8
BLACK
6
CONTINUOUS
10
3.0688200787401576
20
0.2619161811023622
11
3.070953661417323
21
0.2651093307086614
0
LINE
8
BLACK
6
CONTINUOUS
10
3.070953661417323
20
0.2651093307086614
11
3.0741468110236219
21
0.2672429133858268
0
LINE
8
BLACK
6
CONTINUOUS
10
3.0741468110236219
20
0.2672429133858268
11
3.0779133858267715
21
0.267992125984252
0
LINE
8
BLACK
6
CONTINUOUS
10
3.0779133858267715
20
0.267992125984252
11
3.1783070866141729
21
0.267992125984252
0
LINE
8
BLACK
6
CONTINUOUS
10
3.1783070866141729
20
0.267992125984252
11
3.1820736614173226
21
0.2672429133858268
0
LINE
8
BLACK
6
CONTINUOUS
10
3.3139634251968504
20
0.2672429133858268
11
3.3171565748031497
21
0.2651093307086614
0
LINE
8
BLACK
6
CONTINUOUS
10
3.3171565748031497
20
0.2651093307086614
11
3.3192901574803151
21
0.2619161811023622
0
LINE
8
BLACK
6
CONTINUOUS
10
3.3192901574803151
20
0.2619161811023622
11
3.3200393700787401
21
0.2581496062992126
0
LINE
8
BLACK
6
CONTINUOUS
10
3.3200393700787401
20
0.2581496062992126
11
3.3200393700787401
21
0.1695669291338583
0
LINE
8
BLACK
6
CONTINUOUS
10
3.3200393700787401
20
0.1695669291338583
11
3.3192901574803151
21
0.1658003543307087
0
LINE
8
BLACK
6
CONTINUOUS
10
3.3192901574803151
20
0.1658003543307087
11
3.3171565748031497
21
0.1626072047244095
0
LINE
8
BLACK
6
CONTINUOUS
10
3.3171565748031497
20
0.1626072047244095
11
3.3139634251968504
21
0.1604736220472441
0
LINE
8
BLACK
6
CONTINUOUS
10
3.3139634251968504
20
0.1604736220472441
11
3.3101968503937007
21
0.1597244094488189
0
LINE
8
BLACK
6
CONTINUOUS
10
3.3101968503937007
20
0.1597244094488189
11
3.2098031496062993
21
0.1597244094488189
0
LINE
8
BLACK
6
CONTINUOUS
10
3.2098031496062993
20
0.1597244094488189
11
3.2060365748031496
21
0.1604736220472441
0
LINE
8
BLACK
6
CONTINUOUS
10
3.2060365748031496
20
0.1604736220472441
11
3.2028434251968503
21
0.1626072047244095
0
LINE
8
BLACK
6
CONTINUOUS
10
3.2028434251968503
20
0.1626072047244095
11
3.2007098425196849
21
0.1658003543307087
0
LINE
8
BLACK
6
CONTINUOUS
10
3.2007098425196849
20
0.1658003543307087
11
3.19996062992126
21
0.1695669291338583
0
LINE
8
BLACK
6
CONTINUOUS
10
3.19996062992126
20
0.1695669291338583
11
3.19996062992126
21
0.2581496062992126
0
LINE
8
BLACK
6
CONTINUOUS
10
3.19996062992126
20
0.2581496062992126
11
3.2007098425196849
21
0.2619161811023622
0
LINE
8
BLACK
6
CONTINUOUS
10
3.2007098425196849
20
0.2619161811023622
11
3.2028434251968503
21
0.2651093307086614
0
LINE
8
BLACK
6
CONTINUOUS
10
3.2028434251968503
20
0.2651093307086614
11
3.2060365748031496
21
0.2672429133858268
0
LINE
8
BLACK
6
CONTINUOUS
10
3.2060365748031496
20
0.2672429133858268
11
3.2098031496062993
21
0.267992125984252
0
LINE
8
BLACK
6
CONTINUOUS
10
3.2098031496062993
20
0.267992125984252
11
3.3101968503937007
21
0.267992125984252
0
LINE
8
BLACK
6
CONTINUOUS
10
3.3101968503937007
20
0.267992125984252
11
3.3139634251968504
21
0.2672429133858268
0
LINE
8
BLACK
6
CONTINUOUS
10
1.8132547637795275
20
0.2070066929133858
11
1.8164479133858267
21
0.2048731102362205
0
LINE
8
BLACK
6
CONTINUOUS
10
1.8164479133858267
20
0.2048731102362205
11
1.818581496062992
21
0.2016799606299212
0
LINE
8
BLACK
6
CONTINUOUS
10
1.818581496062992
20
0.2016799606299212
11
1.8193307086614172
21
0.1979133858267716
0
LINE
8
BLACK
6
CONTINUOUS
10
1.8193307086614172
20
0.1979133858267716
11
1.8193307086614172
21
0.1703543307086614
0
LINE
8
BLACK
6
CONTINUOUS
10
1.8193307086614172
20
0.1703543307086614
11
1.818581496062992
21
0.1665877559055118
0
LINE
8
BLACK
6
CONTINUOUS
10
1.818581496062992
20
0.1665877559055118
11
1.8164479133858267
21
0.1633946062992126
0
LINE
8
BLACK
6
CONTINUOUS
10
1.8164479133858267
20
0.1633946062992126
11
1.8132547637795275
21
0.1612610236220473
0
LINE
8
BLACK
6
CONTINUOUS
10
1.8132547637795275
20
0.1612610236220473
11
1.8094881889763779
21
0.1605118110236221
0
LINE
8
BLACK
6
CONTINUOUS
10
1.8094881889763779
20
0.1605118110236221
11
1.7425590551181103
21
0.1605118110236221
0
LINE
8
BLACK
6
CONTINUOUS
10
1.7425590551181103
20
0.1605118110236221
11
1.7387924803149606
21
0.1612610236220473
0
LINE
8
BLACK
6
CONTINUOUS
10
1.7387924803149606
20
0.1612610236220473
11
1.7355993307086615
21
0.1633946062992126
0
LINE
8
BLACK
6
CONTINUOUS
10
1.7355993307086615
20
0.1633946062992126
11
1.7334657480314961
21
0.1665877559055118
0
LINE
8
BLACK
6
CONTINUOUS
10
1.7334657480314961
20
0.1665877559055118
11
1.7327165354330709
21
0.1703543307086614
0
LINE
8
BLACK
6
CONTINUOUS
10
1.7327165354330709
20
0.1703543307086614
11
1.7327165354330709
21
0.1979133858267716
0
LINE
8
BLACK
6
CONTINUOUS
10
1.7327165354330709
20
0.1979133858267716
11
1.7334657480314961
21
0.2016799606299212
0
LINE
8
BLACK
6
CONTINUOUS
10
1.7334657480314961
20
0.2016799606299212
11
1.7355993307086615
21
0.2048731102362205
0
LINE
8
BLACK
6
CONTINUOUS
10
1.7355993307086615
20
0.2048731102362205
11
1.7387924803149606
21
0.2070066929133858
0
LINE
8
BLACK
6
CONTINUOUS
10
1.7387924803149606
20
0.2070066929133858
11
1.7425590551181103
21
0.207755905511811
0
LINE
8
BLACK
6
CONTINUOUS
10
1.7425590551181103
20
0.207755905511811
11
1.8094881889763779
21
0.207755905511811
0
LINE
8
BLACK
6
CONTINUOUS
10
1.8094881889763779
20
0.207755905511811
11
1.8132547637795275
21
0.2070066929133858
0
LINE
8
BLACK
6
CONTINUOUS
10
2.9832547637795277
20
0.2070066929133858
11
2.9864479133858266
21
0.2048731102362205
0
LINE
8
BLACK
6
CONTINUOUS
10
2.9864479133858266
20
0.2048731102362205
11
2.9885814960629919
21
0.2016799606299212
0
LINE
8
BLACK
6
CONTINUOUS
10
2.9885814960629919
20
0.2016799606299212
11
2.9893307086614174
21
0.1979133858267716
0
LINE
8
BLACK
6
CONTINUOUS
10
2.9893307086614174
20
0.1979133858267716
11
2.9893307086614174
21
0.1703543307086614
0
LINE
8
BLACK
6
CONTINUOUS
10
2.9893307086614174
20
0.1703543307086614
11
2.9885814960629919
21
0.1665877559055118
0
LINE
8
BLACK
6
CONTINUOUS
10
2.9885814960629919
20
0.1665877559055118
11
2.9864479133858266
21
0.1633946062992126
0
LINE
8
BLACK
6
CONTINUOUS
10
2.9864479133858266
20
0.1633946062992126
11
2.9832547637795277
21
0.1612610236220473
0
LINE
8
BLACK
6
CONTINUOUS
10
2.9832547637795277
20
0.1612610236220473
11
2.979488188976378
21
0.1605118110236221
0
LINE
8
BLACK
6
CONTINUOUS
10
2.979488188976378
20
0.1605118110236221
11
2.91255905511811
21
0.1605118110236221
0
LINE
8
BLACK
6
CONTINUOUS
10
2.91255905511811
20
0.1605118110236221
11
2.9087924803149607
21
0.1612610236220473
0
LINE
8
BLACK
6
CONTINUOUS
10
2.9087924803149607
20
0.1612610236220473
11
2.9055993307086614
21
0.1633946062992126
0
LINE
8
BLACK
6
CONTINUOUS
10
2.9055993307086614
20
0.1633946062992126
11
2.903465748031496
21
0.1665877559055118
0
LINE
8
BLACK
6
CONTINUOUS
10
2.903465748031496
20
0.1665877559055118
11
2.9027165354330706
21
0.1703543307086614
0
LINE
8
BLACK
6
CONTINUOUS
10
2.9027165354330706
20
0.1703543307086614
11
2.9027165354330706
21
0.1979133858267716
0
LINE
8
BLACK
6
CONTINUOUS
10
2.9027165354330706
20
0.1979133858267716
11
2.903465748031496
21
0.2016799606299212
0
LINE
8
BLACK
6
CONTINUOUS
10
2.903465748031496
20
0.2016799606299212
11
2.9055993307086614
21
0.2048731102362205
0
LINE
8
BLACK
6
CONTINUOUS
10
2.9055993307086614
20
0.2048731102362205
11
2.9087924803149607
21
0.2070066929133858
0
LINE
8
BLACK
6
CONTINUOUS
10
2.9087924803149607
20
0.2070066929133858
11
2.91255905511811
21
0.207755905511811
0
LINE
8
BLACK
6
CONTINUOUS
10
2.91255905511811
20
0.207755905511811
11
2.979488188976378
21
0.207755905511811
0
LINE
8
BLACK
6
CONTINUOUS
10
2.979488188976378
20
0.207755905511811
11
2.9832547637795277
21
0.2070066929133858
0
LINE
8
BLACK
6
CONTINUOUS
10
0.470616968503937
20
0.2888177165354331
11
0.4738101181102362
21
0.2866841338582677
0
LINE
8
BLACK
6
CONTINUOUS
10
0.4738101181102362
20
0.2866841338582677
11
0.4759437007874016
21
0.2834909842519685
0
LINE
8
BLACK
6
CONTINUOUS
10
0.4759437007874016
20
0.2834909842519685
11
0.4766929133858268
21
0.2797244094488189
0
LINE
8
BLACK
6
CONTINUOUS
10
0.4766929133858268
20
0.2797244094488189
11
0.4766929133858268
21
0.2482283464566929
0
LINE
8
BLACK
6
CONTINUOUS
10
0.4766929133858268
20
0.2482283464566929
11
0.4759437007874016
21
0.2444617716535433
0
LINE
8
BLACK
6
CONTINUOUS
10
0.4759437007874016
20
0.2444617716535433
11
0.4738101181102362
21
0.2412686220472441
0
LINE
8
BLACK
6
CONTINUOUS
10
0.4738101181102362
20
0.2412686220472441
11
0.470616968503937
21
0.2391350393700787
0
LINE
8
BLACK
6
CONTINUOUS
10
0.470616968503937
20
0.2391350393700787
11
0.4668503937007874
21
0.2383858267716535
0
LINE
8
BLACK
6
CONTINUOUS
10
0.4668503937007874
20
0.2383858267716535
11
0.4176377952755905
21
0.2383858267716535
0
LINE
8
BLACK
6
CONTINUOUS
10
0.4176377952755905
20
0.2383858267716535
11
0.413871220472441
21
0.2391350393700787
0
LINE
8
BLACK
6
CONTINUOUS
10
0.413871220472441
20
0.2391350393700787
11
0.4106780708661417
21
0.2412686220472441
0
LINE
8
BLACK
6
CONTINUOUS
10
0.4106780708661417
20
0.2412686220472441
11
0.4085444881889764
21
0.2444617716535433
0
LINE
8
BLACK
6
CONTINUOUS
10
0.4085444881889764
20
0.2444617716535433
11
0.4077952755905512
21
0.2482283464566929
0
LINE
8
BLACK
6
CONTINUOUS
10
0.4077952755905512
20
0.2482283464566929
11
0.4077952755905512
21
0.2797244094488189
0
LINE
8
BLACK
6
CONTINUOUS
10
0.4077952755905512
20
0.2797244094488189
11
0.4085444881889764
21
0.2834909842519685
0
LINE
8
BLACK
6
CONTINUOUS
10
0.4085444881889764
20
0.2834909842519685
11
0.4106780708661417
21
0.2866841338582677
0
LINE
8
BLACK
6
CONTINUOUS
10
0.4106780708661417
20
0.2866841338582677
11
0.413871220472441
21
0.2888177165354331
0
LINE
8
BLACK
6
CONTINUOUS
10
0.413871220472441
20
0.2888177165354331
11
0.4176377952755905
21
0.2895669291338583
0
LINE
8
BLACK
6
CONTINUOUS
10
0.4176377952755905
20
0.2895669291338583
11
0.4668503937007874
21
0.2895669291338583
0
LINE
8
BLACK
6
CONTINUOUS
10
0.4668503937007874
20
0.2895669291338583
11
0.470616968503937
21
0.2888177165354331
0
LINE
8
BLACK
6
CONTINUOUS
10
1.6469161811023623
20
0.2896838582677165
11
1.6501093307086614
21
0.2875502755905512
0
LINE
8
BLACK
6
CONTINUOUS
10
1.6501093307086614
20
0.2875502755905512
11
1.6522429133858267
21
0.2843571259842519
0
LINE
8
BLACK
6
CONTINUOUS
10
1.6522429133858267
20
0.2843571259842519
11
1.6529921259842519
21
0.2805905511811024
0
LINE
8
BLACK
6
CONTINUOUS
10
1.6529921259842519
20
0.2805905511811024
11
1.6529921259842519
21
0.2490944881889764
0
LINE
8
BLACK
6
CONTINUOUS
10
1.6529921259842519
20
0.2490944881889764
11
1.6522429133858267
21
0.2453279133858268
0
LINE
8
BLACK
6
CONTINUOUS
10
1.6522429133858267
20
0.2453279133858268
11
1.6501093307086614
21
0.2421347637795276
0
LINE
8
BLACK
6
CONTINUOUS
10
1.6501093307086614
20
0.2421347637795276
11
1.6469161811023623
21
0.2400011811023622
0
LINE
8
BLACK
6
CONTINUOUS
10
1.6469161811023623
20
0.2400011811023622
11
1.6431496062992126
21
0.239251968503937
0
LINE
8
BLACK
6
CONTINUOUS
10
1.6431496062992126
20
0.239251968503937
11
1.5939370078740158
21
0.239251968503937
0
LINE
8
BLACK
6
CONTINUOUS
10
1.5939370078740158
20
0.239251968503937
11
1.5901704330708661
21
0.2400011811023622
0
LINE
8
BLACK
6
CONTINUOUS
10
1.5901704330708661
20
0.2400011811023622
11
1.5869772834645668
21
0.2421347637795276
0
LINE
8
BLACK
6
CONTINUOUS
10
1.5869772834645668
20
0.2421347637795276
11
1.5848437007874014
21
0.2453279133858268
0
LINE
8
BLACK
6
CONTINUOUS
10
1.5848437007874014
20
0.2453279133858268
11
1.5840944881889762
21
0.2490944881889764
0
LINE
8
BLACK
6
CONTINUOUS
10
1.5840944881889762
20
0.2490944881889764
11
1.5840944881889762
21
0.2805905511811024
0
LINE
8
BLACK
6
CONTINUOUS
10
1.5840944881889762
20
0.2805905511811024
11
1.5848437007874014
21
0.2843571259842519
0
LINE
8
BLACK
6
CONTINUOUS
10
1.5848437007874014
20
0.2843571259842519
11
1.5869772834645668
21
0.2875502755905512
0
LINE
8
BLACK
6
CONTINUOUS
10
1.5869772834645668
20
0.2875502755905512
11
1.5901704330708661
21
0.2896838582677165
0
LINE
8
BLACK
6
CONTINUOUS
10
1.5901704330708661
20
0.2896838582677165
11
1.5939370078740158
21
0.2904330708661417
0
LINE
8
BLACK
6
CONTINUOUS
10
1.5939370078740158
20
0.2904330708661417
11
1.6431496062992126
21
0.2904330708661417
0
LINE
8
BLACK
6
CONTINUOUS
10
1.6431496062992126
20
0.2904330708661417
11
1.6469161811023623
21
0.2896838582677165
0
LINE
8
BLACK
6
CONTINUOUS
10
2.816916181102362
20
0.2896838582677165
11
2.8201093307086613
21
0.2875502755905512
0
LINE
8
BLACK
6
CONTINUOUS
10
2.8201093307086613
20
0.2875502755905512
11
2.8222429133858267
21
0.2843571259842519
0
LINE
8
BLACK
6
CONTINUOUS
10
2.8222429133858267
20
0.2843571259842519
11
2.8229921259842521
21
0.2805905511811024
0
LINE
8
BLACK
6
CONTINUOUS
10
2.8229921259842521
20
0.2805905511811024
11
2.8229921259842521
21
0.2490944881889764
0
LINE
8
BLACK
6
CONTINUOUS
10
2.8229921259842521
20
0.2490944881889764
11
2.8222429133858267
21
0.2453279133858268
0
LINE
8
BLACK
6
CONTINUOUS
10
2.8222429133858267
20
0.2453279133858268
11
2.8201093307086613
21
0.2421347637795276
0
LINE
8
BLACK
6
CONTINUOUS
10
2.8201093307086613
20
0.2421347637795276
11
2.816916181102362
21
0.2400011811023622
0
LINE
8
BLACK
6
CONTINUOUS
10
2.816916181102362
20
0.2400011811023622
11
2.8131496062992127
21
0.239251968503937
0
LINE
8
BLACK
6
CONTINUOUS
10
2.8131496062992127
20
0.239251968503937
11
2.7639370078740155
21
0.239251968503937
0
LINE
8
BLACK
6
CONTINUOUS
10
2.7639370078740155
20
0.239251968503937
11
2.7601704330708663
21
0.2400011811023622
0
LINE
8
BLACK
6
CONTINUOUS
10
2.7601704330708663
20
0.2400011811023622
11
2.7569772834645669
21
0.2421347637795276
0
LINE
8
BLACK
6
CONTINUOUS
10
2.7569772834645669
20
0.2421347637795276
11
2.7548437007874016
21
0.2453279133858268
0
LINE
8
BLACK
6
CONTINUOUS
10
2.7548437007874016
20
0.2453279133858268
11
2.7540944881889762
21
0.2490944881889764
0
LINE
8
BLACK
6
CONTINUOUS
10
2.7540944881889762
20
0.2490944881889764
11
2.7540944881889762
21
0.2805905511811024
0
LINE
8
BLACK
6
CONTINUOUS
10
2.7540944881889762
20
0.2805905511811024
11
2.7548437007874016
21
0.2843571259842519
0
LINE
8
BLACK
6
CONTINUOUS
10
2.7548437007874016
20
0.2843571259842519
11
2.7569772834645669
21
0.2875502755905512
0
LINE
8
BLACK
6
CONTINUOUS
10
2.7569772834645669
20
0.2875502755905512
11
2.7601704330708663
21
0.2896838582677165
0
LINE
8
BLACK
6
CONTINUOUS
10
2.7601704330708663
20
0.2896838582677165
11
2.7639370078740155
21
0.2904330708661417
0
LINE
8
BLACK
6
CONTINUOUS
10
2.7639370078740155
20
0.2904330708661417
11
2.8131496062992127
21
0.2904330708661417
0
LINE
8
BLACK
6
CONTINUOUS
10
2.8131496062992127
20
0.2904330708661417
11
2.816916181102362
21
0.2896838582677165
0
LINE
8
BLACK
6
CONTINUOUS
10
0.8357744488188976
20
0.3864555118110236
11
0.8389675984251969
21
0.3843219291338583
0
LINE
8
BLACK
6
CONTINUOUS
10
0.8389675984251969
20
0.3843219291338583
11
0.8411011811023622
21
0.381128779527559
0
LINE
8
BLACK
6
CONTINUOUS
10
0.8411011811023622
20
0.381128779527559
11
0.8418503937007874
21
0.3773622047244095
0
LINE
8
BLACK
6
CONTINUOUS
10
0.8418503937007874
20
0.3773622047244095
11
0.8418503937007874
21
0.2887795275590551
0
LINE
8
BLACK
6
CONTINUOUS
10
0.8418503937007874
20
0.2887795275590551
11
0.8411011811023622
21
0.2850129527559055
0
LINE
8
BLACK
6
CONTINUOUS
10
0.8411011811023622
20
0.2850129527559055
11
0.8389675984251969
21
0.2818198031496063
0
LINE
8
BLACK
6
CONTINUOUS
10
0.8389675984251969
20
0.2818198031496063
11
0.8357744488188976
21
0.279686220472441
0
LINE
8
BLACK
6
CONTINUOUS
10
0.8357744488188976
20
0.279686220472441
11
0.8320078740157481
21
0.2789370078740158
0
LINE
8
BLACK
6
CONTINUOUS
10
0.8320078740157481
20
0.2789370078740158
11
0.7316141732283464
21
0.2789370078740158
0
LINE
8
BLACK
6
CONTINUOUS
10
0.7316141732283464
20
0.2789370078740158
11
0.7278475984251969
21
0.279686220472441
0
LINE
8
BLACK
6
CONTINUOUS
10
0.7278475984251969
20
0.279686220472441
11
0.7246544488188976
21
0.2818198031496063
0
LINE
8
BLACK
6
CONTINUOUS
10
0.7246544488188976
20
0.2818198031496063
11
0.7225208661417323
21
0.2850129527559055
0
LINE
8
BLACK
6
CONTINUOUS
10
0.7225208661417323
20
0.2850129527559055
11
0.7217716535433071
21
0.2887795275590551
0
LINE
8
BLACK
6
CONTINUOUS
10
0.7217716535433071
20
0.2887795275590551
11
0.7217716535433071
21
0.3773622047244095
0
LINE
8
BLACK
6
CONTINUOUS
10
0.7217716535433071
20
0.3773622047244095
11
0.7225208661417323
21
0.381128779527559
0
LINE
8
BLACK
6
CONTINUOUS
10
0.7225208661417323
20
0.381128779527559
11
0.7246544488188976
21
0.3843219291338583
0
LINE
8
BLACK
6
CONTINUOUS
10
0.7246544488188976
20
0.3843219291338583
11
0.7278475984251969
21
0.3864555118110236
0
LINE
8
BLACK
6
CONTINUOUS
10
0.7278475984251969
20
0.3864555118110236
11
0.7316141732283464
21
0.3872047244094488
0
LINE
8
BLACK
6
CONTINUOUS
10
0.7316141732283464
20
0.3872047244094488
11
0.8320078740157481
21
0.3872047244094488
0
LINE
8
BLACK
6
CONTINUOUS
10
0.8320078740157481
20
0.3872047244094488
11
0.8357744488188976
21
0.3864555118110236
0
LINE
8
BLACK
6
CONTINUOUS
10
0.9676642125984252
20
0.3864555118110236
11
0.9708573622047244
21
0.3843219291338583
0
LINE
8
BLACK
6
CONTINUOUS
10
0.9708573622047244
20
0.3843219291338583
11
0.9729909448818898
21
0.381128779527559
0
LINE
8
BLACK
6
CONTINUOUS
10
0.9729909448818898
20
0.381128779527559
11
0.9737401574803149
21
0.3773622047244095
0
LINE
8
BLACK
6
CONTINUOUS
10
0.9737401574803149
20
0.3773622047244095
11
0.9737401574803149
21
0.2887795275590551
0
LINE
8
BLACK
6
CONTINUOUS
10
0.9737401574803149
20
0.2887795275590551
11
0.9729909448818898
21
0.2850129527559055
0
LINE
8
BLACK
6
CONTINUOUS
10
0.9729909448818898
20
0.2850129527559055
11
0.9708573622047244
21
0.2818198031496063
0
LINE
8
BLACK
6
CONTINUOUS
10
0.9708573622047244
20
0.2818198031496063
11
0.9676642125984252
21
0.279686220472441
0
LINE
8
BLACK
6
CONTINUOUS
10
0.9676642125984252
20
0.279686220472441
11
0.9638976377952756
21
0.2789370078740158
0
LINE
8
BLACK
6
CONTINUOUS
10
0.9638976377952756
20
0.2789370078740158
11
0.863503937007874
21
0.2789370078740158
0
LINE
8
BLACK
6
CONTINUOUS
10
0.863503937007874
20
0.2789370078740158
11
0.8597373622047244
21
0.279686220472441
0
LINE
8
BLACK
6
CONTINUOUS
10
0.8597373622047244
20
0.279686220472441
11
0.8565442125984252
21
0.2818198031496063
0
LINE
8
BLACK
6
CONTINUOUS
10
0.8565442125984252
20
0.2818198031496063
11
0.8544106299212598
21
0.2850129527559055
0
LINE
8
BLACK
6
CONTINUOUS
10
0.8544106299212598
20
0.2850129527559055
11
0.8536614173228346
21
0.2887795275590551
0
LINE
8
BLACK
6
CONTINUOUS
10
0.8536614173228346
20
0.2887795275590551
11
0.8536614173228346
21
0.3773622047244095
0
LINE
8
BLACK
6
CONTINUOUS
10
0.8536614173228346
20
0.3773622047244095
11
0.8544106299212598
21
0.381128779527559
0
LINE
8
BLACK
6
CONTINUOUS
10
0.8544106299212598
20
0.381128779527559
11
0.8565442125984252
21
0.3843219291338583
0
LINE
8
BLACK
6
CONTINUOUS
10
0.8565442125984252
20
0.3843219291338583
11
0.8597373622047244
21
0.3864555118110236
0
LINE
8
BLACK
6
CONTINUOUS
10
0.8597373622047244
20
0.3864555118110236
11
0.863503937007874
21
0.3872047244094488
0
LINE
8
BLACK
6
CONTINUOUS
10
0.863503937007874
20
0.3872047244094488
11
0.9638976377952756
21
0.3872047244094488
0
LINE
8
BLACK
6
CONTINUOUS
10
0.9638976377952756
20
0.3872047244094488
11
0.9676642125984252
21
0.3864555118110236
0
LINE
8
BLACK
6
CONTINUOUS
10
2.0120736614173227
20
0.3873216535433071
11
2.015266811023622
21
0.3851880708661417
0
LINE
8
BLACK
6
CONTINUOUS
10
2.015266811023622
20
0.3851880708661417
11
2.0174003937007874
21
0.3819949212598425
0
LINE
8
BLACK
6
CONTINUOUS
10
2.0174003937007874
20
0.3819949212598425
11
2.0181496062992124
21
0.3782283464566929
0
LINE
8
BLACK
6
CONTINUOUS
10
2.0181496062992124
20
0.3782283464566929
11
2.0181496062992124
21
0.2896456692913386
0
LINE
8
BLACK
6
CONTINUOUS
10
2.0181496062992124
20
0.2896456692913386
11
2.0174003937007874
21
0.285879094488189
0
LINE
8
BLACK
6
CONTINUOUS
10
2.0174003937007874
20
0.285879094488189
11
2.015266811023622
21
0.2826859448818898
0
LINE
8
BLACK
6
CONTINUOUS
10
2.015266811023622
20
0.2826859448818898
11
2.0120736614173227
21
0.2805523622047244
0
LINE
8
BLACK
6
CONTINUOUS
10
2.0120736614173227
20
0.2805523622047244
11
2.008307086614173
21
0.2798031496062992
0
LINE
8
BLACK
6
CONTINUOUS
10
2.008307086614173
20
0.2798031496062992
11
1.9079133858267716
21
0.2798031496062992
0
LINE
8
BLACK
6
CONTINUOUS
10
1.9079133858267716
20
0.2798031496062992
11
1.9041468110236219
21
0.2805523622047244
0
LINE
8
BLACK
6
CONTINUOUS
10
1.9041468110236219
20
0.2805523622047244
11
1.9009536614173228
21
0.2826859448818898
0
LINE
8
BLACK
6
CONTINUOUS
10
1.9009536614173228
20
0.2826859448818898
11
1.8988200787401575
21
0.285879094488189
0
LINE
8
BLACK
6
CONTINUOUS
10
1.8988200787401575
20
0.285879094488189
11
1.8980708661417323
21
0.2896456692913386
0
LINE
8
BLACK
6
CONTINUOUS
10
1.8980708661417323
20
0.2896456692913386
11
1.8980708661417323
21
0.3782283464566929
0
LINE
8
BLACK
6
CONTINUOUS
10
1.8980708661417323
20
0.3782283464566929
11
1.8988200787401575
21
0.3819949212598425
0
LINE
8
BLACK
6
CONTINUOUS
10
1.8988200787401575
20
0.3819949212598425
11
1.9009536614173228
21
0.3851880708661417
0
LINE
8
BLACK
6
CONTINUOUS
10
1.9009536614173228
20
0.3851880708661417
11
1.9041468110236219
21
0.3873216535433071
0
LINE
8
BLACK
6
CONTINUOUS
10
1.9041468110236219
20
0.3873216535433071
11
1.9079133858267716
21
0.3880708661417323
0
LINE
8
BLACK
6
CONTINUOUS
10
1.9079133858267716
20
0.3880708661417323
11
2.008307086614173
21
0.3880708661417323
0
LINE
8
BLACK
6
CONTINUOUS
10
2.008307086614173
20
0.3880708661417323
11
2.0120736614173227
21
0.3873216535433071
0
LINE
8
BLACK
6
CONTINUOUS
10
2.1439634251968505
20
0.3873216535433071
11
2.1471565748031494
21
0.3851880708661417
0
LINE
8
BLACK
6
CONTINUOUS
10
2.1471565748031494
20
0.3851880708661417
11
2.1492901574803147
21
0.3819949212598425
0
LINE
8
BLACK
6
CONTINUOUS
10
2.1492901574803147
20
0.3819949212598425
11
2.1500393700787401
21
0.3782283464566929
0
LINE
8
BLACK
6
CONTINUOUS
10
2.1500393700787401
20
0.3782283464566929
11
2.1500393700787401
21
0.2896456692913386
0
LINE
8
BLACK
6
CONTINUOUS
10
2.1500393700787401
20
0.2896456692913386
11
2.1492901574803147
21
0.285879094488189
0
LINE
8
BLACK
6
CONTINUOUS
10
2.1492901574803147
20
0.285879094488189
11
2.1471565748031494
21
0.2826859448818898
0
LINE
8
BLACK
6
CONTINUOUS
10
2.1471565748031494
20
0.2826859448818898
11
2.1439634251968505
21
0.2805523622047244
0
LINE
8
BLACK
6
CONTINUOUS
10
2.1439634251968505
20
0.2805523622047244
11
2.1401968503937008
21
0.2798031496062992
0
LINE
8
BLACK
6
CONTINUOUS
10
2.1401968503937008
20
0.2798031496062992
11
2.0398031496062994
21
0.2798031496062992
0
LINE
8
BLACK
6
CONTINUOUS
10
2.0398031496062994
20
0.2798031496062992
11
2.0360365748031497
21
0.2805523622047244
0
LINE
8
BLACK
6
CONTINUOUS
10
2.0360365748031497
20
0.2805523622047244
11
2.0328434251968504
21
0.2826859448818898
0
LINE
8
BLACK
6
CONTINUOUS
10
2.0328434251968504
20
0.2826859448818898
11
2.030709842519685
21
0.285879094488189
0
LINE
8
BLACK
6
CONTINUOUS
10
2.030709842519685
20
0.285879094488189
11
2.0299606299212596
21
0.2896456692913386
0
LINE
8
BLACK
6
CONTINUOUS
10
2.0299606299212596
20
0.2896456692913386
11
2.0299606299212596
21
0.3782283464566929
0
LINE
8
BLACK
6
CONTINUOUS
10
2.0299606299212596
20
0.3782283464566929
11
2.030709842519685
21
0.3819949212598425
0
LINE
8
BLACK
6
CONTINUOUS
10
2.030709842519685
20
0.3819949212598425
11
2.0328434251968504
21
0.3851880708661417
0
LINE
8
BLACK
6
CONTINUOUS
10
2.0328434251968504
20
0.3851880708661417
11
2.0360365748031497
21
0.3873216535433071
0
LINE
8
BLACK
6
CONTINUOUS
10
2.0360365748031497
20
0.3873216535433071
11
2.0398031496062994
21
0.3880708661417323
0
LINE
8
BLACK
6
CONTINUOUS
10
2.0398031496062994
20
0.3880708661417323
11
2.1401968503937008
21
0.3880708661417323
0
LINE
8
BLACK
6
CONTINUOUS
10
2.1401968503937008
20
0.3880708661417323
11
2.1439634251968505
21
0.3873216535433071
0
LINE
8
BLACK
6
CONTINUOUS
10
3.1820736614173226
20
0.3873216535433071
11
3.185266811023622
21
0.3851880708661417
0
LINE
8
BLACK
6
CONTINUOUS
10
3.185266811023622
20
0.3851880708661417
11
3.1874003937007873
21
0.3819949212598425
0
LINE
8
BLACK
6
CONTINUOUS
10
3.1874003937007873
20
0.3819949212598425
11
3.1881496062992127
21
0.3782283464566929
0
LINE
8
BLACK
6
CONTINUOUS
10
3.1881496062992127
20
0.3782283464566929
11
3.1881496062992127
21
0.2896456692913386
0
LINE
8
BLACK
6
CONTINUOUS
10
3.1881496062992127
20
0.2896456692913386
11
3.1874003937007873
21
0.285879094488189
0
LINE
8
BLACK
6
CONTINUOUS
10
3.1874003937007873
20
0.285879094488189
11
3.185266811023622
21
0.2826859448818898
0
LINE
8
BLACK
6
CONTINUOUS
10
3.185266811023622
20
0.2826859448818898
11
3.1820736614173226
21
0.2805523622047244
0
LINE
8
BLACK
6
CONTINUOUS
10
3.1820736614173226
20
0.2805523622047244
11
3.1783070866141729
21
0.2798031496062992
0
LINE
8
BLACK
6
CONTINUOUS
10
3.1783070866141729
20
0.2798031496062992
11
3.0779133858267715
21
0.2798031496062992
0
LINE
8
BLACK
6
CONTINUOUS
10
3.0779133858267715
20
0.2798031496062992
11
3.0741468110236219
21
0.2805523622047244
0
LINE
8
BLACK
6
CONTINUOUS
10
3.0741468110236219
20
0.2805523622047244
11
3.070953661417323
21
0.2826859448818898
0
LINE
8
BLACK
6
CONTINUOUS
10
3.070953661417323
20
0.2826859448818898
11
3.0688200787401576
21
0.285879094488189
0
LINE
8
BLACK
6
CONTINUOUS
10
3.0688200787401576
20
0.285879094488189
11
3.0680708661417322
21
0.2896456692913386
0
LINE
8
BLACK
6
CONTINUOUS
10
3.0680708661417322
20
0.2896456692913386
11
3.0680708661417322
21
0.3782283464566929
0
LINE
8
BLACK
6
CONTINUOUS
10
3.0680708661417322
20
0.3782283464566929
11
3.0688200787401576
21
0.3819949212598425
0
LINE
8
BLACK
6
CONTINUOUS
10
3.0688200787401576
20
0.3819949212598425
11
3.070953661417323
21
0.3851880708661417
0
LINE
8
BLACK
6
CONTINUOUS
10
3.070953661417323
20
0.3851880708661417
11
3.0741468110236219
21
0.3873216535433071
0
LINE
8
BLACK
6
CONTINUOUS
10
3.0741468110236219
20
0.3873216535433071
11
3.0779133858267715
21
0.3880708661417323
0
LINE
8
BLACK
6
CONTINUOUS
10
3.0779133858267715
20
0.3880708661417323
11
3.1783070866141729
21
0.3880708661417323
0
LINE
8
BLACK
6
CONTINUOUS
10
3.1783070866141729
20
0.3880708661417323
11
3.1820736614173226
21
0.3873216535433071
0
LINE
8
BLACK
6
CONTINUOUS
10
3.3139634251968504
20
0.3873216535433071
11
3.3171565748031497
21
0.3851880708661417
0
LINE
8
BLACK
6
CONTINUOUS
10
3.3171565748031497
20
0.3851880708661417
11
3.3192901574803151
21
0.3819949212598425
0
LINE
8
BLACK
6
CONTINUOUS
10
3.3192901574803151
20
0.3819949212598425
11
3.3200393700787401
21
0.3782283464566929
0
LINE
8
BLACK
6
CONTINUOUS
10
3.3200393700787401
20
0.3782283464566929
11
3.3200393700787401
21
0.2896456692913386
0
LINE
8
BLACK
6
CONTINUOUS
10
3.3200393700787401
20
0.2896456692913386
11
3.3192901574803151
21
0.285879094488189
0
LINE
8
BLACK
6
CONTINUOUS
10
3.3192901574803151
20
0.285879094488189
11
3.3171565748031497
21
0.2826859448818898
0
LINE
8
BLACK
6
CONTINUOUS
10
3.3171565748031497
20
0.2826859448818898
11
3.3139634251968504
21
0.2805523622047244
0
LINE
8
BLACK
6
CONTINUOUS
10
3.3139634251968504
20
0.2805523622047244
11
3.3101968503937007
21
0.2798031496062992
0
LINE
8
BLACK
6
CONTINUOUS
10
3.3101968503937007
20
0.2798031496062992
11
3.2098031496062993
21
0.2798031496062992
0
LINE
8
BLACK
6
CONTINUOUS
10
3.2098031496062993
20
0.2798031496062992
11
3.2060365748031496
21
0.2805523622047244
0
LINE
8
BLACK
6
CONTINUOUS
10
3.2060365748031496
20
0.2805523622047244
11
3.2028434251968503
21
0.2826859448818898
0
LINE
8
BLACK
6
CONTINUOUS
10
3.2028434251968503
20
0.2826859448818898
11
3.2007098425196849
21
0.285879094488189
0
LINE
8
BLACK
6
CONTINUOUS
10
3.2007098425196849
20
0.285879094488189
11
3.19996062992126
21
0.2896456692913386
0
LINE
8
BLACK
6
CONTINUOUS
10
3.19996062992126
20
0.2896456692913386
11
3.19996062992126
21
0.3782283464566929
0
LINE
8
BLACK
6
CONTINUOUS
10
3.19996062992126
20
0.3782283464566929
11
3.2007098425196849
21
0.3819949212598425
0
LINE
8
BLACK
6
CONTINUOUS
10
3.2007098425196849
20
0.3819949212598425
11
3.2028434251968503
21
0.3851880708661417
0
LINE
8
BLACK
6
CONTINUOUS
10
3.2028434251968503
20
0.3851880708661417
11
3.2060365748031496
21
0.3873216535433071
0
LINE
8
BLACK
6
CONTINUOUS
10
3.2060365748031496
20
0.3873216535433071
11
3.2098031496062993
21
0.3880708661417323
0
LINE
8
BLACK
6
CONTINUOUS
10
3.2098031496062993
20
0.3880708661417323
11
3.3101968503937007
21
0.3880708661417323
0
LINE
8
BLACK
6
CONTINUOUS
10
3.3101968503937007
20
0.3880708661417323
11
3.3139634251968504
21
0.3873216535433071
0
LINE
8
BLACK
6
CONTINUOUS
10
0.3397114566929134
20
0.3941326771653543
11
0.3429046062992126
21
0.391999094488189
0
LINE
8
BLACK
6
CONTINUOUS
10
0.3429046062992126
20
0.391999094488189
11
0.3450381889763779
21
0.3888059448818897
0
LINE
8
BLACK
6
CONTINUOUS
10
0.3450381889763779
20
0.3888059448818897
11
0.3457874015748031
21
0.3850393700787402
0
LINE
8
BLACK
6
CONTINUOUS
10
0.3457874015748031
20
0.3850393700787402
11
0.3457874015748031
21
0.3358267716535433
0
LINE
8
BLACK
6
CONTINUOUS
10
0.3457874015748031
20
0.3358267716535433
11
0.3450381889763779
21
0.3320601968503937
0
LINE
8
BLACK
6
CONTINUOUS
10
0.3450381889763779
20
0.3320601968503937
11
0.3429046062992126
21
0.3288670472440945
0
LINE
8
BLACK
6
CONTINUOUS
10
0.3429046062992126
20
0.3288670472440945
11
0.3397114566929134
21
0.3267334645669291
0
LINE
8
BLACK
6
CONTINUOUS
10
0.3397114566929134
20
0.3267334645669291
11
0.3359448818897638
21
0.3259842519685039
0
LINE
8
BLACK
6
CONTINUOUS
10
0.3359448818897638
20
0.3259842519685039
11
0.3044488188976378
21
0.3259842519685039
0
LINE
8
BLACK
6
CONTINUOUS
10
0.3044488188976378
20
0.3259842519685039
11
0.3006822440944882
21
0.3267334645669291
0
LINE
8
BLACK
6
CONTINUOUS
10
0.3006822440944882
20
0.3267334645669291
11
0.2974890944881889
21
0.3288670472440945
0
LINE
8
BLACK
6
CONTINUOUS
10
0.2974890944881889
20
0.3288670472440945
11
0.2953555118110236
21
0.3320601968503937
0
LINE
8
BLACK
6
CONTINUOUS
10
0.2953555118110236
20
0.3320601968503937
11
0.2946062992125984
21
0.3358267716535433
0
LINE
8
BLACK
6
CONTINUOUS
10
0.2946062992125984
20
0.3358267716535433
11
0.2946062992125984
21
0.3850393700787402
0
LINE
8
BLACK
6
CONTINUOUS
10
0.2946062992125984
20
0.3850393700787402
11
0.2953555118110236
21
0.3888059448818897
0
LINE
8
BLACK
6
CONTINUOUS
10
0.2953555118110236
20
0.3888059448818897
11
0.2974890944881889
21
0.391999094488189
0
LINE
8
BLACK
6
CONTINUOUS
10
0.2974890944881889
20
0.391999094488189
11
0.3006822440944882
21
0.3941326771653543
0
LINE
8
BLACK
6
CONTINUOUS
10
0.3006822440944882
20
0.3941326771653543
11
0.3044488188976378
21
0.3948818897637795
0
LINE
8
BLACK
6
CONTINUOUS
10
0.3044488188976378
20
0.3948818897637795
11
0.3359448818897638
21
0.3948818897637795
0
LINE
8
BLACK
6
CONTINUOUS
10
0.3359448818897638
20
0.3948818897637795
11
0.3397114566929134
21
0.3941326771653543
0
LINE
8
BLACK
6
CONTINUOUS
10
0.4617587007874016
20
0.3941326771653543
11
0.4649518503937008
21
0.391999094488189
0
LINE
8
BLACK
6
CONTINUOUS
10
0.4649518503937008
20
0.391999094488189
11
0.4670854330708661
21
0.3888059448818897
0
LINE
8
BLACK
6
CONTINUOUS
10
0.4670854330708661
20
0.3888059448818897
11
0.4678346456692913
21
0.3850393700787402
0
LINE
8
BLACK
6
CONTINUOUS
10
0.4678346456692913
20
0.3850393700787402
11
0.4678346456692913
21
0.3358267716535433
0
LINE
8
BLACK
6
CONTINUOUS
10
0.4678346456692913
20
0.3358267716535433
11
0.4670854330708661
21
0.3320601968503937
0
LINE
8
BLACK
6
CONTINUOUS
10
0.4670854330708661
20
0.3320601968503937
11
0.4649518503937008
21
0.3288670472440945
0
LINE
8
BLACK
6
CONTINUOUS
10
0.4649518503937008
20
0.3288670472440945
11
0.4617587007874016
21
0.3267334645669291
0
LINE
8
BLACK
6
CONTINUOUS
10
0.4617587007874016
20
0.3267334645669291
11
0.457992125984252
21
0.3259842519685039
0
LINE
8
BLACK
6
CONTINUOUS
10
0.457992125984252
20
0.3259842519685039
11
0.426496062992126
21
0.3259842519685039
0
LINE
8
BLACK
6
CONTINUOUS
10
0.426496062992126
20
0.3259842519685039
11
0.4227294881889764
21
0.3267334645669291
0
LINE
8
BLACK
6
CONTINUOUS
10
0.4227294881889764
20
0.3267334645669291
11
0.4195363385826771
21
0.3288670472440945
0
LINE
8
BLACK
6
CONTINUOUS
10
0.4195363385826771
20
0.3288670472440945
11
0.4174027559055118
21
0.3320601968503937
0
LINE
8
BLACK
6
CONTINUOUS
10
0.4174027559055118
20
0.3320601968503937
11
0.4166535433070866
21
0.3358267716535433
0
LINE
8
BLACK
6
CONTINUOUS
10
0.4166535433070866
20
0.3358267716535433
11
0.4166535433070866
21
0.3850393700787402
0
LINE
8
BLACK
6
CONTINUOUS
10
0.4166535433070866
20
0.3850393700787402
11
0.4174027559055118
21
0.3888059448818897
0
LINE
8
BLACK
6
CONTINUOUS
10
0.4174027559055118
20
0.3888059448818897
11
0.4195363385826771
21
0.391999094488189
0
LINE
8
BLACK
6
CONTINUOUS
10
0.4195363385826771
20
0.391999094488189
11
0.4227294881889764
21
0.3941326771653543
0
LINE
8
BLACK
6
CONTINUOUS
10
0.4227294881889764
20
0.3941326771653543
11
0.426496062992126
21
0.3948818897637795
0
LINE
8
BLACK
6
CONTINUOUS
10
0.426496062992126
20
0.3948818897637795
11
0.457992125984252
21
0.3948818897637795
0
LINE
8
BLACK
6
CONTINUOUS
10
0.457992125984252
20
0.3948818897637795
11
0.4617587007874016
21
0.3941326771653543
0
LINE
8
BLACK
6
CONTINUOUS
10
1.5160106692913387
20
0.3949988188976378
11
1.5192038188976378
21
0.3928652362204724
0
LINE
8
BLACK
6
CONTINUOUS
10
1.5192038188976378
20
0.3928652362204724
11
1.5213374015748031
21
0.3896720866141732
0
LINE
8
BLACK
6
CONTINUOUS
10
1.5213374015748031
20
0.3896720866141732
11
1.5220866141732283
21
0.3859055118110236
0
LINE
8
BLACK
6
CONTINUOUS
10
1.5220866141732283
20
0.3859055118110236
11
1.5220866141732283
21
0.3366929133858267
0
LINE
8
BLACK
6
CONTINUOUS
10
1.5220866141732283
20
0.3366929133858267
11
1.5213374015748031
21
0.3329263385826772
0
LINE
8
BLACK
6
CONTINUOUS
10
1.5213374015748031
20
0.3329263385826772
11
1.5192038188976378
21
0.3297331889763779
0
LINE
8
BLACK
6
CONTINUOUS
10
1.5192038188976378
20
0.3297331889763779
11
1.5160106692913387
21
0.3275996062992126
0
LINE
8
BLACK
6
CONTINUOUS
10
1.5160106692913387
20
0.3275996062992126
11
1.512244094488189
21
0.3268503937007874
0
LINE
8
BLACK
6
CONTINUOUS
10
1.512244094488189
20
0.3268503937007874
11
1.480748031496063
21
0.3268503937007874
0
LINE
8
BLACK
6
CONTINUOUS
10
1.480748031496063
20
0.3268503937007874
11
1.4769814566929134
21
0.3275996062992126
0
LINE
8
BLACK
6
CONTINUOUS
10
1.4769814566929134
20
0.3275996062992126
11
1.4737883070866142
21
0.3297331889763779
0
LINE
8
BLACK
6
CONTINUOUS
10
1.4737883070866142
20
0.3297331889763779
11
1.4716547244094489
21
0.3329263385826772
0
LINE
8
BLACK
6
CONTINUOUS
10
1.4716547244094489
20
0.3329263385826772
11
1.4709055118110237
21
0.3366929133858267
0
LINE
8
BLACK
6
CONTINUOUS
10
1.4709055118110237
20
0.3366929133858267
11
1.4709055118110237
21
0.3859055118110236
0
LINE
8
BLACK
6
CONTINUOUS
10
1.4709055118110237
20
0.3859055118110236
11
1.4716547244094489
21
0.3896720866141732
0
LINE
8
BLACK
6
CONTINUOUS
10
1.4716547244094489
20
0.3896720866141732
11
1.4737883070866142
21
0.3928652362204724
0
LINE
8
BLACK
6
CONTINUOUS
10
1.4737883070866142
20
0.3928652362204724
11
1.4769814566929134
21
0.3949988188976378
0
LINE
8
BLACK
6
CONTINUOUS
10
1.4769814566929134
20
0.3949988188976378
11
1.480748031496063
21
0.395748031496063
0
LINE
8
BLACK
6
CONTINUOUS
10
1.480748031496063
20
0.395748031496063
11
1.512244094488189
21
0.395748031496063
0
LINE
8
BLACK
6
CONTINUOUS
10
1.512244094488189
20
0.395748031496063
11
1.5160106692913387
21
0.3949988188976378
0
LINE
8
BLACK
6
CONTINUOUS
10
1.6380579133858266
20
0.3949988188976378
11
1.641251062992126
21
0.3928652362204724
0
LINE
8
BLACK
6
CONTINUOUS
10
1.641251062992126
20
0.3928652362204724
11
1.6433846456692913
21
0.3896720866141732
0
LINE
8
BLACK
6
CONTINUOUS
10
1.6433846456692913
20
0.3896720866141732
11
1.6441338582677165
21
0.3859055118110236
0
LINE
8
BLACK
6
CONTINUOUS
10
1.6441338582677165
20
0.3859055118110236
11
1.6441338582677165
21
0.3366929133858267
0
LINE
8
BLACK
6
CONTINUOUS
10
1.6441338582677165
20
0.3366929133858267
11
1.6433846456692913
21
0.3329263385826772
0
LINE
8
BLACK
6
CONTINUOUS
10
1.6433846456692913
20
0.3329263385826772
11
1.641251062992126
21
0.3297331889763779
0
LINE
8
BLACK
6
CONTINUOUS
10
1.641251062992126
20
0.3297331889763779
11
1.6380579133858266
21
0.3275996062992126
0
LINE
8
BLACK
6
CONTINUOUS
10
1.6380579133858266
20
0.3275996062992126
11
1.6342913385826772
21
0.3268503937007874
0
LINE
8
BLACK
6
CONTINUOUS
10
1.6342913385826772
20
0.3268503937007874
11
1.6027952755905512
21
0.3268503937007874
0
LINE
8
BLACK
6
CONTINUOUS
10
1.6027952755905512
20
0.3268503937007874
11
1.5990287007874016
21
0.3275996062992126
0
LINE
8
BLACK
6
CONTINUOUS
10
1.5990287007874016
20
0.3275996062992126
11
1.5958355511811024
21
0.3297331889763779
0
LINE
8
BLACK
6
CONTINUOUS
10
1.5958355511811024
20
0.3297331889763779
11
1.5937019685039369
21
0.3329263385826772
0
LINE
8
BLACK
6
CONTINUOUS
10
1.5937019685039369
20
0.3329263385826772
11
1.5929527559055119
21
0.3366929133858267
0
LINE
8
BLACK
6
CONTINUOUS
10
1.5929527559055119
20
0.3366929133858267
11
1.5929527559055119
21
0.3859055118110236
0
LINE
8
BLACK
6
CONTINUOUS
10
1.5929527559055119
20
0.3859055118110236
11
1.5937019685039369
21
0.3896720866141732
0
LINE
8
BLACK
6
CONTINUOUS
10
1.5937019685039369
20
0.3896720866141732
11
1.5958355511811024
21
0.3928652362204724
0
LINE
8
BLACK
6
CONTINUOUS
10
1.5958355511811024
20
0.3928652362204724
11
1.5990287007874016
21
0.3949988188976378
0
LINE
8
BLACK
6
CONTINUOUS
10
1.5990287007874016
20
0.3949988188976378
11
1.6027952755905512
21
0.395748031496063
0
LINE
8
BLACK
6
CONTINUOUS
10
1.6027952755905512
20
0.395748031496063
11
1.6342913385826772
21
0.395748031496063
0
LINE
8
BLACK
6
CONTINUOUS
10
1.6342913385826772
20
0.395748031496063
11
1.6380579133858266
21
0.3949988188976378
0
LINE
8
BLACK
6
CONTINUOUS
10
2.6860106692913384
20
0.3949988188976378
11
2.6892038188976377
21
0.3928652362204724
0
LINE
8
BLACK
6
CONTINUOUS
10
2.6892038188976377
20
0.3928652362204724
11
2.6913374015748031
21
0.3896720866141732
0
LINE
8
BLACK
6
CONTINUOUS
10
2.6913374015748031
20
0.3896720866141732
11
2.6920866141732285
21
0.3859055118110236
0
LINE
8
BLACK
6
CONTINUOUS
10
2.6920866141732285
20
0.3859055118110236
11
2.6920866141732285
21
0.3366929133858267
0
LINE
8
BLACK
6
CONTINUOUS
10
2.6920866141732285
20
0.3366929133858267
11
2.6913374015748031
21
0.3329263385826772
0
LINE
8
BLACK
6
CONTINUOUS
10
2.6913374015748031
20
0.3329263385826772
11
2.6892038188976377
21
0.3297331889763779
0
LINE
8
BLACK
6
CONTINUOUS
10
2.6892038188976377
20
0.3297331889763779
11
2.6860106692913384
21
0.3275996062992126
0
LINE
8
BLACK
6
CONTINUOUS
10
2.6860106692913384
20
0.3275996062992126
11
2.6822440944881891
21
0.3268503937007874
0
LINE
8
BLACK
6
CONTINUOUS
10
2.6822440944881891
20
0.3268503937007874
11
2.6507480314960628
21
0.3268503937007874
0
LINE
8
BLACK
6
CONTINUOUS
10
2.6507480314960628
20
0.3268503937007874
11
2.6469814566929135
21
0.3275996062992126
0
LINE
8
BLACK
6
CONTINUOUS
10
2.6469814566929135
20
0.3275996062992126
11
2.6437883070866142
21
0.3297331889763779
0
LINE
8
BLACK
6
CONTINUOUS
10
2.6437883070866142
20
0.3297331889763779
11
2.6416547244094488
21
0.3329263385826772
0
LINE
8
BLACK
6
CONTINUOUS
10
2.6416547244094488
20
0.3329263385826772
11
2.6409055118110234
21
0.3366929133858267
0
LINE
8
BLACK
6
CONTINUOUS
10
2.6409055118110234
20
0.3366929133858267
11
2.6409055118110234
21
0.3859055118110236
0
LINE
8
BLACK
6
CONTINUOUS
10
2.6409055118110234
20
0.3859055118110236
11
2.6416547244094488
21
0.3896720866141732
0
LINE
8
BLACK
6
CONTINUOUS
10
2.6416547244094488
20
0.3896720866141732
11
2.6437883070866142
21
0.3928652362204724
0
LINE
8
BLACK
6
CONTINUOUS
10
2.6437883070866142
20
0.3928652362204724
11
2.6469814566929135
21
0.3949988188976378
0
LINE
8
BLACK
6
CONTINUOUS
10
2.6469814566929135
20
0.3949988188976378
11
2.6507480314960628
21
0.395748031496063
0
LINE
8
BLACK
6
CONTINUOUS
10
2.6507480314960628
20
0.395748031496063
11
2.6822440944881891
21
0.395748031496063
0
LINE
8
BLACK
6
CONTINUOUS
10
2.6822440944881891
20
0.395748031496063
11
2.6860106692913384
21
0.3949988188976378
0
LINE
8
BLACK
6
CONTINUOUS
10
2.8080579133858268
20
0.3949988188976378
11
2.8112510629921261
21
0.3928652362204724
0
LINE
8
BLACK
6
CONTINUOUS
10
2.8112510629921261
20
0.3928652362204724
11
2.8133846456692915
21
0.3896720866141732
0
LINE
8
BLACK
6
CONTINUOUS
10
2.8133846456692915
20
0.3896720866141732
11
2.8141338582677164
21
0.3859055118110236
0
LINE
8
BLACK
6
CONTINUOUS
10
2.8141338582677164
20
0.3859055118110236
11
2.8141338582677164
21
0.3366929133858267
0
LINE
8
BLACK
6
CONTINUOUS
10
2.8141338582677164
20
0.3366929133858267
11
2.8133846456692915
21
0.3329263385826772
0
LINE
8
BLACK
6
CONTINUOUS
10
2.8133846456692915
20
0.3329263385826772
11
2.8112510629921261
21
0.3297331889763779
0
LINE
8
BLACK
6
CONTINUOUS
10
2.8112510629921261
20
0.3297331889763779
11
2.8080579133858268
21
0.3275996062992126
0
LINE
8
BLACK
6
CONTINUOUS
10
2.8080579133858268
20
0.3275996062992126
11
2.8042913385826771
21
0.3268503937007874
0
LINE
8
BLACK
6
CONTINUOUS
10
2.8042913385826771
20
0.3268503937007874
11
2.7727952755905512
21
0.3268503937007874
0
LINE
8
BLACK
6
CONTINUOUS
10
2.7727952755905512
20
0.3268503937007874
11
2.7690287007874015
21
0.3275996062992126
0
LINE
8
BLACK
6
CONTINUOUS
10
2.7690287007874015
20
0.3275996062992126
11
2.7658355511811021
21
0.3297331889763779
0
LINE
8
BLACK
6
CONTINUOUS
10
2.7658355511811021
20
0.3297331889763779
11
2.7637019685039368
21
0.3329263385826772
0
LINE
8
BLACK
6
CONTINUOUS
10
2.7637019685039368
20
0.3329263385826772
11
2.7629527559055118
21
0.3366929133858267
0
LINE
8
BLACK
6
CONTINUOUS
10
2.7629527559055118
20
0.3366929133858267
11
2.7629527559055118
21
0.3859055118110236
0
LINE
8
BLACK
6
CONTINUOUS
10
2.7629527559055118
20
0.3859055118110236
11
2.7637019685039368
21
0.3896720866141732
0
LINE
8
BLACK
6
CONTINUOUS
10
2.7637019685039368
20
0.3896720866141732
11
2.7658355511811021
21
0.3928652362204724
0
LINE
8
BLACK
6
CONTINUOUS
10
2.7658355511811021
20
0.3928652362204724
11
2.7690287007874015
21
0.3949988188976378
0
LINE
8
BLACK
6
CONTINUOUS
10
2.7690287007874015
20
0.3949988188976378
11
2.7727952755905512
21
0.395748031496063
0
LINE
8
BLACK
6
CONTINUOUS
10
2.7727952755905512
20
0.395748031496063
11
2.8042913385826771
21
0.395748031496063
0
LINE
8
BLACK
6
CONTINUOUS
10
2.8042913385826771
20
0.395748031496063
11
2.8080579133858268
21
0.3949988188976378
0
LINE
8
BLACK
6
CONTINUOUS
10
0.6369555511811024
20
0.3856681102362204
11
0.6401487007874016
21
0.3835345275590551
0
LINE
8
BLACK
6
CONTINUOUS
10
0.6401487007874016
20
0.3835345275590551
11
0.6422822834645669
21
0.3803413779527559
0
LINE
8
BLACK
6
CONTINUOUS
10
0.6422822834645669
20
0.3803413779527559
11
0.6430314960629921
21
0.3765748031496063
0
LINE
8
BLACK
6
CONTINUOUS
10
0.6430314960629921
20
0.3765748031496063
11
0.6430314960629921
21
0.349015748031496
0
LINE
8
BLACK
6
CONTINUOUS
10
0.6430314960629921
20
0.349015748031496
11
0.6422822834645669
21
0.3452491732283465
0
LINE
8
BLACK
6
CONTINUOUS
10
0.6422822834645669
20
0.3452491732283465
11
0.6401487007874016
21
0.3420560236220472
0
LINE
8
BLACK
6
CONTINUOUS
10
0.6401487007874016
20
0.3420560236220472
11
0.6369555511811024
21
0.3399224409448819
0
LINE
8
BLACK
6
CONTINUOUS
10
0.6369555511811024
20
0.3399224409448819
11
0.6331889763779528
21
0.3391732283464567
0
LINE
8
BLACK
6
CONTINUOUS
10
0.6331889763779528
20
0.3391732283464567
11
0.566259842519685
21
0.3391732283464567
0
LINE
8
BLACK
6
CONTINUOUS
10
0.566259842519685
20
0.3391732283464567
11
0.5624932677165354
21
0.3399224409448819
0
LINE
8
BLACK
6
CONTINUOUS
10
0.5624932677165354
20
0.3399224409448819
11
0.5593001181102362
21
0.3420560236220472
0
LINE
8
BLACK
6
CONTINUOUS
10
0.5593001181102362
20
0.3420560236220472
11
0.5571665354330708
21
0.3452491732283465
0
LINE
8
BLACK
6
CONTINUOUS
10
0.5571665354330708
20
0.3452491732283465
11
0.5564173228346456
21
0.349015748031496
0
LINE
8
BLACK
6
CONTINUOUS
10
0.5564173228346456
20
0.349015748031496
11
0.5564173228346456
21
0.3765748031496063
0
LINE
8
BLACK
6
CONTINUOUS
10
0.5564173228346456
20
0.3765748031496063
11
0.5571665354330708
21
0.3803413779527559
0
LINE
8
BLACK
6
CONTINUOUS
10
0.5571665354330708
20
0.3803413779527559
11
0.5593001181102362
21
0.3835345275590551
0
LINE
8
BLACK
6
CONTINUOUS
10
0.5593001181102362
20
0.3835345275590551
11
0.5624932677165354
21
0.3856681102362204
0
LINE
8
BLACK
6
CONTINUOUS
10
0.5624932677165354
20
0.3856681102362204
11
0.566259842519685
21
0.3864173228346456
0
LINE
8
BLACK
6
CONTINUOUS
10
0.566259842519685
20
0.3864173228346456
11
0.6331889763779528
21
0.3864173228346456
0
LINE
8
BLACK
6
CONTINUOUS
10
0.6331889763779528
20
0.3864173228346456
11
0.6369555511811024
21
0.3856681102362204
0
LINE
8
BLACK
6
CONTINUOUS
10
1.8132547637795275
20
0.3865342519685039
11
1.8164479133858267
21
0.3844006692913386
0
LINE
8
BLACK
6
CONTINUOUS
10
1.8164479133858267
20
0.3844006692913386
11
1.818581496062992
21
0.3812075196850394
0
LINE
8
BLACK
6
CONTINUOUS
10
1.818581496062992
20
0.3812075196850394
11
1.8193307086614172
21
0.3774409448818897
0
LINE
8
BLACK
6
CONTINUOUS
10
1.8193307086614172
20
0.3774409448818897
11
1.8193307086614172
21
0.3498818897637795
0
LINE
8
BLACK
6
CONTINUOUS
10
1.8193307086614172
20
0.3498818897637795
11
1.818581496062992
21
0.3461153149606299
0
LINE
8
BLACK
6
CONTINUOUS
10
1.818581496062992
20
0.3461153149606299
11
1.8164479133858267
21
0.3429221653543307
0
LINE
8
BLACK
6
CONTINUOUS
10
1.8164479133858267
20
0.3429221653543307
11
1.8132547637795275
21
0.3407885826771653
0
LINE
8
BLACK
6
CONTINUOUS
10
1.8132547637795275
20
0.3407885826771653
11
1.8094881889763779
21
0.3400393700787401
0
LINE
8
BLACK
6
CONTINUOUS
10
1.8094881889763779
20
0.3400393700787401
11
1.7425590551181103
21
0.3400393700787401
0
LINE
8
BLACK
6
CONTINUOUS
10
1.7425590551181103
20
0.3400393700787401
11
1.7387924803149606
21
0.3407885826771653
0
LINE
8
BLACK
6
CONTINUOUS
10
1.7387924803149606
20
0.3407885826771653
11
1.7355993307086615
21
0.3429221653543307
0
LINE
8
BLACK
6
CONTINUOUS
10
1.7355993307086615
20
0.3429221653543307
11
1.7334657480314961
21
0.3461153149606299
0
LINE
8
BLACK
6
CONTINUOUS
10
1.7334657480314961
20
0.3461153149606299
11
1.7327165354330709
21
0.3498818897637795
0
LINE
8
BLACK
6
CONTINUOUS
10
1.7327165354330709
20
0.3498818897637795
11
1.7327165354330709
21
0.3774409448818897
0
LINE
8
BLACK
6
CONTINUOUS
10
1.7327165354330709
20
0.3774409448818897
11
1.7334657480314961
21
0.3812075196850394
0
LINE
8
BLACK
6
CONTINUOUS
10
1.7334657480314961
20
0.3812075196850394
11
1.7355993307086615
21
0.3844006692913386
0
LINE
8
BLACK
6
CONTINUOUS
10
1.7355993307086615
20
0.3844006692913386
11
1.7387924803149606
21
0.3865342519685039
0
LINE
8
BLACK
6
CONTINUOUS
10
1.7387924803149606
20
0.3865342519685039
11
1.7425590551181103
21
0.3872834645669291
0
LINE
8
BLACK
6
CONTINUOUS
10
1.7425590551181103
20
0.3872834645669291
11
1.8094881889763779
21
0.3872834645669291
0
LINE
8
BLACK
6
CONTINUOUS
10
1.8094881889763779
20
0.3872834645669291
11
1.8132547637795275
21
0.3865342519685039
0
LINE
8
BLACK
6
CONTINUOUS
10
2.9832547637795277
20
0.3865342519685039
11
2.9864479133858266
21
0.3844006692913386
0
LINE
8
BLACK
6
CONTINUOUS
10
2.9864479133858266
20
0.3844006692913386
11
2.9885814960629919
21
0.3812075196850394
0
LINE
8
BLACK
6
CONTINUOUS
10
2.9885814960629919
20
0.3812075196850394
11
2.9893307086614174
21
0.3774409448818897
0
LINE
8
BLACK
6
CONTINUOUS
10
2.9893307086614174
20
0.3774409448818897
11
2.9893307086614174
21
0.3498818897637795
0
LINE
8
BLACK
6
CONTINUOUS
10
2.9893307086614174
20
0.3498818897637795
11
2.9885814960629919
21
0.3461153149606299
0
LINE
8
BLACK
6
CONTINUOUS
10
2.9885814960629919
20
0.3461153149606299
11
2.9864479133858266
21
0.3429221653543307
0
LINE
8
BLACK
6
CONTINUOUS
10
2.9864479133858266
20
0.3429221653543307
11
2.9832547637795277
21
0.3407885826771653
0
LINE
8
BLACK
6
CONTINUOUS
10
2.9832547637795277
20
0.3407885826771653
11
2.979488188976378
21
0.3400393700787401
0
LINE
8
BLACK
6
CONTINUOUS
10
2.979488188976378
20
0.3400393700787401
11
2.91255905511811
21
0.3400393700787401
0
LINE
8
BLACK
6
CONTINUOUS
10
2.91255905511811
20
0.3400393700787401
11
2.9087924803149607
21
0.3407885826771653
0
LINE
8
BLACK
6
CONTINUOUS
10
2.9087924803149607
20
0.3407885826771653
11
2.9055993307086614
21
0.3429221653543307
0
LINE
8
BLACK
6
CONTINUOUS
10
2.9055993307086614
20
0.3429221653543307
11
2.903465748031496
21
0.3461153149606299
0
LINE
8
BLACK
6
CONTINUOUS
10
2.903465748031496
20
0.3461153149606299
11
2.9027165354330706
21
0.3498818897637795
0
LINE
8
BLACK
6
CONTINUOUS
10
2.9027165354330706
20
0.3498818897637795
11
2.9027165354330706
21
0.3774409448818897
0
LINE
8
BLACK
6
CONTINUOUS
10
2.9027165354330706
20
0.3774409448818897
11
2.903465748031496
21
0.3812075196850394
0
LINE
8
BLACK
6
CONTINUOUS
10
2.903465748031496
20
0.3812075196850394
11
2.9055993307086614
21
0.3844006692913386
0
LINE
8
BLACK
6
CONTINUOUS
10
2.9055993307086614
20
0.3844006692913386
11
2.9087924803149607
21
0.3865342519685039
0
LINE
8
BLACK
6
CONTINUOUS
10
2.9087924803149607
20
0.3865342519685039
11
2.91255905511811
21
0.3872834645669291
0
LINE
8
BLACK
6
CONTINUOUS
10
2.91255905511811
20
0.3872834645669291
11
2.979488188976378
21
0.3872834645669291
0
LINE
8
BLACK
6
CONTINUOUS
10
2.979488188976378
20
0.3872834645669291
11
2.9832547637795277
21
0.3865342519685039
0
LINE
8
BLACK
6
CONTINUOUS
10
0.4815224803149606
20
0.5314161417322835
11
0.4847156299212598
21
0.5292825590551181
0
LINE
8
BLACK
6
CONTINUOUS
10
0.4847156299212598
20
0.5292825590551181
11
0.4868492125984252
21
0.5260894094488189
0
LINE
8
BLACK
6
CONTINUOUS
10
0.4868492125984252
20
0.5260894094488189
11
0.4875984251968504
21
0.5223228346456693
0
LINE
8
BLACK
6
CONTINUOUS
10
0.4875984251968504
20
0.5223228346456693
11
0.4875984251968504
21
0.4908267716535433
0
LINE
8
BLACK
6
CONTINUOUS
10
0.4875984251968504
20
0.4908267716535433
11
0.4868492125984252
21
0.4870601968503937
0
LINE
8
BLACK
6
CONTINUOUS
10
0.4868492125984252
20
0.4870601968503937
11
0.4847156299212598
21
0.4838670472440945
0
LINE
8
BLACK
6
CONTINUOUS
10
0.4847156299212598
20
0.4838670472440945
11
0.4815224803149606
21
0.4817334645669291
0
LINE
8
BLACK
6
CONTINUOUS
10
0.4815224803149606
20
0.4817334645669291
11
0.477755905511811
21
0.4809842519685039
0
LINE
8
BLACK
6
CONTINUOUS
10
0.477755905511811
20
0.4809842519685039
11
0.4285433070866141
21
0.4809842519685039
0
LINE
8
BLACK
6
CONTINUOUS
10
0.4285433070866141
20
0.4809842519685039
11
0.4247767322834646
21
0.4817334645669291
0
LINE
8
BLACK
6
CONTINUOUS
10
0.4247767322834646
20
0.4817334645669291
11
0.4215835826771653
21
0.4838670472440945
0
LINE
8
BLACK
6
CONTINUOUS
10
0.4215835826771653
20
0.4838670472440945
11
0.41945
21
0.4870601968503937
0
LINE
8
BLACK
6
CONTINUOUS
10
0.41945
20
0.4870601968503937
11
0.4187007874015748
21
0.4908267716535433
0
LINE
8
BLACK
6
CONTINUOUS
10
0.4187007874015748
20
0.4908267716535433
11
0.4187007874015748
21
0.5223228346456693
0
LINE
8
BLACK
6
CONTINUOUS
10
0.4187007874015748
20
0.5223228346456693
11
0.41945
21
0.5260894094488189
0
LINE
8
BLACK
6
CONTINUOUS
10
0.41945
20
0.5260894094488189
11
0.4215835826771653
21
0.5292825590551181
0
LINE
8
BLACK
6
CONTINUOUS
10
0.4215835826771653
20
0.5292825590551181
11
0.4247767322834646
21
0.5314161417322835
0
LINE
8
BLACK
6
CONTINUOUS
10
0.4247767322834646
20
0.5314161417322835
11
0.4285433070866141
21
0.5321653543307087
0
LINE
8
BLACK
6
CONTINUOUS
10
0.4285433070866141
20
0.5321653543307087
11
0.477755905511811
21
0.5321653543307087
0
LINE
8
BLACK
6
CONTINUOUS
10
0.477755905511811
20
0.5321653543307087
11
0.4815224803149606
21
0.5314161417322835
0
LINE
8
BLACK
6
CONTINUOUS
10
1.6578216929133858
20
0.532282283464567
11
1.6610148425196849
21
0.5301487007874016
0
LINE
8
BLACK
6
CONTINUOUS
10
1.6610148425196849
20
0.5301487007874016
11
1.6631484251968505
21
0.5269555511811024
0
LINE
8
BLACK
6
CONTINUOUS
10
1.6631484251968505
20
0.5269555511811024
11
1.6638976377952757
21
0.5231889763779527
0
LINE
8
BLACK
6
CONTINUOUS
10
1.6638976377952757
20
0.5231889763779527
11
1.6638976377952757
21
0.4916929133858268
0
LINE
8
BLACK
6
CONTINUOUS
10
1.6638976377952757
20
0.4916929133858268
11
1.6631484251968505
21
0.4879263385826771
0
LINE
8
BLACK
6
CONTINUOUS
10
1.6631484251968505
20
0.4879263385826771
11
1.6610148425196849
21
0.484733188976378
0
LINE
8
BLACK
6
CONTINUOUS
10
1.6610148425196849
20
0.484733188976378
11
1.6578216929133858
21
0.4825996062992126
0
LINE
8
BLACK
6
CONTINUOUS
10
1.6578216929133858
20
0.4825996062992126
11
1.6540551181102361
21
0.4818503937007874
0
LINE
8
BLACK
6
CONTINUOUS
10
1.6540551181102361
20
0.4818503937007874
11
1.6048425196850393
21
0.4818503937007874
0
LINE
8
BLACK
6
CONTINUOUS
10
1.6048425196850393
20
0.4818503937007874
11
1.6010759448818896
21
0.4825996062992126
0
LINE
8
BLACK
6
CONTINUOUS
10
1.6010759448818896
20
0.4825996062992126
11
1.5978827952755905
21
0.484733188976378
0
LINE
8
BLACK
6
CONTINUOUS
10
1.5978827952755905
20
0.484733188976378
11
1.5957492125984252
21
0.4879263385826771
0
LINE
8
BLACK
6
CONTINUOUS
10
1.5957492125984252
20
0.4879263385826771
11
1.595
21
0.4916929133858268
0
LINE
8
BLACK
6
CONTINUOUS
10
1.595
20
0.4916929133858268
11
1.595
21
0.5231889763779527
0
LINE
8
BLACK
6
CONTINUOUS
10
1.595
20
0.5231889763779527
11
1.5957492125984252
21
0.5269555511811024
0
LINE
8
BLACK
6
CONTINUOUS
10
1.5957492125984252
20
0.5269555511811024
11
1.5978827952755905
21
0.5301487007874016
0
LINE
8
BLACK
6
CONTINUOUS
10
1.5978827952755905
20
0.5301487007874016
11
1.6010759448818896
21
0.532282283464567
0
LINE
8
BLACK
6
CONTINUOUS
10
1.6010759448818896
20
0.532282283464567
11
1.6048425196850393
21
0.5330314960629922
0
LINE
8
BLACK
6
CONTINUOUS
10
1.6048425196850393
20
0.5330314960629922
11
1.6540551181102361
21
0.5330314960629922
0
LINE
8
BLACK
6
CONTINUOUS
10
1.6540551181102361
20
0.5330314960629922
11
1.6578216929133858
21
0.532282283464567
0
LINE
8
BLACK
6
CONTINUOUS
10
2.8278216929133859
20
0.532282283464567
11
2.8310148425196848
21
0.5301487007874016
0
LINE
8
BLACK
6
CONTINUOUS
10
2.8310148425196848
20
0.5301487007874016
11
2.8331484251968502
21
0.5269555511811024
0
LINE
8
BLACK
6
CONTINUOUS
10
2.8331484251968502
20
0.5269555511811024
11
2.8338976377952756
21
0.5231889763779527
0
LINE
8
BLACK
6
CONTINUOUS
10
2.8338976377952756
20
0.5231889763779527
11
2.8338976377952756
21
0.4916929133858268
0
LINE
8
BLACK
6
CONTINUOUS
10
2.8338976377952756
20
0.4916929133858268
11
2.8331484251968502
21
0.4879263385826771
0
LINE
8
BLACK
6
CONTINUOUS
10
2.8331484251968502
20
0.4879263385826771
11
2.8310148425196848
21
0.484733188976378
0
LINE
8
BLACK
6
CONTINUOUS
10
2.8310148425196848
20
0.484733188976378
11
2.8278216929133859
21
0.4825996062992126
0
LINE
8
BLACK
6
CONTINUOUS
10
2.8278216929133859
20
0.4825996062992126
11
2.8240551181102362
21
0.4818503937007874
0
LINE
8
BLACK
6
CONTINUOUS
10
2.8240551181102362
20
0.4818503937007874
11
2.7748425196850395
21
0.4818503937007874
0
LINE
8
BLACK
6
CONTINUOUS
10
2.7748425196850395
20
0.4818503937007874
11
2.7710759448818898
21
0.4825996062992126
0
LINE
8
BLACK
6
CONTINUOUS
10
2.7710759448818898
20
0.4825996062992126
11
2.7678827952755904
21
0.484733188976378
0
LINE
8
BLACK
6
CONTINUOUS
10
2.7678827952755904
20
0.484733188976378
11
2.7657492125984251
21
0.4879263385826771
0
LINE
8
BLACK
6
CONTINUOUS
10
2.7657492125984251
20
0.4879263385826771
11
2.7650000000000001
21
0.4916929133858268
0
LINE
8
BLACK
6
CONTINUOUS
10
2.7650000000000001
20
0.4916929133858268
11
2.7650000000000001
21
0.5231889763779527
0
LINE
8
BLACK
6
CONTINUOUS
10
2.7650000000000001
20
0.5231889763779527
11
2.7657492125984251
21
0.5269555511811024
0
LINE
8
BLACK
6
CONTINUOUS
10
2.7657492125984251
20
0.5269555511811024
11
2.7678827952755904
21
0.5301487007874016
0
LINE
8
BLACK
6
CONTINUOUS
10
2.7678827952755904
20
0.5301487007874016
11
2.7710759448818898
21
0.532282283464567
0
LINE
8
BLACK
6
CONTINUOUS
10
2.7710759448818898
20
0.532282283464567
11
2.7748425196850395
21
0.5330314960629922
0
LINE
8
BLACK
6
CONTINUOUS
10
2.7748425196850395
20
0.5330314960629922
11
2.8240551181102362
21
0.5330314960629922
0
LINE
8
BLACK
6
CONTINUOUS
10
2.8240551181102362
20
0.5330314960629922
11
2.8278216929133859
21
0.532282283464567
0
LINE
8
BLACK
6
CONTINUOUS
10
0.8476642125984252
20
0.6463767716535433
11
0.8508573622047244
21
0.6442431889763779
0
LINE
8
BLACK
6
CONTINUOUS
10
0.8508573622047244
20
0.6442431889763779
11
0.8529909448818898
21
0.6410500393700788
0
LINE
8
BLACK
6
CONTINUOUS
10
0.8529909448818898
20
0.6410500393700788
11
0.853740157480315
21
0.6372834645669291
0
LINE
8
BLACK
6
CONTINUOUS
10
0.853740157480315
20
0.6372834645669291
11
0.853740157480315
21
0.5487007874015748
0
LINE
8
BLACK
6
CONTINUOUS
10
0.853740157480315
20
0.5487007874015748
11
0.8529909448818898
21
0.5449342125984252
0
LINE
8
BLACK
6
CONTINUOUS
10
0.8529909448818898
20
0.5449342125984252
11
0.8508573622047244
21
0.541741062992126
0
LINE
8
BLACK
6
CONTINUOUS
10
0.8508573622047244
20
0.541741062992126
11
0.8476642125984252
21
0.5396074803149606
0
LINE
8
BLACK
6
CONTINUOUS
10
0.8476642125984252
20
0.5396074803149606
11
0.8438976377952756
21
0.5388582677165354
0
LINE
8
BLACK
6
CONTINUOUS
10
0.8438976377952756
20
0.5388582677165354
11
0.743503937007874
21
0.5388582677165354
0
LINE
8
BLACK
6
CONTINUOUS
10
0.743503937007874
20
0.5388582677165354
11
0.7397373622047244
21
0.5396074803149606
0
LINE
8
BLACK
6
CONTINUOUS
10
0.7397373622047244
20
0.5396074803149606
11
0.7365442125984252
21
0.541741062992126
0
LINE
8
BLACK
6
CONTINUOUS
10
0.7365442125984252
20
0.541741062992126
11
0.7344106299212598
21
0.5449342125984252
0
LINE
8
BLACK
6
CONTINUOUS
10
0.7344106299212598
20
0.5449342125984252
11
0.7336614173228346
21
0.5487007874015748
0
LINE
8
BLACK
6
CONTINUOUS
10
0.7336614173228346
20
0.5487007874015748
11
0.7336614173228346
21
0.6372834645669291
0
LINE
8
BLACK
6
CONTINUOUS
10
0.7336614173228346
20
0.6372834645669291
11
0.7344106299212598
21
0.6410500393700788
0
LINE
8
BLACK
6
CONTINUOUS
10
0.7344106299212598
20
0.6410500393700788
11
0.7365442125984252
21
0.6442431889763779
0
LINE
8
BLACK
6
CONTINUOUS
10
0.7365442125984252
20
0.6442431889763779
11
0.7397373622047244
21
0.6463767716535433
0
LINE
8
BLACK
6
CONTINUOUS
10
0.7397373622047244
20
0.6463767716535433
11
0.743503937007874
21
0.6471259842519685
0
LINE
8
BLACK
6
CONTINUOUS
10
0.743503937007874
20
0.6471259842519685
11
0.8438976377952756
21
0.6471259842519685
0
LINE
8
BLACK
6
CONTINUOUS
10
0.8438976377952756
20
0.6471259842519685
11
0.8476642125984252
21
0.6463767716535433
0
LINE
8
BLACK
6
CONTINUOUS
10
0.9795539763779527
20
0.6463767716535433
11
0.982747125984252
21
0.6442431889763779
0
LINE
8
BLACK
6
CONTINUOUS
10
0.982747125984252
20
0.6442431889763779
11
0.9848807086614173
21
0.6410500393700788
0
LINE
8
BLACK
6
CONTINUOUS
10
0.9848807086614173
20
0.6410500393700788
11
0.9856299212598425
21
0.6372834645669291
0
LINE
8
BLACK
6
CONTINUOUS
10
0.9856299212598425
20
0.6372834645669291
11
0.9856299212598425
21
0.5487007874015748
0
LINE
8
BLACK
6
CONTINUOUS
10
0.9856299212598425
20
0.5487007874015748
11
0.9848807086614173
21
0.5449342125984252
0
LINE
8
BLACK
6
CONTINUOUS
10
0.9848807086614173
20
0.5449342125984252
11
0.982747125984252
21
0.541741062992126
0
LINE
8
BLACK
6
CONTINUOUS
10
0.982747125984252
20
0.541741062992126
11
0.9795539763779527
21
0.5396074803149606
0
LINE
8
BLACK
6
CONTINUOUS
10
0.9795539763779527
20
0.5396074803149606
11
0.9757874015748031
21
0.5388582677165354
0
LINE
8
BLACK
6
CONTINUOUS
10
0.9757874015748031
20
0.5388582677165354
11
0.8753937007874015
21
0.5388582677165354
0
LINE
8
BLACK
6
CONTINUOUS
10
0.8753937007874015
20
0.5388582677165354
11
0.871627125984252
21
0.5396074803149606
0
LINE
8
BLACK
6
CONTINUOUS
10
0.871627125984252
20
0.5396074803149606
11
0.8684339763779527
21
0.541741062992126
0
LINE
8
BLACK
6
CONTINUOUS
10
0.8684339763779527
20
0.541741062992126
11
0.8663003937007874
21
0.5449342125984252
0
LINE
8
BLACK
6
CONTINUOUS
10
0.8663003937007874
20
0.5449342125984252
11
0.8655511811023622
21
0.5487007874015748
0
LINE
8
BLACK
6
CONTINUOUS
10
0.8655511811023622
20
0.5487007874015748
11
0.8655511811023622
21
0.6372834645669291
0
LINE
8
BLACK
6
CONTINUOUS
10
0.8655511811023622
20
0.6372834645669291
11
0.8663003937007874
21
0.6410500393700788
0
LINE
8
BLACK
6
CONTINUOUS
10
0.8663003937007874
20
0.6410500393700788
11
0.8684339763779527
21
0.6442431889763779
0
LINE
8
BLACK
6
CONTINUOUS
10
0.8684339763779527
20
0.6442431889763779
11
0.871627125984252
21
0.6463767716535433
0
LINE
8
BLACK
6
CONTINUOUS
10
0.871627125984252
20
0.6463767716535433
11
0.8753937007874015
21
0.6471259842519685
0
LINE
8
BLACK
6
CONTINUOUS
10
0.8753937007874015
20
0.6471259842519685
11
0.9757874015748031
21
0.6471259842519685
0
LINE
8
BLACK
6
CONTINUOUS
10
0.9757874015748031
20
0.6471259842519685
11
0.9795539763779527
21
0.6463767716535433
0
LINE
8
BLACK
6
CONTINUOUS
10
0.6488453149606299
20
0.5861405511811023
11
0.6520384645669292
21
0.584006968503937
0
LINE
8
BLACK
6
CONTINUOUS
10
0.6520384645669292
20
0.584006968503937
11
0.6541720472440945
21
0.5808138188976378
0
LINE
8
BLACK
6
CONTINUOUS
10
0.6541720472440945
20
0.5808138188976378
11
0.6549212598425197
21
0.5770472440944882
0
LINE
8
BLACK
6
CONTINUOUS
10
0.6549212598425197
20
0.5770472440944882
11
0.6549212598425197
21
0.549488188976378
0
LINE
8
BLACK
6
CONTINUOUS
10
0.6549212598425197
20
0.549488188976378
11
0.6541720472440945
21
0.5457216141732283
0
LINE
8
BLACK
6
CONTINUOUS
10
0.6541720472440945
20
0.5457216141732283
11
0.6520384645669292
21
0.5425284645669292
0
LINE
8
BLACK
6
CONTINUOUS
10
0.6520384645669292
20
0.5425284645669292
11
0.6488453149606299
21
0.5403948818897638
0
LINE
8
BLACK
6
CONTINUOUS
10
0.6488453149606299
20
0.5403948818897638
11
0.6450787401574803
21
0.5396456692913386
0
LINE
8
BLACK
6
CONTINUOUS
10
0.6450787401574803
20
0.5396456692913386
11
0.5781496062992126
21
0.5396456692913386
0
LINE
8
BLACK
6
CONTINUOUS
10
0.5781496062992126
20
0.5396456692913386
11
0.574383031496063
21
0.5403948818897638
0
LINE
8
BLACK
6
CONTINUOUS
10
0.574383031496063
20
0.5403948818897638
11
0.5711898818897637
21
0.5425284645669292
0
LINE
8
BLACK
6
CONTINUOUS
10
0.5711898818897637
20
0.5425284645669292
11
0.5690562992125984
21
0.5457216141732283
0
LINE
8
BLACK
6
CONTINUOUS
10
0.5690562992125984
20
0.5457216141732283
11
0.5683070866141732
21
0.549488188976378
0
LINE
8
BLACK
6
CONTINUOUS
10
0.5683070866141732
20
0.549488188976378
11
0.5683070866141732
21
0.5770472440944882
0
LINE
8
BLACK
6
CONTINUOUS
10
0.5683070866141732
20
0.5770472440944882
11
0.5690562992125984
21
0.5808138188976378
0
LINE
8
BLACK
6
CONTINUOUS
10
0.5690562992125984
20
0.5808138188976378
11
0.5711898818897637
21
0.584006968503937
0
LINE
8
BLACK
6
CONTINUOUS
10
0.5711898818897637
20
0.584006968503937
11
0.574383031496063
21
0.5861405511811023
0
LINE
8
BLACK
6
CONTINUOUS
10
0.574383031496063
20
0.5861405511811023
11
0.5781496062992126
21
0.5868897637795275
0
LINE
8
BLACK
6
CONTINUOUS
10
0.5781496062992126
20
0.5868897637795275
11
0.6450787401574803
21
0.5868897637795275
0
LINE
8
BLACK
6
CONTINUOUS
10
0.6450787401574803
20
0.5868897637795275
11
0.6488453149606299
21
0.5861405511811023
0
LINE
8
BLACK
6
CONTINUOUS
10
2.0239634251968504
20
0.6472429133858267
11
2.0271565748031497
21
0.6451093307086614
0
LINE
8
BLACK
6
CONTINUOUS
10
2.0271565748031497
20
0.6451093307086614
11
2.029290157480315
21
0.6419161811023621
0
LINE
8
BLACK
6
CONTINUOUS
10
2.029290157480315
20
0.6419161811023621
11
2.03003937007874
21
0.6381496062992126
0
LINE
8
BLACK
6
CONTINUOUS
10
2.03003937007874
20
0.6381496062992126
11
2.03003937007874
21
0.5495669291338583
0
LINE
8
BLACK
6
CONTINUOUS
10
2.03003937007874
20
0.5495669291338583
11
2.029290157480315
21
0.5458003543307086
0
LINE
8
BLACK
6
CONTINUOUS
10
2.029290157480315
20
0.5458003543307086
11
2.0271565748031497
21
0.5426072047244095
0
LINE
8
BLACK
6
CONTINUOUS
10
2.0271565748031497
20
0.5426072047244095
11
2.0239634251968504
21
0.540473622047244
0
LINE
8
BLACK
6
CONTINUOUS
10
2.0239634251968504
20
0.540473622047244
11
2.0201968503937007
21
0.5397244094488188
0
LINE
8
BLACK
6
CONTINUOUS
10
2.0201968503937007
20
0.5397244094488188
11
1.9198031496062993
21
0.5397244094488188
0
LINE
8
BLACK
6
CONTINUOUS
10
1.9198031496062993
20
0.5397244094488188
11
1.9160365748031496
21
0.540473622047244
0
LINE
8
BLACK
6
CONTINUOUS
10
1.9160365748031496
20
0.540473622047244
11
1.9128434251968502
21
0.5426072047244095
0
LINE
8
BLACK
6
CONTINUOUS
10
1.9128434251968502
20
0.5426072047244095
11
1.9107098425196849
21
0.5458003543307086
0
LINE
8
BLACK
6
CONTINUOUS
10
1.9107098425196849
20
0.5458003543307086
11
1.9099606299212597
21
0.5495669291338583
0
LINE
8
BLACK
6
CONTINUOUS
10
1.9099606299212597
20
0.5495669291338583
11
1.9099606299212597
21
0.6381496062992126
0
LINE
8
BLACK
6
CONTINUOUS
10
1.9099606299212597
20
0.6381496062992126
11
1.9107098425196849
21
0.6419161811023621
0
LINE
8
BLACK
6
CONTINUOUS
10
1.9107098425196849
20
0.6419161811023621
11
1.9128434251968502
21
0.6451093307086614
0
LINE
8
BLACK
6
CONTINUOUS
10
1.9128434251968502
20
0.6451093307086614
11
1.9160365748031496
21
0.6472429133858267
0
LINE
8
BLACK
6
CONTINUOUS
10
1.9160365748031496
20
0.6472429133858267
11
1.9198031496062993
21
0.6479921259842519
0
LINE
8
BLACK
6
CONTINUOUS
10
1.9198031496062993
20
0.6479921259842519
11
2.0201968503937007
21
0.6479921259842519
0
LINE
8
BLACK
6
CONTINUOUS
10
2.0201968503937007
20
0.6479921259842519
11
2.0239634251968504
21
0.6472429133858267
0
LINE
8
BLACK
6
CONTINUOUS
10
2.1558531889763781
20
0.6472429133858267
11
2.159046338582677
21
0.6451093307086614
0
LINE
8
BLACK
6
CONTINUOUS
10
2.159046338582677
20
0.6451093307086614
11
2.1611799212598424
21
0.6419161811023621
0
LINE
8
BLACK
6
CONTINUOUS
10
2.1611799212598424
20
0.6419161811023621
11
2.1619291338582678
21
0.6381496062992126
0
LINE
8
BLACK
6
CONTINUOUS
10
2.1619291338582678
20
0.6381496062992126
11
2.1619291338582678
21
0.5495669291338583
0
LINE
8
BLACK
6
CONTINUOUS
10
2.1619291338582678
20
0.5495669291338583
11
2.1611799212598424
21
0.5458003543307086
0
LINE
8
BLACK
6
CONTINUOUS
10
2.1611799212598424
20
0.5458003543307086
11
2.159046338582677
21
0.5426072047244095
0
LINE
8
BLACK
6
CONTINUOUS
10
2.159046338582677
20
0.5426072047244095
11
2.1558531889763781
21
0.540473622047244
0
LINE
8
BLACK
6
CONTINUOUS
10
2.1558531889763781
20
0.540473622047244
11
2.1520866141732284
21
0.5397244094488188
0
LINE
8
BLACK
6
CONTINUOUS
10
2.1520866141732284
20
0.5397244094488188
11
2.0516929133858266
21
0.5397244094488188
0
LINE
8
BLACK
6
CONTINUOUS
10
2.0516929133858266
20
0.5397244094488188
11
2.0479263385826769
21
0.540473622047244
0
LINE
8
BLACK
6
CONTINUOUS
10
2.0479263385826769
20
0.540473622047244
11
2.044733188976378
21
0.5426072047244095
0
LINE
8
BLACK
6
CONTINUOUS
10
2.044733188976378
20
0.5426072047244095
11
2.0425996062992127
21
0.5458003543307086
0
LINE
8
BLACK
6
CONTINUOUS
10
2.0425996062992127
20
0.5458003543307086
11
2.0418503937007872
21
0.5495669291338583
0
LINE
8
BLACK
6
CONTINUOUS
10
2.0418503937007872
20
0.5495669291338583
11
2.0418503937007872
21
0.6381496062992126
0
LINE
8
BLACK
6
CONTINUOUS
10
2.0418503937007872
20
0.6381496062992126
11
2.0425996062992127
21
0.6419161811023621
0
LINE
8
BLACK
6
CONTINUOUS
10
2.0425996062992127
20
0.6419161811023621
11
2.044733188976378
21
0.6451093307086614
0
LINE
8
BLACK
6
CONTINUOUS
10
2.044733188976378
20
0.6451093307086614
11
2.0479263385826769
21
0.6472429133858267
0
LINE
8
BLACK
6
CONTINUOUS
10
2.0479263385826769
20
0.6472429133858267
11
2.0516929133858266
21
0.6479921259842519
0
LINE
8
BLACK
6
CONTINUOUS
10
2.0516929133858266
20
0.6479921259842519
11
2.1520866141732284
21
0.6479921259842519
0
LINE
8
BLACK
6
CONTINUOUS
10
2.1520866141732284
20
0.6479921259842519
11
2.1558531889763781
21
0.6472429133858267
0
LINE
8
BLACK
6
CONTINUOUS
10
3.1939634251968503
20
0.6472429133858267
11
3.1971565748031496
21
0.6451093307086614
0
LINE
8
BLACK
6
CONTINUOUS
10
3.1971565748031496
20
0.6451093307086614
11
3.199290157480315
21
0.6419161811023621
0
LINE
8
BLACK
6
CONTINUOUS
10
3.199290157480315
20
0.6419161811023621
11
3.20003937007874
21
0.6381496062992126
0
LINE
8
BLACK
6
CONTINUOUS
10
3.20003937007874
20
0.6381496062992126
11
3.20003937007874
21
0.5495669291338583
0
LINE
8
BLACK
6
CONTINUOUS
10
3.20003937007874
20
0.5495669291338583
11
3.199290157480315
21
0.5458003543307086
0
LINE
8
BLACK
6
CONTINUOUS
10
3.199290157480315
20
0.5458003543307086
11
3.1971565748031496
21
0.5426072047244095
0
LINE
8
BLACK
6
CONTINUOUS
10
3.1971565748031496
20
0.5426072047244095
11
3.1939634251968503
21
0.540473622047244
0
LINE
8
BLACK
6
CONTINUOUS
10
3.1939634251968503
20
0.540473622047244
11
3.1901968503937006
21
0.5397244094488188
0
LINE
8
BLACK
6
CONTINUOUS
10
3.1901968503937006
20
0.5397244094488188
11
3.0898031496062992
21
0.5397244094488188
0
LINE
8
BLACK
6
CONTINUOUS
10
3.0898031496062992
20
0.5397244094488188
11
3.0860365748031495
21
0.540473622047244
0
LINE
8
BLACK
6
CONTINUOUS
10
3.0860365748031495
20
0.540473622047244
11
3.0828434251968502
21
0.5426072047244095
0
LINE
8
BLACK
6
CONTINUOUS
10
3.0828434251968502
20
0.5426072047244095
11
3.0807098425196848
21
0.5458003543307086
0
LINE
8
BLACK
6
CONTINUOUS
10
3.0807098425196848
20
0.5458003543307086
11
3.0799606299212599
21
0.5495669291338583
0
LINE
8
BLACK
6
CONTINUOUS
10
3.0799606299212599
20
0.5495669291338583
11
3.0799606299212599
21
0.6381496062992126
0
LINE
8
BLACK
6
CONTINUOUS
10
3.0799606299212599
20
0.6381496062992126
11
3.0807098425196848
21
0.6419161811023621
0
LINE
8
BLACK
6
CONTINUOUS
10
3.0807098425196848
20
0.6419161811023621
11
3.0828434251968502
21
0.6451093307086614
0
LINE
8
BLACK
6
CONTINUOUS
10
3.0828434251968502
20
0.6451093307086614
11
3.0860365748031495
21
0.6472429133858267
0
LINE
8
BLACK
6
CONTINUOUS
10
3.0860365748031495
20
0.6472429133858267
11
3.0898031496062992
21
0.6479921259842519
0
LINE
8
BLACK
6
CONTINUOUS
10
3.0898031496062992
20
0.6479921259842519
11
3.1901968503937006
21
0.6479921259842519
0
LINE
8
BLACK
6
CONTINUOUS
10
3.1901968503937006
20
0.6479921259842519
11
3.1939634251968503
21
0.6472429133858267
0
LINE
8
BLACK
6
CONTINUOUS
10
3.325853188976378
20
0.6472429133858267
11
3.329046338582677
21
0.6451093307086614
0
LINE
8
BLACK
6
CONTINUOUS
10
3.329046338582677
20
0.6451093307086614
11
3.3311799212598423
21
0.6419161811023621
0
LINE
8
BLACK
6
CONTINUOUS
10
3.3311799212598423
20
0.6419161811023621
11
3.3319291338582677
21
0.6381496062992126
0
LINE
8
BLACK
6
CONTINUOUS
10
3.3319291338582677
20
0.6381496062992126
11
3.3319291338582677
21
0.5495669291338583
0
LINE
8
BLACK
6
CONTINUOUS
10
3.3319291338582677
20
0.5495669291338583
11
3.3311799212598423
21
0.5458003543307086
0
LINE
8
BLACK
6
CONTINUOUS
10
3.3311799212598423
20
0.5458003543307086
11
3.329046338582677
21
0.5426072047244095
0
LINE
8
BLACK
6
CONTINUOUS
10
3.329046338582677
20
0.5426072047244095
11
3.325853188976378
21
0.540473622047244
0
LINE
8
BLACK
6
CONTINUOUS
10
3.325853188976378
20
0.540473622047244
11
3.3220866141732284
21
0.5397244094488188
0
LINE
8
BLACK
6
CONTINUOUS
10
3.3220866141732284
20
0.5397244094488188
11
3.2216929133858265
21
0.5397244094488188
0
LINE
8
BLACK
6
CONTINUOUS
10
3.2216929133858265
20
0.5397244094488188
11
3.2179263385826773
21
0.540473622047244
0
LINE
8
BLACK
6
CONTINUOUS
10
3.2179263385826773
20
0.540473622047244
11
3.2147331889763779
21
0.5426072047244095
0
LINE
8
BLACK
6
CONTINUOUS
10
3.2147331889763779
20
0.5426072047244095
11
3.2125996062992126
21
0.5458003543307086
0
LINE
8
BLACK
6
CONTINUOUS
10
3.2125996062992126
20
0.5458003543307086
11
3.2118503937007872
21
0.5495669291338583
0
LINE
8
BLACK
6
CONTINUOUS
10
3.2118503937007872
20
0.5495669291338583
11
3.2118503937007872
21
0.6381496062992126
0
LINE
8
BLACK
6
CONTINUOUS
10
3.2118503937007872
20
0.6381496062992126
11
3.2125996062992126
21
0.6419161811023621
0
LINE
8
BLACK
6
CONTINUOUS
10
3.2125996062992126
20
0.6419161811023621
11
3.2147331889763779
21
0.6451093307086614
0
LINE
8
BLACK
6
CONTINUOUS
10
3.2147331889763779
20
0.6451093307086614
11
3.2179263385826773
21
0.6472429133858267
0
LINE
8
BLACK
6
CONTINUOUS
10
3.2179263385826773
20
0.6472429133858267
11
3.2216929133858265
21
0.6479921259842519
0
LINE
8
BLACK
6
CONTINUOUS
10
3.2216929133858265
20
0.6479921259842519
11
3.3220866141732284
21
0.6479921259842519
0
LINE
8
BLACK
6
CONTINUOUS
10
3.3220866141732284
20
0.6479921259842519
11
3.325853188976378
21
0.6472429133858267
0
LINE
8
BLACK
6
CONTINUOUS
10
1.825144527559055
20
0.5870066929133858
11
1.8283376771653543
21
0.5848731102362205
0
LINE
8
BLACK
6
CONTINUOUS
10
1.8283376771653543
20
0.5848731102362205
11
1.8304712598425197
21
0.5816799606299212
0
LINE
8
BLACK
6
CONTINUOUS
10
1.8304712598425197
20
0.5816799606299212
11
1.8312204724409449
21
0.5779133858267717
0
LINE
8
BLACK
6
CONTINUOUS
10
1.8312204724409449
20
0.5779133858267717
11
1.8312204724409449
21
0.5503543307086614
0
LINE
8
BLACK
6
CONTINUOUS
10
1.8312204724409449
20
0.5503543307086614
11
1.8304712598425197
21
0.5465877559055118
0
LINE
8
BLACK
6
CONTINUOUS
10
1.8304712598425197
20
0.5465877559055118
11
1.8283376771653543
21
0.5433946062992125
0
LINE
8
BLACK
6
CONTINUOUS
10
1.8283376771653543
20
0.5433946062992125
11
1.825144527559055
21
0.5412610236220472
0
LINE
8
BLACK
6
CONTINUOUS
10
1.825144527559055
20
0.5412610236220472
11
1.8213779527559055
21
0.540511811023622
0
LINE
8
BLACK
6
CONTINUOUS
10
1.8213779527559055
20
0.540511811023622
11
1.7544488188976377
21
0.540511811023622
0
LINE
8
BLACK
6
CONTINUOUS
10
1.7544488188976377
20
0.540511811023622
11
1.7506822440944882
21
0.5412610236220472
0
LINE
8
BLACK
6
CONTINUOUS
10
1.7506822440944882
20
0.5412610236220472
11
1.7474890944881889
21
0.5433946062992125
0
LINE
8
BLACK
6
CONTINUOUS
10
1.7474890944881889
20
0.5433946062992125
11
1.7453555118110236
21
0.5465877559055118
0
LINE
8
BLACK
6
CONTINUOUS
10
1.7453555118110236
20
0.5465877559055118
11
1.7446062992125984
21
0.5503543307086614
0
LINE
8
BLACK
6
CONTINUOUS
10
1.7446062992125984
20
0.5503543307086614
11
1.7446062992125984
21
0.5779133858267717
0
LINE
8
BLACK
6
CONTINUOUS
10
1.7446062992125984
20
0.5779133858267717
11
1.7453555118110236
21
0.5816799606299212
0
LINE
8
BLACK
6
CONTINUOUS
10
1.7453555118110236
20
0.5816799606299212
11
1.7474890944881889
21
0.5848731102362205
0
LINE
8
BLACK
6
CONTINUOUS
10
1.7474890944881889
20
0.5848731102362205
11
1.7506822440944882
21
0.5870066929133858
0
LINE
8
BLACK
6
CONTINUOUS
10
1.7506822440944882
20
0.5870066929133858
11
1.7544488188976377
21
0.587755905511811
0
LINE
8
BLACK
6
CONTINUOUS
10
1.7544488188976377
20
0.587755905511811
11
1.8213779527559055
21
0.587755905511811
0
LINE
8
BLACK
6
CONTINUOUS
10
1.8213779527559055
20
0.587755905511811
11
1.825144527559055
21
0.5870066929133858
0
LINE
8
BLACK
6
CONTINUOUS
10
2.9951445275590549
20
0.5870066929133858
11
2.9983376771653543
21
0.5848731102362205
0
LINE
8
BLACK
6
CONTINUOUS
10
2.9983376771653543
20
0.5848731102362205
11
3.0004712598425196
21
0.5816799606299212
0
LINE
8
BLACK
6
CONTINUOUS
10
3.0004712598425196
20
0.5816799606299212
11
3.001220472440945
21
0.5779133858267717
0
LINE
8
BLACK
6
CONTINUOUS
10
3.001220472440945
20
0.5779133858267717
11
3.001220472440945
21
0.5503543307086614
0
LINE
8
BLACK
6
CONTINUOUS
10
3.001220472440945
20
0.5503543307086614
11
3.0004712598425196
21
0.5465877559055118
0
LINE
8
BLACK
6
CONTINUOUS
10
3.0004712598425196
20
0.5465877559055118
11
2.9983376771653543
21
0.5433946062992125
0
LINE
8
BLACK
6
CONTINUOUS
10
2.9983376771653543
20
0.5433946062992125
11
2.9951445275590549
21
0.5412610236220472
0
LINE
8
BLACK
6
CONTINUOUS
10
2.9951445275590549
20
0.5412610236220472
11
2.9913779527559052
21
0.540511811023622
0
LINE
8
BLACK
6
CONTINUOUS
10
2.9913779527559052
20
0.540511811023622
11
2.9244488188976376
21
0.540511811023622
0
LINE
8
BLACK
6
CONTINUOUS
10
2.9244488188976376
20
0.540511811023622
11
2.920682244094488
21
0.5412610236220472
0
LINE
8
BLACK
6
CONTINUOUS
10
2.920682244094488
20
0.5412610236220472
11
2.917489094488189
21
0.5433946062992125
0
LINE
8
BLACK
6
CONTINUOUS
10
2.917489094488189
20
0.5433946062992125
11
2.9153555118110237
21
0.5465877559055118
0
LINE
8
BLACK
6
CONTINUOUS
10
2.9153555118110237
20
0.5465877559055118
11
2.9146062992125983
21
0.5503543307086614
0
LINE
8
BLACK
6
CONTINUOUS
10
2.9146062992125983
20
0.5503543307086614
11
2.9146062992125983
21
0.5779133858267717
0
LINE
8
BLACK
6
CONTINUOUS
10
2.9146062992125983
20
0.5779133858267717
11
2.9153555118110237
21
0.5816799606299212
0
LINE
8
BLACK
6
CONTINUOUS
10
2.9153555118110237
20
0.5816799606299212
11
2.917489094488189
21
0.5848731102362205
0
LINE
8
BLACK
6
CONTINUOUS
10
2.917489094488189
20
0.5848731102362205
11
2.920682244094488
21
0.5870066929133858
0
LINE
8
BLACK
6
CONTINUOUS
10
2.920682244094488
20
0.5870066929133858
11
2.9244488188976376
21
0.587755905511811
0
LINE
8
BLACK
6
CONTINUOUS
10
2.9244488188976376
20
0.587755905511811
11
2.9913779527559052
21
0.587755905511811
0
LINE
8
BLACK
6
CONTINUOUS
10
2.9913779527559052
20
0.587755905511811
11
2.9951445275590549
21
0.5870066929133858
0
LINE
8
BLACK
6
CONTINUOUS
10
0.4815224803149606
20
0.6534633858267717
11
0.4847156299212598
21
0.6513298031496063
0
LINE
8
BLACK
6
CONTINUOUS
10
0.4847156299212598
20
0.6513298031496063
11
0.4868492125984252
21
0.6481366535433071
0
LINE
8
BLACK
6
CONTINUOUS
10
0.4868492125984252
20
0.6481366535433071
11
0.4875984251968504
21
0.6443700787401575
0
LINE
8
BLACK
6
CONTINUOUS
10
0.4875984251968504
20
0.6443700787401575
11
0.4875984251968504
21
0.6128740157480315
0
LINE
8
BLACK
6
CONTINUOUS
10
0.4875984251968504
20
0.6128740157480315
11
0.4868492125984252
21
0.6091074409448819
0
LINE
8
BLACK
6
CONTINUOUS
10
0.4868492125984252
20
0.6091074409448819
11
0.4847156299212598
21
0.6059142913385827
0
LINE
8
BLACK
6
CONTINUOUS
10
0.4847156299212598
20
0.6059142913385827
11
0.4815224803149606
21
0.6037807086614173
0
LINE
8
BLACK
6
CONTINUOUS
10
0.4815224803149606
20
0.6037807086614173
11
0.477755905511811
21
0.6030314960629921
0
LINE
8
BLACK
6
CONTINUOUS
10
0.477755905511811
20
0.6030314960629921
11
0.4285433070866141
21
0.6030314960629921
0
LINE
8
BLACK
6
CONTINUOUS
10
0.4285433070866141
20
0.6030314960629921
11
0.4247767322834646
21
0.6037807086614173
0
LINE
8
BLACK
6
CONTINUOUS
10
0.4247767322834646
20
0.6037807086614173
11
0.4215835826771653
21
0.6059142913385827
0
LINE
8
BLACK
6
CONTINUOUS
10
0.4215835826771653
20
0.6059142913385827
11
0.41945
21
0.6091074409448819
0
LINE
8
BLACK
6
CONTINUOUS
10
0.41945
20
0.6091074409448819
11
0.4187007874015748
21
0.6128740157480315
0
LINE
8
BLACK
6
CONTINUOUS
10
0.4187007874015748
20
0.6128740157480315
11
0.4187007874015748
21
0.6443700787401575
0
LINE
8
BLACK
6
CONTINUOUS
10
0.4187007874015748
20
0.6443700787401575
11
0.41945
21
0.6481366535433071
0
LINE
8
BLACK
6
CONTINUOUS
10
0.41945
20
0.6481366535433071
11
0.4215835826771653
21
0.6513298031496063
0
LINE
8
BLACK
6
CONTINUOUS
10
0.4215835826771653
20
0.6513298031496063
11
0.4247767322834646
21
0.6534633858267717
0
LINE
8
BLACK
6
CONTINUOUS
10
0.4247767322834646
20
0.6534633858267717
11
0.4285433070866141
21
0.6542125984251969
0
LINE
8
BLACK
6
CONTINUOUS
10
0.4285433070866141
20
0.6542125984251969
11
0.477755905511811
21
0.6542125984251969
0
LINE
8
BLACK
6
CONTINUOUS
10
0.477755905511811
20
0.6542125984251969
11
0.4815224803149606
21
0.6534633858267717
0
LINE
8
BLACK
6
CONTINUOUS
10
1.6578216929133858
20
0.6543295275590552
11
1.6610148425196849
21
0.6521959448818897
0
LINE
8
BLACK
6
CONTINUOUS
10
1.6610148425196849
20
0.6521959448818897
11
1.6631484251968505
21
0.6490027952755906
0
LINE
8
BLACK
6
CONTINUOUS
10
1.6631484251968505
20
0.6490027952755906
11
1.6638976377952757
21
0.6452362204724409
0
LINE
8
BLACK
6
CONTINUOUS
10
1.6638976377952757
20
0.6452362204724409
11
1.6638976377952757
21
0.613740157480315
0
LINE
8
BLACK
6
CONTINUOUS
10
1.6638976377952757
20
0.613740157480315
11
1.6631484251968505
21
0.6099735826771654
0
LINE
8
BLACK
6
CONTINUOUS
10
1.6631484251968505
20
0.6099735826771654
11
1.6610148425196849
21
0.6067804330708662
0
LINE
8
BLACK
6
CONTINUOUS
10
1.6610148425196849
20
0.6067804330708662
11
1.6578216929133858
21
0.6046468503937008
0
LINE
8
BLACK
6
CONTINUOUS
10
1.6578216929133858
20
0.6046468503937008
11
1.6540551181102361
21
0.6038976377952756
0
LINE
8
BLACK
6
CONTINUOUS
10
1.6540551181102361
20
0.6038976377952756
11
1.6048425196850393
21
0.6038976377952756
0
LINE
8
BLACK
6
CONTINUOUS
10
1.6048425196850393
20
0.6038976377952756
11
1.6010759448818896
21
0.6046468503937008
0
LINE
8
BLACK
6
CONTINUOUS
10
1.6010759448818896
20
0.6046468503937008
11
1.5978827952755905
21
0.6067804330708662
0
LINE
8
BLACK
6
CONTINUOUS
10
1.5978827952755905
20
0.6067804330708662
11
1.5957492125984252
21
0.6099735826771654
0
LINE
8
BLACK
6
CONTINUOUS
10
1.5957492125984252
20
0.6099735826771654
11
1.595
21
0.613740157480315
0
LINE
8
BLACK
6
CONTINUOUS
10
1.595
20
0.613740157480315
11
1.595
21
0.6452362204724409
0
LINE
8
BLACK
6
CONTINUOUS
10
1.595
20
0.6452362204724409
11
1.5957492125984252
21
0.6490027952755906
0
LINE
8
BLACK
6
CONTINUOUS
10
1.5957492125984252
20
0.6490027952755906
11
1.5978827952755905
21
0.6521959448818897
0
LINE
8
BLACK
6
CONTINUOUS
10
1.5978827952755905
20
0.6521959448818897
11
1.6010759448818896
21
0.6543295275590552
0
LINE
8
BLACK
6
CONTINUOUS
10
1.6010759448818896
20
0.6543295275590552
11
1.6048425196850393
21
0.6550787401574804
0
LINE
8
BLACK
6
CONTINUOUS
10
1.6048425196850393
20
0.6550787401574804
11
1.6540551181102361
21
0.6550787401574804
0
LINE
8
BLACK
6
CONTINUOUS
10
1.6540551181102361
20
0.6550787401574804
11
1.6578216929133858
21
0.6543295275590552
0
LINE
8
BLACK
6
CONTINUOUS
10
2.8278216929133859
20
0.6543295275590552
11
2.8310148425196848
21
0.6521959448818897
0
LINE
8
BLACK
6
CONTINUOUS
10
2.8310148425196848
20
0.6521959448818897
11
2.8331484251968502
21
0.6490027952755906
0
LINE
8
BLACK
6
CONTINUOUS
10
2.8331484251968502
20
0.6490027952755906
11
2.8338976377952756
21
0.6452362204724409
0
LINE
8
BLACK
6
CONTINUOUS
10
2.8338976377952756
20
0.6452362204724409
11
2.8338976377952756
21
0.613740157480315
0
LINE
8
BLACK
6
CONTINUOUS
10
2.8338976377952756
20
0.613740157480315
11
2.8331484251968502
21
0.6099735826771654
0
LINE
8
BLACK
6
CONTINUOUS
10
2.8331484251968502
20
0.6099735826771654
11
2.8310148425196848
21
0.6067804330708662
0
LINE
8
BLACK
6
CONTINUOUS
10
2.8310148425196848
20
0.6067804330708662
11
2.8278216929133859
21
0.6046468503937008
0
LINE
8
BLACK
6
CONTINUOUS
10
2.8278216929133859
20
0.6046468503937008
11
2.8240551181102362
21
0.6038976377952756
0
LINE
8
BLACK
6
CONTINUOUS
10
2.8240551181102362
20
0.6038976377952756
11
2.7748425196850395
21
0.6038976377952756
0
LINE
8
BLACK
6
CONTINUOUS
10
2.7748425196850395
20
0.6038976377952756
11
2.7710759448818898
21
0.6046468503937008
0
LINE
8
BLACK
6
CONTINUOUS
10
2.7710759448818898
20
0.6046468503937008
11
2.7678827952755904
21
0.6067804330708662
0
LINE
8
BLACK
6
CONTINUOUS
10
2.7678827952755904
20
0.6067804330708662
11
2.7657492125984251
21
0.6099735826771654
0
LINE
8
BLACK
6
CONTINUOUS
10
2.7657492125984251
20
0.6099735826771654
11
2.7650000000000001
21
0.613740157480315
0
LINE
8
BLACK
6
CONTINUOUS
10
2.7650000000000001
20
0.613740157480315
11
2.7650000000000001
21
0.6452362204724409
0
LINE
8
BLACK
6
CONTINUOUS
10
2.7650000000000001
20
0.6452362204724409
11
2.7657492125984251
21
0.6490027952755906
0
LINE
8
BLACK
6
CONTINUOUS
10
2.7657492125984251
20
0.6490027952755906
11
2.7678827952755904
21
0.6521959448818897
0
LINE
8
BLACK
6
CONTINUOUS
10
2.7678827952755904
20
0.6521959448818897
11
2.7710759448818898
21
0.6543295275590552
0
LINE
8
BLACK
6
CONTINUOUS
10
2.7710759448818898
20
0.6543295275590552
11
2.7748425196850395
21
0.6550787401574804
0
LINE
8
BLACK
6
CONTINUOUS
10
2.7748425196850395
20
0.6550787401574804
11
2.8240551181102362
21
0.6550787401574804
0
LINE
8
BLACK
6
CONTINUOUS
10
2.8240551181102362
20
0.6550787401574804
11
2.8278216929133859
21
0.6543295275590552
0
LINE
8
BLACK
6
CONTINUOUS
10
0.8476642125984252
20
0.7664555118110236
11
0.8508573622047244
21
0.7643219291338582
0
LINE
8
BLACK
6
CONTINUOUS
10
0.8508573622047244
20
0.7643219291338582
11
0.8529909448818898
21
0.7611287795275591
0
LINE
8
BLACK
6
CONTINUOUS
10
0.8529909448818898
20
0.7611287795275591
11
0.853740157480315
21
0.7573622047244094
0
LINE
8
BLACK
6
CONTINUOUS
10
0.853740157480315
20
0.7573622047244094
11
0.853740157480315
21
0.6687795275590551
0
LINE
8
BLACK
6
CONTINUOUS
10
0.853740157480315
20
0.6687795275590551
11
0.8529909448818898
21
0.6650129527559056
0
LINE
8
BLACK
6
CONTINUOUS
10
0.8529909448818898
20
0.6650129527559056
11
0.8508573622047244
21
0.6618198031496063
0
LINE
8
BLACK
6
CONTINUOUS
10
0.8508573622047244
20
0.6618198031496063
11
0.8476642125984252
21
0.659686220472441
0
LINE
8
BLACK
6
CONTINUOUS
10
0.8476642125984252
20
0.659686220472441
11
0.8438976377952756
21
0.6589370078740158
0
LINE
8
BLACK
6
CONTINUOUS
10
0.8438976377952756
20
0.6589370078740158
11
0.743503937007874
21
0.6589370078740158
0
LINE
8
BLACK
6
CONTINUOUS
10
0.743503937007874
20
0.6589370078740158
11
0.7397373622047244
21
0.659686220472441
0
LINE
8
BLACK
6
CONTINUOUS
10
0.7397373622047244
20
0.659686220472441
11
0.7365442125984252
21
0.6618198031496063
0
LINE
8
BLACK
6
CONTINUOUS
10
0.7365442125984252
20
0.6618198031496063
11
0.7344106299212598
21
0.6650129527559056
0
LINE
8
BLACK
6
CONTINUOUS
10
0.7344106299212598
20
0.6650129527559056
11
0.7336614173228346
21
0.6687795275590551
0
LINE
8
BLACK
6
CONTINUOUS
10
0.7336614173228346
20
0.6687795275590551
11
0.7336614173228346
21
0.7573622047244094
0
LINE
8
BLACK
6
CONTINUOUS
10
0.7336614173228346
20
0.7573622047244094
11
0.7344106299212598
21
0.7611287795275591
0
LINE
8
BLACK
6
CONTINUOUS
10
0.7344106299212598
20
0.7611287795275591
11
0.7365442125984252
21
0.7643219291338582
0
LINE
8
BLACK
6
CONTINUOUS
10
0.7365442125984252
20
0.7643219291338582
11
0.7397373622047244
21
0.7664555118110236
0
LINE
8
BLACK
6
CONTINUOUS
10
0.7397373622047244
20
0.7664555118110236
11
0.743503937007874
21
0.7672047244094488
0
LINE
8
BLACK
6
CONTINUOUS
10
0.743503937007874
20
0.7672047244094488
11
0.8438976377952756
21
0.7672047244094488
0
LINE
8
BLACK
6
CONTINUOUS
10
0.8438976377952756
20
0.7672047244094488
11
0.8476642125984252
21
0.7664555118110236
0
LINE
8
BLACK
6
CONTINUOUS
10
0.9795539763779527
20
0.7664555118110236
11
0.982747125984252
21
0.7643219291338582
0
LINE
8
BLACK
6
CONTINUOUS
10
0.982747125984252
20
0.7643219291338582
11
0.9848807086614173
21
0.7611287795275591
0
LINE
8
BLACK
6
CONTINUOUS
10
0.9848807086614173
20
0.7611287795275591
11
0.9856299212598425
21
0.7573622047244094
0
LINE
8
BLACK
6
CONTINUOUS
10
0.9856299212598425
20
0.7573622047244094
11
0.9856299212598425
21
0.6687795275590551
0
LINE
8
BLACK
6
CONTINUOUS
10
0.9856299212598425
20
0.6687795275590551
11
0.9848807086614173
21
0.6650129527559056
0
LINE
8
BLACK
6
CONTINUOUS
10
0.9848807086614173
20
0.6650129527559056
11
0.982747125984252
21
0.6618198031496063
0
LINE
8
BLACK
6
CONTINUOUS
10
0.982747125984252
20
0.6618198031496063
11
0.9795539763779527
21
0.659686220472441
0
LINE
8
BLACK
6
CONTINUOUS
10
0.9795539763779527
20
0.659686220472441
11
0.9757874015748031
21
0.6589370078740158
0
LINE
8
BLACK
6
CONTINUOUS
10
0.9757874015748031
20
0.6589370078740158
11
0.8753937007874015
21
0.6589370078740158
0
LINE
8
BLACK
6
CONTINUOUS
10
0.8753937007874015
20
0.6589370078740158
11
0.871627125984252
21
0.659686220472441
0
LINE
8
BLACK
6
CONTINUOUS
10
0.871627125984252
20
0.659686220472441
11
0.8684339763779527
21
0.6618198031496063
0
LINE
8
BLACK
6
CONTINUOUS
10
0.8684339763779527
20
0.6618198031496063
11
0.8663003937007874
21
0.6650129527559056
0
LINE
8
BLACK
6
CONTINUOUS
10
0.8663003937007874
20
0.6650129527559056
11
0.8655511811023622
21
0.6687795275590551
0
LINE
8
BLACK
6
CONTINUOUS
10
0.8655511811023622
20
0.6687795275590551
11
0.8655511811023622
21
0.7573622047244094
0
LINE
8
BLACK
6
CONTINUOUS
10
0.8655511811023622
20
0.7573622047244094
11
0.8663003937007874
21
0.7611287795275591
0
LINE
8
BLACK
6
CONTINUOUS
10
0.8663003937007874
20
0.7611287795275591
11
0.8684339763779527
21
0.7643219291338582
0
LINE
8
BLACK
6
CONTINUOUS
10
0.8684339763779527
20
0.7643219291338582
11
0.871627125984252
21
0.7664555118110236
0
LINE
8
BLACK
6
CONTINUOUS
10
0.871627125984252
20
0.7664555118110236
11
0.8753937007874015
21
0.7672047244094488
0
LINE
8
BLACK
6
CONTINUOUS
10
0.8753937007874015
20
0.7672047244094488
11
0.9757874015748031
21
0.7672047244094488
0
LINE
8
BLACK
6
CONTINUOUS
10
0.9757874015748031
20
0.7672047244094488
11
0.9795539763779527
21
0.7664555118110236
0
LINE
8
BLACK
6
CONTINUOUS
10
2.0239634251968504
20
0.7673216535433071
11
2.0271565748031497
21
0.7651880708661417
0
LINE
8
BLACK
6
CONTINUOUS
10
2.0271565748031497
20
0.7651880708661417
11
2.029290157480315
21
0.7619949212598425
0
LINE
8
BLACK
6
CONTINUOUS
10
2.029290157480315
20
0.7619949212598425
11
2.03003937007874
21
0.7582283464566929
0
LINE
8
BLACK
6
CONTINUOUS
10
2.03003937007874
20
0.7582283464566929
11
2.03003937007874
21
0.6696456692913386
0
LINE
8
BLACK
6
CONTINUOUS
10
2.03003937007874
20
0.6696456692913386
11
2.029290157480315
21
0.6658790944881889
0
LINE
8
BLACK
6
CONTINUOUS
10
2.029290157480315
20
0.6658790944881889
11
2.0271565748031497
21
0.6626859448818897
0
LINE
8
BLACK
6
CONTINUOUS
10
2.0271565748031497
20
0.6626859448818897
11
2.0239634251968504
21
0.6605523622047244
0
LINE
8
BLACK
6
CONTINUOUS
10
2.0239634251968504
20
0.6605523622047244
11
2.0201968503937007
21
0.6598031496062992
0
LINE
8
BLACK
6
CONTINUOUS
10
2.0201968503937007
20
0.6598031496062992
11
1.9198031496062993
21
0.6598031496062992
0
LINE
8
BLACK
6
CONTINUOUS
10
1.9198031496062993
20
0.6598031496062992
11
1.9160365748031496
21
0.6605523622047244
0
LINE
8
BLACK
6
CONTINUOUS
10
1.9160365748031496
20
0.6605523622047244
11
1.9128434251968502
21
0.6626859448818897
0
LINE
8
BLACK
6
CONTINUOUS
10
1.9128434251968502
20
0.6626859448818897
11
1.9107098425196849
21
0.6658790944881889
0
LINE
8
BLACK
6
CONTINUOUS
10
1.9107098425196849
20
0.6658790944881889
11
1.9099606299212597
21
0.6696456692913386
0
LINE
8
BLACK
6
CONTINUOUS
10
1.9099606299212597
20
0.6696456692913386
11
1.9099606299212597
21
0.7582283464566929
0
LINE
8
BLACK
6
CONTINUOUS
10
1.9099606299212597
20
0.7582283464566929
11
1.9107098425196849
21
0.7619949212598425
0
LINE
8
BLACK
6
CONTINUOUS
10
1.9107098425196849
20
0.7619949212598425
11
1.9128434251968502
21
0.7651880708661417
0
LINE
8
BLACK
6
CONTINUOUS
10
1.9128434251968502
20
0.7651880708661417
11
1.9160365748031496
21
0.7673216535433071
0
LINE
8
BLACK
6
CONTINUOUS
10
1.9160365748031496
20
0.7673216535433071
11
1.9198031496062993
21
0.7680708661417323
0
LINE
8
BLACK
6
CONTINUOUS
10
1.9198031496062993
20
0.7680708661417323
11
2.0201968503937007
21
0.7680708661417323
0
LINE
8
BLACK
6
CONTINUOUS
10
2.0201968503937007
20
0.7680708661417323
11
2.0239634251968504
21
0.7673216535433071
0
LINE
8
BLACK
6
CONTINUOUS
10
2.1558531889763781
20
0.7673216535433071
11
2.159046338582677
21
0.7651880708661417
0
LINE
8
BLACK
6
CONTINUOUS
10
2.159046338582677
20
0.7651880708661417
11
2.1611799212598424
21
0.7619949212598425
0
LINE
8
BLACK
6
CONTINUOUS
10
2.1611799212598424
20
0.7619949212598425
11
2.1619291338582678
21
0.7582283464566929
0
LINE
8
BLACK
6
CONTINUOUS
10
2.1619291338582678
20
0.7582283464566929
11
2.1619291338582678
21
0.6696456692913386
0
LINE
8
BLACK
6
CONTINUOUS
10
2.1619291338582678
20
0.6696456692913386
11
2.1611799212598424
21
0.6658790944881889
0
LINE
8
BLACK
6
CONTINUOUS
10
2.1611799212598424
20
0.6658790944881889
11
2.159046338582677
21
0.6626859448818897
0
LINE
8
BLACK
6
CONTINUOUS
10
2.159046338582677
20
0.6626859448818897
11
2.1558531889763781
21
0.6605523622047244
0
LINE
8
BLACK
6
CONTINUOUS
10
2.1558531889763781
20
0.6605523622047244
11
2.1520866141732284
21
0.6598031496062992
0
LINE
8
BLACK
6
CONTINUOUS
10
2.1520866141732284
20
0.6598031496062992
11
2.0516929133858266
21
0.6598031496062992
0
LINE
8
BLACK
6
CONTINUOUS
10
2.0516929133858266
20
0.6598031496062992
11
2.0479263385826769
21
0.6605523622047244
0
LINE
8
BLACK
6
CONTINUOUS
10
2.0479263385826769
20
0.6605523622047244
11
2.044733188976378
21
0.6626859448818897
0
LINE
8
BLACK
6
CONTINUOUS
10
2.044733188976378
20
0.6626859448818897
11
2.0425996062992127
21
0.6658790944881889
0
LINE
8
BLACK
6
CONTINUOUS
10
2.0425996062992127
20
0.6658790944881889
11
2.0418503937007872
21
0.6696456692913386
0
LINE
8
BLACK
6
CONTINUOUS
10
2.0418503937007872
20
0.6696456692913386
11
2.0418503937007872
21
0.7582283464566929
0
LINE
8
BLACK
6
CONTINUOUS
10
2.0418503937007872
20
0.7582283464566929
11
2.0425996062992127
21
0.7619949212598425
0
LINE
8
BLACK
6
CONTINUOUS
10
2.0425996062992127
20
0.7619949212598425
11
2.044733188976378
21
0.7651880708661417
0
LINE
8
BLACK
6
CONTINUOUS
10
2.044733188976378
20
0.7651880708661417
11
2.0479263385826769
21
0.7673216535433071
0
LINE
8
BLACK
6
CONTINUOUS
10
2.0479263385826769
20
0.7673216535433071
11
2.0516929133858266
21
0.7680708661417323
0
LINE
8
BLACK
6
CONTINUOUS
10
2.0516929133858266
20
0.7680708661417323
11
2.1520866141732284
21
0.7680708661417323
0
LINE
8
BLACK
6
CONTINUOUS
10
2.1520866141732284
20
0.7680708661417323
11
2.1558531889763781
21
0.7673216535433071
0
LINE
8
BLACK
6
CONTINUOUS
10
3.1939634251968503
20
0.7673216535433071
11
3.1971565748031496
21
0.7651880708661417
0
LINE
8
BLACK
6
CONTINUOUS
10
3.1971565748031496
20
0.7651880708661417
11
3.199290157480315
21
0.7619949212598425
0
LINE
8
BLACK
6
CONTINUOUS
10
3.199290157480315
20
0.7619949212598425
11
3.20003937007874
21
0.7582283464566929
0
LINE
8
BLACK
6
CONTINUOUS
10
3.20003937007874
20
0.7582283464566929
11
3.20003937007874
21
0.6696456692913386
0
LINE
8
BLACK
6
CONTINUOUS
10
3.20003937007874
20
0.6696456692913386
11
3.199290157480315
21
0.6658790944881889
0
LINE
8
BLACK
6
CONTINUOUS
10
3.199290157480315
20
0.6658790944881889
11
3.1971565748031496
21
0.6626859448818897
0
LINE
8
BLACK
6
CONTINUOUS
10
3.1971565748031496
20
0.6626859448818897
11
3.1939634251968503
21
0.6605523622047244
0
LINE
8
BLACK
6
CONTINUOUS
10
3.1939634251968503
20
0.6605523622047244
11
3.1901968503937006
21
0.6598031496062992
0
LINE
8
BLACK
6
CONTINUOUS
10
3.1901968503937006
20
0.6598031496062992
11
3.0898031496062992
21
0.6598031496062992
0
LINE
8
BLACK
6
CONTINUOUS
10
3.0898031496062992
20
0.6598031496062992
11
3.0860365748031495
21
0.6605523622047244
0
LINE
8
BLACK
6
CONTINUOUS
10
3.0860365748031495
20
0.6605523622047244
11
3.0828434251968502
21
0.6626859448818897
0
LINE
8
BLACK
6
CONTINUOUS
10
3.0828434251968502
20
0.6626859448818897
11
3.0807098425196848
21
0.6658790944881889
0
LINE
8
BLACK
6
CONTINUOUS
10
3.0807098425196848
20
0.6658790944881889
11
3.0799606299212599
21
0.6696456692913386
0
LINE
8
BLACK
6
CONTINUOUS
10
3.0799606299212599
20
0.6696456692913386
11
3.0799606299212599
21
0.7582283464566929
0
LINE
8
BLACK
6
CONTINUOUS
10
3.0799606299212599
20
0.7582283464566929
11
3.0807098425196848
21
0.7619949212598425
0
LINE
8
BLACK
6
CONTINUOUS
10
3.0807098425196848
20
0.7619949212598425
11
3.0828434251968502
21
0.7651880708661417
0
LINE
8
BLACK
6
CONTINUOUS
10
3.0828434251968502
20
0.7651880708661417
11
3.0860365748031495
21
0.7673216535433071
0
LINE
8
BLACK
6
CONTINUOUS
10
3.0860365748031495
20
0.7673216535433071
11
3.0898031496062992
21
0.7680708661417323
0
LINE
8
BLACK
6
CONTINUOUS
10
3.0898031496062992
20
0.7680708661417323
11
3.1901968503937006
21
0.7680708661417323
0
LINE
8
BLACK
6
CONTINUOUS
10
3.1901968503937006
20
0.7680708661417323
11
3.1939634251968503
21
0.7673216535433071
0
LINE
8
BLACK
6
CONTINUOUS
10
3.325853188976378
20
0.7673216535433071
11
3.329046338582677
21
0.7651880708661417
0
LINE
8
BLACK
6
CONTINUOUS
10
3.329046338582677
20
0.7651880708661417
11
3.3311799212598423
21
0.7619949212598425
0
LINE
8
BLACK
6
CONTINUOUS
10
3.3311799212598423
20
0.7619949212598425
11
3.3319291338582677
21
0.7582283464566929
0
LINE
8
BLACK
6
CONTINUOUS
10
3.3319291338582677
20
0.7582283464566929
11
3.3319291338582677
21
0.6696456692913386
0
LINE
8
BLACK
6
CONTINUOUS
10
3.3319291338582677
20
0.6696456692913386
11
3.3311799212598423
21
0.6658790944881889
0
LINE
8
BLACK
6
CONTINUOUS
10
3.3311799212598423
20
0.6658790944881889
11
3.329046338582677
21
0.6626859448818897
0
LINE
8
BLACK
6
CONTINUOUS
10
3.329046338582677
20
0.6626859448818897
11
3.325853188976378
21
0.6605523622047244
0
LINE
8
BLACK
6
CONTINUOUS
10
3.325853188976378
20
0.6605523622047244
11
3.3220866141732284
21
0.6598031496062992
0
LINE
8
BLACK
6
CONTINUOUS
10
3.3220866141732284
20
0.6598031496062992
11
3.2216929133858265
21
0.6598031496062992
0
LINE
8
BLACK
6
CONTINUOUS
10
3.2216929133858265
20
0.6598031496062992
11
3.2179263385826773
21
0.6605523622047244
0
LINE
8
BLACK
6
CONTINUOUS
10
3.2179263385826773
20
0.6605523622047244
11
3.2147331889763779
21
0.6626859448818897
0
LINE
8
BLACK
6
CONTINUOUS
10
3.2147331889763779
20
0.6626859448818897
11
3.2125996062992126
21
0.6658790944881889
0
LINE
8
BLACK
6
CONTINUOUS
10
3.2125996062992126
20
0.6658790944881889
11
3.2118503937007872
21
0.6696456692913386
0
LINE
8
BLACK
6
CONTINUOUS
10
3.2118503937007872
20
0.6696456692913386
11
3.2118503937007872
21
0.7582283464566929
0
LINE
8
BLACK
6
CONTINUOUS
10
3.2118503937007872
20
0.7582283464566929
11
3.2125996062992126
21
0.7619949212598425
0
LINE
8
BLACK
6
CONTINUOUS
10
3.2125996062992126
20
0.7619949212598425
11
3.2147331889763779
21
0.7651880708661417
0
LINE
8
BLACK
6
CONTINUOUS
10
3.2147331889763779
20
0.7651880708661417
11
3.2179263385826773
21
0.7673216535433071
0
LINE
8
BLACK
6
CONTINUOUS
10
3.2179263385826773
20
0.7673216535433071
11
3.2216929133858265
21
0.7680708661417323
0
LINE
8
BLACK
6
CONTINUOUS
10
3.2216929133858265
20
0.7680708661417323
11
3.3220866141732284
21
0.7680708661417323
0
LINE
8
BLACK
6
CONTINUOUS
10
3.3220866141732284
20
0.7680708661417323
11
3.325853188976378
21
0.7673216535433071
0
LINE
8
BLACK
6
CONTINUOUS
10
0.350616968503937
20
0.7764948818897638
11
0.3538101181102362
21
0.7743612992125984
0
LINE
8
BLACK
6
CONTINUOUS
10
0.3538101181102362
20
0.7743612992125984
11
0.3559437007874016
21
0.7711681496062992
0
LINE
8
BLACK
6
CONTINUOUS
10
0.3559437007874016
20
0.7711681496062992
11
0.3566929133858268
21
0.7674015748031496
0
LINE
8
BLACK
6
CONTINUOUS
10
0.3566929133858268
20
0.7674015748031496
11
0.3566929133858268
21
0.7181889763779528
0
LINE
8
BLACK
6
CONTINUOUS
10
0.3566929133858268
20
0.7181889763779528
11
0.3559437007874016
21
0.7144224015748031
0
LINE
8
BLACK
6
CONTINUOUS
10
0.3559437007874016
20
0.7144224015748031
11
0.3538101181102362
21
0.711229251968504
0
LINE
8
BLACK
6
CONTINUOUS
10
0.3538101181102362
20
0.711229251968504
11
0.350616968503937
21
0.7090956692913386
0
LINE
8
BLACK
6
CONTINUOUS
10
0.350616968503937
20
0.7090956692913386
11
0.3468503937007874
21
0.7083464566929134
0
LINE
8
BLACK
6
CONTINUOUS
10
0.3468503937007874
20
0.7083464566929134
11
0.3153543307086614
21
0.7083464566929134
0
LINE
8
BLACK
6
CONTINUOUS
10
0.3153543307086614
20
0.7083464566929134
11
0.3115877559055118
21
0.7090956692913386
0
LINE
8
BLACK
6
CONTINUOUS
10
0.3115877559055118
20
0.7090956692913386
11
0.3083946062992126
21
0.711229251968504
0
LINE
8
BLACK
6
CONTINUOUS
10
0.3083946062992126
20
0.711229251968504
11
0.3062610236220472
21
0.7144224015748031
0
LINE
8
BLACK
6
CONTINUOUS
10
0.3062610236220472
20
0.7144224015748031
11
0.305511811023622
21
0.7181889763779528
0
LINE
8
BLACK
6
CONTINUOUS
10
0.305511811023622
20
0.7181889763779528
11
0.305511811023622
21
0.7674015748031496
0
LINE
8
BLACK
6
CONTINUOUS
10
0.305511811023622
20
0.7674015748031496
11
0.3062610236220472
21
0.7711681496062992
0
LINE
8
BLACK
6
CONTINUOUS
10
0.3062610236220472
20
0.7711681496062992
11
0.3083946062992126
21
0.7743612992125984
0
LINE
8
BLACK
6
CONTINUOUS
10
0.3083946062992126
20
0.7743612992125984
11
0.3115877559055118
21
0.7764948818897638
0
LINE
8
BLACK
6
CONTINUOUS
10
0.3115877559055118
20
0.7764948818897638
11
0.3153543307086614
21
0.777244094488189
0
LINE
8
BLACK
6
CONTINUOUS
10
0.3153543307086614
20
0.777244094488189
11
0.3468503937007874
21
0.777244094488189
0
LINE
8
BLACK
6
CONTINUOUS
10
0.3468503937007874
20
0.777244094488189
11
0.350616968503937
21
0.7764948818897638
0
LINE
8
BLACK
6
CONTINUOUS
10
0.4726642125984252
20
0.7764948818897638
11
0.4758573622047244
21
0.7743612992125984
0
LINE
8
BLACK
6
CONTINUOUS
10
0.4758573622047244
20
0.7743612992125984
11
0.4779909448818898
21
0.7711681496062992
0
LINE
8
BLACK
6
CONTINUOUS
10
0.4779909448818898
20
0.7711681496062992
11
0.478740157480315
21
0.7674015748031496
0
LINE
8
BLACK
6
CONTINUOUS
10
0.478740157480315
20
0.7674015748031496
11
0.478740157480315
21
0.7181889763779528
0
LINE
8
BLACK
6
CONTINUOUS
10
0.478740157480315
20
0.7181889763779528
11
0.4779909448818898
21
0.7144224015748031
0
LINE
8
BLACK
6
CONTINUOUS
10
0.4779909448818898
20
0.7144224015748031
11
0.4758573622047244
21
0.711229251968504
0
LINE
8
BLACK
6
CONTINUOUS
10
0.4758573622047244
20
0.711229251968504
11
0.4726642125984252
21
0.7090956692913386
0
LINE
8
BLACK
6
CONTINUOUS
10
0.4726642125984252
20
0.7090956692913386
11
0.4688976377952756
21
0.7083464566929134
0
LINE
8
BLACK
6
CONTINUOUS
10
0.4688976377952756
20
0.7083464566929134
11
0.4374015748031496
21
0.7083464566929134
0
LINE
8
BLACK
6
CONTINUOUS
10
0.4374015748031496
20
0.7083464566929134
11
0.433635
21
0.7090956692913386
0
LINE
8
BLACK
6
CONTINUOUS
10
0.433635
20
0.7090956692913386
11
0.4304418503937008
21
0.711229251968504
0
LINE
8
BLACK
6
CONTINUOUS
10
0.4304418503937008
20
0.711229251968504
11
0.4283082677165354
21
0.7144224015748031
0
LINE
8
BLACK
6
CONTINUOUS
10
0.4283082677165354
20
0.7144224015748031
11
0.4275590551181102
21
0.7181889763779528
0
LINE
8
BLACK
6
CONTINUOUS
10
0.4275590551181102
20
0.7181889763779528
11
0.4275590551181102
21
0.7674015748031496
0
LINE
8
BLACK
6
CONTINUOUS
10
0.4275590551181102
20
0.7674015748031496
11
0.4283082677165354
21
0.7711681496062992
0
LINE
8
BLACK
6
CONTINUOUS
10
0.4283082677165354
20
0.7711681496062992
11
0.4304418503937008
21
0.7743612992125984
0
LINE
8
BLACK
6
CONTINUOUS
10
0.4304418503937008
20
0.7743612992125984
11
0.433635
21
0.7764948818897638
0
LINE
8
BLACK
6
CONTINUOUS
10
0.433635
20
0.7764948818897638
11
0.4374015748031496
21
0.777244094488189
0
LINE
8
BLACK
6
CONTINUOUS
10
0.4374015748031496
20
0.777244094488189
11
0.4688976377952756
21
0.777244094488189
0
LINE
8
BLACK
6
CONTINUOUS
10
0.4688976377952756
20
0.777244094488189
11
0.4726642125984252
21
0.7764948818897638
0
LINE
8
BLACK
6
CONTINUOUS
10
1.5269161811023622
20
0.7773610236220472
11
1.5301093307086613
21
0.7752274409448818
0
LINE
8
BLACK
6
CONTINUOUS
10
1.5301093307086613
20
0.7752274409448818
11
1.5322429133858266
21
0.7720342913385827
0
LINE
8
BLACK
6
CONTINUOUS
10
1.5322429133858266
20
0.7720342913385827
11
1.5329921259842518
21
0.768267716535433
0
LINE
8
BLACK
6
CONTINUOUS
10
1.5329921259842518
20
0.768267716535433
11
1.5329921259842518
21
0.7190551181102363
0
LINE
8
BLACK
6
CONTINUOUS
10
1.5329921259842518
20
0.7190551181102363
11
1.5322429133858266
21
0.7152885433070866
0
LINE
8
BLACK
6
CONTINUOUS
10
1.5322429133858266
20
0.7152885433070866
11
1.5301093307086613
21
0.7120953937007873
0
LINE
8
BLACK
6
CONTINUOUS
10
1.5301093307086613
20
0.7120953937007873
11
1.5269161811023622
21
0.709961811023622
0
LINE
8
BLACK
6
CONTINUOUS
10
1.5269161811023622
20
0.709961811023622
11
1.5231496062992125
21
0.7092125984251968
0
LINE
8
BLACK
6
CONTINUOUS
10
1.5231496062992125
20
0.7092125984251968
11
1.4916535433070865
21
0.7092125984251968
0
LINE
8
BLACK
6
CONTINUOUS
10
1.4916535433070865
20
0.7092125984251968
11
1.4878869685039369
21
0.709961811023622
0
LINE
8
BLACK
6
CONTINUOUS
10
1.4878869685039369
20
0.709961811023622
11
1.4846938188976377
21
0.7120953937007873
0
LINE
8
BLACK
6
CONTINUOUS
10
1.4846938188976377
20
0.7120953937007873
11
1.4825602362204724
21
0.7152885433070866
0
LINE
8
BLACK
6
CONTINUOUS
10
1.4825602362204724
20
0.7152885433070866
11
1.4818110236220472
21
0.7190551181102363
0
LINE
8
BLACK
6
CONTINUOUS
10
1.4818110236220472
20
0.7190551181102363
11
1.4818110236220472
21
0.768267716535433
0
LINE
8
BLACK
6
CONTINUOUS
10
1.4818110236220472
20
0.768267716535433
11
1.4825602362204724
21
0.7720342913385827
0
LINE
8
BLACK
6
CONTINUOUS
10
1.4825602362204724
20
0.7720342913385827
11
1.4846938188976377
21
0.7752274409448818
0
LINE
8
BLACK
6
CONTINUOUS
10
1.4846938188976377
20
0.7752274409448818
11
1.4878869685039369
21
0.7773610236220472
0
LINE
8
BLACK
6
CONTINUOUS
10
1.4878869685039369
20
0.7773610236220472
11
1.4916535433070865
21
0.7781102362204724
0
LINE
8
BLACK
6
CONTINUOUS
10
1.4916535433070865
20
0.7781102362204724
11
1.5231496062992125
21
0.7781102362204724
0
LINE
8
BLACK
6
CONTINUOUS
10
1.5231496062992125
20
0.7781102362204724
11
1.5269161811023622
21
0.7773610236220472
0
LINE
8
BLACK
6
CONTINUOUS
10
1.6489634251968504
20
0.7773610236220472
11
1.6521565748031495
21
0.7752274409448818
0
LINE
8
BLACK
6
CONTINUOUS
10
1.6521565748031495
20
0.7752274409448818
11
1.6542901574803148
21
0.7720342913385827
0
LINE
8
BLACK
6
CONTINUOUS
10
1.6542901574803148
20
0.7720342913385827
11
1.65503937007874
21
0.768267716535433
0
LINE
8
BLACK
6
CONTINUOUS
10
1.65503937007874
20
0.768267716535433
11
1.65503937007874
21
0.7190551181102363
0
LINE
8
BLACK
6
CONTINUOUS
10
1.65503937007874
20
0.7190551181102363
11
1.6542901574803148
21
0.7152885433070866
0
LINE
8
BLACK
6
CONTINUOUS
10
1.6542901574803148
20
0.7152885433070866
11
1.6521565748031495
21
0.7120953937007873
0
LINE
8
BLACK
6
CONTINUOUS
10
1.6521565748031495
20
0.7120953937007873
11
1.6489634251968504
21
0.709961811023622
0
LINE
8
BLACK
6
CONTINUOUS
10
1.6489634251968504
20
0.709961811023622
11
1.6451968503937007
21
0.7092125984251968
0
LINE
8
BLACK
6
CONTINUOUS
10
1.6451968503937007
20
0.7092125984251968
11
1.6137007874015747
21
0.7092125984251968
0
LINE
8
BLACK
6
CONTINUOUS
10
1.6137007874015747
20
0.7092125984251968
11
1.6099342125984251
21
0.709961811023622
0
LINE
8
BLACK
6
CONTINUOUS
10
1.6099342125984251
20
0.709961811023622
11
1.6067410629921259
21
0.7120953937007873
0
LINE
8
BLACK
6
CONTINUOUS
10
1.6067410629921259
20
0.7120953937007873
11
1.6046074803149606
21
0.7152885433070866
0
LINE
8
BLACK
6
CONTINUOUS
10
1.6046074803149606
20
0.7152885433070866
11
1.6038582677165354
21
0.7190551181102363
0
LINE
8
BLACK
6
CONTINUOUS
10
1.6038582677165354
20
0.7190551181102363
11
1.6038582677165354
21
0.768267716535433
0
LINE
8
BLACK
6
CONTINUOUS
10
1.6038582677165354
20
0.768267716535433
11
1.6046074803149606
21
0.7720342913385827
0
LINE
8
BLACK
6
CONTINUOUS
10
1.6046074803149606
20
0.7720342913385827
11
1.6067410629921259
21
0.7752274409448818
0
LINE
8
BLACK
6
CONTINUOUS
10
1.6067410629921259
20
0.7752274409448818
11
1.6099342125984251
21
0.7773610236220472
0
LINE
8
BLACK
6
CONTINUOUS
10
1.6099342125984251
20
0.7773610236220472
11
1.6137007874015747
21
0.7781102362204724
0
LINE
8
BLACK
6
CONTINUOUS
10
1.6137007874015747
20
0.7781102362204724
11
1.6451968503937007
21
0.7781102362204724
0
LINE
8
BLACK
6
CONTINUOUS
10
1.6451968503937007
20
0.7781102362204724
11
1.6489634251968504
21
0.7773610236220472
0
LINE
8
BLACK
6
CONTINUOUS
10
2.6969161811023623
20
0.7773610236220472
11
2.7001093307086612
21
0.7752274409448818
0
LINE
8
BLACK
6
CONTINUOUS
10
2.7001093307086612
20
0.7752274409448818
11
2.7022429133858266
21
0.7720342913385827
0
LINE
8
BLACK
6
CONTINUOUS
10
2.7022429133858266
20
0.7720342913385827
11
2.702992125984252
21
0.768267716535433
0
LINE
8
BLACK
6
CONTINUOUS
10
2.702992125984252
20
0.768267716535433
11
2.702992125984252
21
0.7190551181102363
0
LINE
8
BLACK
6
CONTINUOUS
10
2.702992125984252
20
0.7190551181102363
11
2.7022429133858266
21
0.7152885433070866
0
LINE
8
BLACK
6
CONTINUOUS
10
2.7022429133858266
20
0.7152885433070866
11
2.7001093307086612
21
0.7120953937007873
0
LINE
8
BLACK
6
CONTINUOUS
10
2.7001093307086612
20
0.7120953937007873
11
2.6969161811023623
21
0.709961811023622
0
LINE
8
BLACK
6
CONTINUOUS
10
2.6969161811023623
20
0.709961811023622
11
2.6931496062992126
21
0.7092125984251968
0
LINE
8
BLACK
6
CONTINUOUS
10
2.6931496062992126
20
0.7092125984251968
11
2.6616535433070867
21
0.7092125984251968
0
LINE
8
BLACK
6
CONTINUOUS
10
2.6616535433070867
20
0.7092125984251968
11
2.657886968503937
21
0.709961811023622
0
LINE
8
BLACK
6
CONTINUOUS
10
2.657886968503937
20
0.709961811023622
11
2.6546938188976377
21
0.7120953937007873
0
LINE
8
BLACK
6
CONTINUOUS
10
2.6546938188976377
20
0.7120953937007873
11
2.6525602362204723
21
0.7152885433070866
0
LINE
8
BLACK
6
CONTINUOUS
10
2.6525602362204723
20
0.7152885433070866
11
2.6518110236220473
21
0.7190551181102363
0
LINE
8
BLACK
6
CONTINUOUS
10
2.6518110236220473
20
0.7190551181102363
11
2.6518110236220473
21
0.768267716535433
0
LINE
8
BLACK
6
CONTINUOUS
10
2.6518110236220473
20
0.768267716535433
11
2.6525602362204723
21
0.7720342913385827
0
LINE
8
BLACK
6
CONTINUOUS
10
2.6525602362204723
20
0.7720342913385827
11
2.6546938188976377
21
0.7752274409448818
0
LINE
8
BLACK
6
CONTINUOUS
10
2.6546938188976377
20
0.7752274409448818
11
2.657886968503937
21
0.7773610236220472
0
LINE
8
BLACK
6
CONTINUOUS
10
2.657886968503937
20
0.7773610236220472
11
2.6616535433070867
21
0.7781102362204724
0
LINE
8
BLACK
6
CONTINUOUS
10
2.6616535433070867
20
0.7781102362204724
11
2.6931496062992126
21
0.7781102362204724
0
LINE
8
BLACK
6
CONTINUOUS
10
2.6931496062992126
20
0.7781102362204724
11
2.6969161811023623
21
0.7773610236220472
0
LINE
8
BLACK
6
CONTINUOUS
10
2.8189634251968503
20
0.7773610236220472
11
2.8221565748031496
21
0.7752274409448818
0
LINE
8
BLACK
6
CONTINUOUS
10
2.8221565748031496
20
0.7752274409448818
11
2.824290157480315
21
0.7720342913385827
0
LINE
8
BLACK
6
CONTINUOUS
10
2.824290157480315
20
0.7720342913385827
11
2.82503937007874
21
0.768267716535433
0
LINE
8
BLACK
6
CONTINUOUS
10
2.82503937007874
20
0.768267716535433
11
2.82503937007874
21
0.7190551181102363
0
LINE
8
BLACK
6
CONTINUOUS
10
2.82503937007874
20
0.7190551181102363
11
2.824290157480315
21
0.7152885433070866
0
LINE
8
BLACK
6
CONTINUOUS
10
2.824290157480315
20
0.7152885433070866
11
2.8221565748031496
21
0.7120953937007873
0
LINE
8
BLACK
6
CONTINUOUS
10
2.8221565748031496
20
0.7120953937007873
11
2.8189634251968503
21
0.709961811023622
0
LINE
8
BLACK
6
CONTINUOUS
10
2.8189634251968503
20
0.709961811023622
11
2.8151968503937006
21
0.7092125984251968
0
LINE
8
BLACK
6
CONTINUOUS
10
2.8151968503937006
20
0.7092125984251968
11
2.7837007874015747
21
0.7092125984251968
0
LINE
8
BLACK
6
CONTINUOUS
10
2.7837007874015747
20
0.7092125984251968
11
2.779934212598425
21
0.709961811023622
0
LINE
8
BLACK
6
CONTINUOUS
10
2.779934212598425
20
0.709961811023622
11
2.7767410629921261
21
0.7120953937007873
0
LINE
8
BLACK
6
CONTINUOUS
10
2.7767410629921261
20
0.7120953937007873
11
2.7746074803149607
21
0.7152885433070866
0
LINE
8
BLACK
6
CONTINUOUS
10
2.7746074803149607
20
0.7152885433070866
11
2.7738582677165353
21
0.7190551181102363
0
LINE
8
BLACK
6
CONTINUOUS
10
2.7738582677165353
20
0.7190551181102363
11
2.7738582677165353
21
0.768267716535433
0
LINE
8
BLACK
6
CONTINUOUS
10
2.7738582677165353
20
0.768267716535433
11
2.7746074803149607
21
0.7720342913385827
0
LINE
8
BLACK
6
CONTINUOUS
10
2.7746074803149607
20
0.7720342913385827
11
2.7767410629921261
21
0.7752274409448818
0
LINE
8
BLACK
6
CONTINUOUS
10
2.7767410629921261
20
0.7752274409448818
11
2.779934212598425
21
0.7773610236220472
0
LINE
8
BLACK
6
CONTINUOUS
10
2.779934212598425
20
0.7773610236220472
11
2.7837007874015747
21
0.7781102362204724
0
LINE
8
BLACK
6
CONTINUOUS
10
2.7837007874015747
20
0.7781102362204724
11
2.8151968503937006
21
0.7781102362204724
0
LINE
8
BLACK
6
CONTINUOUS
10
2.8151968503937006
20
0.7781102362204724
11
2.8189634251968503
21
0.7773610236220472
0
LINE
8
BLACK
6
CONTINUOUS
10
0.6488453149606299
20
0.7656681102362205
11
0.6520384645669292
21
0.7635345275590552
0
LINE
8
BLACK
6
CONTINUOUS
10
0.6520384645669292
20
0.7635345275590552
11
0.6541720472440945
21
0.7603413779527559
0
LINE
8
BLACK
6
CONTINUOUS
10
0.6541720472440945
20
0.7603413779527559
11
0.6549212598425197
21
0.7565748031496062
0
LINE
8
BLACK
6
CONTINUOUS
10
0.6549212598425197
20
0.7565748031496062
11
0.6549212598425197
21
0.729015748031496
0
LINE
8
BLACK
6
CONTINUOUS
10
0.6549212598425197
20
0.729015748031496
11
0.6541720472440945
21
0.7252491732283465
0
LINE
8
BLACK
6
CONTINUOUS
10
0.6541720472440945
20
0.7252491732283465
11
0.6520384645669292
21
0.7220560236220472
0
LINE
8
BLACK
6
CONTINUOUS
10
0.6520384645669292
20
0.7220560236220472
11
0.6488453149606299
21
0.7199224409448819
0
LINE
8
BLACK
6
CONTINUOUS
10
0.6488453149606299
20
0.7199224409448819
11
0.6450787401574803
21
0.7191732283464567
0
LINE
8
BLACK
6
CONTINUOUS
10
0.6450787401574803
20
0.7191732283464567
11
0.5781496062992126
21
0.7191732283464567
0
LINE
8
BLACK
6
CONTINUOUS
10
0.5781496062992126
20
0.7191732283464567
11
0.574383031496063
21
0.7199224409448819
0
LINE
8
BLACK
6
CONTINUOUS
10
0.574383031496063
20
0.7199224409448819
11
0.5711898818897637
21
0.7220560236220472
0
LINE
8
BLACK
6
CONTINUOUS
10
0.5711898818897637
20
0.7220560236220472
11
0.5690562992125984
21
0.7252491732283465
0
LINE
8
BLACK
6
CONTINUOUS
10
0.5690562992125984
20
0.7252491732283465
11
0.5683070866141732
21
0.729015748031496
0
LINE
8
BLACK
6
CONTINUOUS
10
0.5683070866141732
20
0.729015748031496
11
0.5683070866141732
21
0.7565748031496062
0
LINE
8
BLACK
6
CONTINUOUS
10
0.5683070866141732
20
0.7565748031496062
11
0.5690562992125984
21
0.7603413779527559
0
LINE
8
BLACK
6
CONTINUOUS
10
0.5690562992125984
20
0.7603413779527559
11
0.5711898818897637
21
0.7635345275590552
0
LINE
8
BLACK
6
CONTINUOUS
10
0.5711898818897637
20
0.7635345275590552
11
0.574383031496063
21
0.7656681102362205
0
LINE
8
BLACK
6
CONTINUOUS
10
0.574383031496063
20
0.7656681102362205
11
0.5781496062992126
21
0.7664173228346457
0
LINE
8
BLACK
6
CONTINUOUS
10
0.5781496062992126
20
0.7664173228346457
11
0.6450787401574803
21
0.7664173228346457
0
LINE
8
BLACK
6
CONTINUOUS
10
0.6450787401574803
20
0.7664173228346457
11
0.6488453149606299
21
0.7656681102362205
0
LINE
8
BLACK
6
CONTINUOUS
10
1.825144527559055
20
0.7665342519685039
11
1.8283376771653543
21
0.7644006692913385
0
LINE
8
BLACK
6
CONTINUOUS
10
1.8283376771653543
20
0.7644006692913385
11
1.8304712598425197
21
0.7612075196850393
0
LINE
8
BLACK
6
CONTINUOUS
10
1.8304712598425197
20
0.7612075196850393
11
1.8312204724409449
21
0.7574409448818897
0
LINE
8
BLACK
6
CONTINUOUS
10
1.8312204724409449
20
0.7574409448818897
11
1.8312204724409449
21
0.7298818897637795
0
LINE
8
BLACK
6
CONTINUOUS
10
1.8312204724409449
20
0.7298818897637795
11
1.8304712598425197
21
0.7261153149606299
0
LINE
8
BLACK
6
CONTINUOUS
10
1.8304712598425197
20
0.7261153149606299
11
1.8283376771653543
21
0.7229221653543307
0
LINE
8
BLACK
6
CONTINUOUS
10
1.8283376771653543
20
0.7229221653543307
11
1.825144527559055
21
0.7207885826771654
0
LINE
8
BLACK
6
CONTINUOUS
10
1.825144527559055
20
0.7207885826771654
11
1.8213779527559055
21
0.7200393700787402
0
LINE
8
BLACK
6
CONTINUOUS
10
1.8213779527559055
20
0.7200393700787402
11
1.7544488188976377
21
0.7200393700787402
0
LINE
8
BLACK
6
CONTINUOUS
10
1.7544488188976377
20
0.7200393700787402
11
1.7506822440944882
21
0.7207885826771654
0
LINE
8
BLACK
6
CONTINUOUS
10
1.7506822440944882
20
0.7207885826771654
11
1.7474890944881889
21
0.7229221653543307
0
LINE
8
BLACK
6
CONTINUOUS
10
1.7474890944881889
20
0.7229221653543307
11
1.7453555118110236
21
0.7261153149606299
0
LINE
8
BLACK
6
CONTINUOUS
10
1.7453555118110236
20
0.7261153149606299
11
1.7446062992125984
21
0.7298818897637795
0
LINE
8
BLACK
6
CONTINUOUS
10
1.7446062992125984
20
0.7298818897637795
11
1.7446062992125984
21
0.7574409448818897
0
LINE
8
BLACK
6
CONTINUOUS
10
1.7446062992125984
20
0.7574409448818897
11
1.7453555118110236
21
0.7612075196850393
0
LINE
8
BLACK
6
CONTINUOUS
10
1.7453555118110236
20
0.7612075196850393
11
1.7474890944881889
21
0.7644006692913385
0
LINE
8
BLACK
6
CONTINUOUS
10
1.7474890944881889
20
0.7644006692913385
11
1.7506822440944882
21
0.7665342519685039
0
LINE
8
BLACK
6
CONTINUOUS
10
1.7506822440944882
20
0.7665342519685039
11
1.7544488188976377
21
0.7672834645669291
0
LINE
8
BLACK
6
CONTINUOUS
10
1.7544488188976377
20
0.7672834645669291
11
1.8213779527559055
21
0.7672834645669291
0
LINE
8
BLACK
6
CONTINUOUS
10
1.8213779527559055
20
0.7672834645669291
11
1.825144527559055
21
0.7665342519685039
0
LINE
8
BLACK
6
CONTINUOUS
10
2.9951445275590549
20
0.7665342519685039
11
2.9983376771653543
21
0.7644006692913385
0
LINE
8
BLACK
6
CONTINUOUS
10
2.9983376771653543
20
0.7644006692913385
11
3.0004712598425196
21
0.7612075196850393
0
LINE
8
BLACK
6
CONTINUOUS
10
3.0004712598425196
20
0.7612075196850393
11
3.001220472440945
21
0.7574409448818897
0
LINE
8
BLACK
6
CONTINUOUS
10
3.001220472440945
20
0.7574409448818897
11
3.001220472440945
21
0.7298818897637795
0
LINE
8
BLACK
6
CONTINUOUS
10
3.001220472440945
20
0.7298818897637795
11
3.0004712598425196
21
0.7261153149606299
0
LINE
8
BLACK
6
CONTINUOUS
10
3.0004712598425196
20
0.7261153149606299
11
2.9983376771653543
21
0.7229221653543307
0
LINE
8
BLACK
6
CONTINUOUS
10
2.9983376771653543
20
0.7229221653543307
11
2.9951445275590549
21
0.7207885826771654
0
LINE
8
BLACK
6
CONTINUOUS
10
2.9951445275590549
20
0.7207885826771654
11
2.9913779527559052
21
0.7200393700787402
0
LINE
8
BLACK
6
CONTINUOUS
10
2.9913779527559052
20
0.7200393700787402
11
2.9244488188976376
21
0.7200393700787402
0
LINE
8
BLACK
6
CONTINUOUS
10
2.9244488188976376
20
0.7200393700787402
11
2.920682244094488
21
0.7207885826771654
0
LINE
8
BLACK
6
CONTINUOUS
10
2.920682244094488
20
0.7207885826771654
11
2.917489094488189
21
0.7229221653543307
0
LINE
8
BLACK
6
CONTINUOUS
10
2.917489094488189
20
0.7229221653543307
11
2.9153555118110237
21
0.7261153149606299
0
LINE
8
BLACK
6
CONTINUOUS
10
2.9153555118110237
20
0.7261153149606299
11
2.9146062992125983
21
0.7298818897637795
0
LINE
8
BLACK
6
CONTINUOUS
10
2.9146062992125983
20
0.7298818897637795
11
2.9146062992125983
21
0.7574409448818897
0
LINE
8
BLACK
6
CONTINUOUS
10
2.9146062992125983
20
0.7574409448818897
11
2.9153555118110237
21
0.7612075196850393
0
LINE
8
BLACK
6
CONTINUOUS
10
2.9153555118110237
20
0.7612075196850393
11
2.917489094488189
21
0.7644006692913385
0
LINE
8
BLACK
6
CONTINUOUS
10
2.917489094488189
20
0.7644006692913385
11
2.920682244094488
21
0.7665342519685039
0
LINE
8
BLACK
6
CONTINUOUS
10
2.920682244094488
20
0.7665342519685039
11
2.9244488188976376
21
0.7672834645669291
0
LINE
8
BLACK
6
CONTINUOUS
10
2.9244488188976376
20
0.7672834645669291
11
2.9913779527559052
21
0.7672834645669291
0
LINE
8
BLACK
6
CONTINUOUS
10
2.9913779527559052
20
0.7672834645669291
11
2.9951445275590549
21
0.7665342519685039
  0
ENDSEC
  0
EOF
