  0
SECTION
  2
HEADER
  9
$ANGBASE
  50
0.0
  9
$ANGDIR
  70
1
  9
$MEASUREMENT
  70
0
  0
ENDSEC
  0
SECTION
  2
TABLES
  0
TABLE
  2
LTYPE
  70
4
  0
LTYPE
  5
40F
  2
CONTINUOUS
  70
0
  3
Solid line
  72
65
  73
0
  40
0.0
  0
LTYPE
  5
410
  2
DASHDOT
 70
0
  3
Dash Dot ____ _ ____ _
 72
65
 73
4
 40
2.0
 49
1.25
 49
-0.25
 49
0.25
 49
-0.25
  0
LTYPE
  5
411
  2
DASHED
 70
0
  3
Dashed __ __ __ __ __
 72
65
 73
2
 40
0.75
 49
0.5
 49
-0.25
  0
LTYPE
  5
43B
  2
DOTTED
 70
0
  3
Dotted .  .  .  .
 72
65
 73
2
 40
0.2
 49
0.0
 49
-0.2
  0
ENDTAB
  0
TABLE
  2
STYLE
  70
4
  0
STYLE
  2
KICAD
  70
0
  40
0
  41
1
  42
1
  50
0
  71
0
  3
isocp.shx
  0
STYLE
  2
KICADB
  70
0
  40
0
  41
1
  42
1
  50
0
  71
0
  3
isocp.shx
  0
STYLE
  2
KICADI
  70
0
  40
0
  41
1
  42
1
  50
15
  71
0
  3
isocp.shx
  0
STYLE
  2
KICADBI
  70
0
  40
0
  41
1
  42
1
  50
15
  71
0
  3
isocp.shx
  0
ENDTAB
  0
TABLE
  2
LAYER
  70
1
  0
LAYER
  2
BLACK
  70
0
  62
7
  6
CONTINUOUS
  0
ENDTAB
  0
ENDSEC
  0
SECTION
  2
ENTITIES
0
LINE
8
BLACK
6
CONTINUOUS
10
1.0276994881889763
20
0.8700431889763779
11
1.0282321653543307
21
0.8695105118110236
0
LINE
8
BLACK
6
CONTINUOUS
10
1.0282321653543307
20
0.8695105118110236
11
1.0283070866141732
21
0.8691338582677165
0
LINE
8
BLACK
6
CONTINUOUS
10
1.0283070866141732
20
0.8691338582677165
11
1.0283070866141732
21
0.002992125984252
0
LINE
8
BLACK
6
CONTINUOUS
10
1.0283070866141732
20
0.002992125984252
11
1.0282321653543307
21
0.0026154724409449
0
LINE
8
BLACK
6
CONTINUOUS
10
1.0282321653543307
20
0.0026154724409449
11
1.0276994881889763
21
0.0020827952755906
0
LINE
8
BLACK
6
CONTINUOUS
10
1.0276994881889763
20
0.0020827952755906
11
1.0273228346456693
21
0.002007874015748
0
LINE
8
BLACK
6
CONTINUOUS
10
1.0273228346456693
20
0.002007874015748
11
0.0037007874015748
21
0.002007874015748
0
LINE
8
BLACK
6
CONTINUOUS
10
0.0037007874015748
20
0.002007874015748
11
0.0033241338582677
21
0.0020827952755906
0
LINE
8
BLACK
6
CONTINUOUS
10
0.0033241338582677
20
0.0020827952755906
11
0.0027914566929134
21
0.0026154724409449
0
LINE
8
BLACK
6
CONTINUOUS
10
0.0027914566929134
20
0.0026154724409449
11
0.0027165354330709
21
0.002992125984252
0
LINE
8
BLACK
6
CONTINUOUS
10
0.0027165354330709
20
0.002992125984252
11
0.0027165354330709
21
0.8691338582677165
0
LINE
8
BLACK
6
CONTINUOUS
10
0.0027165354330709
20
0.8691338582677165
11
0.0027914566929134
21
0.8695105118110236
0
LINE
8
BLACK
6
CONTINUOUS
10
0.0027914566929134
20
0.8695105118110236
11
0.0033241338582677
21
0.8700431889763779
0
LINE
8
BLACK
6
CONTINUOUS
10
0.0033241338582677
20
0.8700431889763779
11
0.0037007874015748
21
0.8701181102362204
0
LINE
8
BLACK
6
CONTINUOUS
10
0.0037007874015748
20
0.8701181102362204
11
1.0273228346456693
21
0.8701181102362204
0
LINE
8
BLACK
6
CONTINUOUS
10
1.0273228346456693
20
0.8701181102362204
11
1.0276994881889763
21
0.8700431889763779
0
LINE
8
BLACK
6
CONTINUOUS
10
0.0046850393700787
20
0.8681496062992126
11
0.0046850393700787
21
0.0039763779527559
0
LINE
8
BLACK
6
CONTINUOUS
10
0.0046850393700787
20
0.0039763779527559
11
1.0263385826771654
21
0.0039763779527559
0
LINE
8
BLACK
6
CONTINUOUS
10
1.0263385826771654
20
0.0039763779527559
11
1.0263385826771654
21
0.8681496062992126
0
LINE
8
BLACK
6
CONTINUOUS
10
1.0263385826771654
20
0.8681496062992126
11
0.0046850393700787
21
0.8681496062992126
0
LINE
8
BLACK
6
CONTINUOUS
10
2.2039987007874013
20
0.8709093307086614
11
2.204531377952756
21
0.8703766535433071
0
LINE
8
BLACK
6
CONTINUOUS
10
2.204531377952756
20
0.8703766535433071
11
2.2046062992125983
21
0.87
0
LINE
8
BLACK
6
CONTINUOUS
10
2.2046062992125983
20
0.87
11
2.2046062992125983
21
0.0038582677165354
0
LINE
8
BLACK
6
CONTINUOUS
10
2.2046062992125983
20
0.0038582677165354
11
2.204531377952756
21
0.0034816141732283
0
LINE
8
BLACK
6
CONTINUOUS
10
2.204531377952756
20
0.0034816141732283
11
2.2039987007874013
21
0.002948937007874
0
LINE
8
BLACK
6
CONTINUOUS
10
2.2039987007874013
20
0.002948937007874
11
2.2036220472440946
21
0.0028740157480315
0
LINE
8
BLACK
6
CONTINUOUS
10
2.2036220472440946
20
0.0028740157480315
11
1.1799999999999999
21
0.0028740157480315
0
LINE
8
BLACK
6
CONTINUOUS
10
1.1799999999999999
20
0.0028740157480315
11
1.179623346456693
21
0.002948937007874
0
LINE
8
BLACK
6
CONTINUOUS
10
1.179623346456693
20
0.002948937007874
11
1.1790906692913385
21
0.0034816141732283
0
LINE
8
BLACK
6
CONTINUOUS
10
1.1790906692913385
20
0.0034816141732283
11
1.179015748031496
21
0.0038582677165354
0
LINE
8
BLACK
6
CONTINUOUS
10
1.179015748031496
20
0.0038582677165354
11
1.179015748031496
21
0.87
0
LINE
8
BLACK
6
CONTINUOUS
10
1.179015748031496
20
0.87
11
1.1790906692913385
21
0.8703766535433071
0
LINE
8
BLACK
6
CONTINUOUS
10
1.1790906692913385
20
0.8703766535433071
11
1.179623346456693
21
0.8709093307086614
0
LINE
8
BLACK
6
CONTINUOUS
10
1.179623346456693
20
0.8709093307086614
11
1.1799999999999999
21
0.8709842519685039
0
LINE
8
BLACK
6
CONTINUOUS
10
1.1799999999999999
20
0.8709842519685039
11
2.2036220472440946
21
0.8709842519685039
0
LINE
8
BLACK
6
CONTINUOUS
10
2.2036220472440946
20
0.8709842519685039
11
2.2039987007874013
21
0.8709093307086614
0
LINE
8
BLACK
6
CONTINUOUS
10
1.1809842519685039
20
0.8690157480314961
11
1.1809842519685039
21
0.0048425196850394
0
LINE
8
BLACK
6
CONTINUOUS
10
1.1809842519685039
20
0.0048425196850394
11
2.2026377952755904
21
0.0048425196850394
0
LINE
8
BLACK
6
CONTINUOUS
10
2.2026377952755904
20
0.0048425196850394
11
2.2026377952755904
21
0.8690157480314961
0
LINE
8
BLACK
6
CONTINUOUS
10
2.2026377952755904
20
0.8690157480314961
11
1.1809842519685039
21
0.8690157480314961
0
LINE
8
BLACK
6
CONTINUOUS
10
3.3739987007874017
20
0.8709093307086614
11
3.3745313779527559
21
0.8703766535433071
0
LINE
8
BLACK
6
CONTINUOUS
10
3.3745313779527559
20
0.8703766535433071
11
3.3746062992125982
21
0.87
0
LINE
8
BLACK
6
CONTINUOUS
10
3.3746062992125982
20
0.87
11
3.3746062992125982
21
0.0038582677165354
0
LINE
8
BLACK
6
CONTINUOUS
10
3.3746062992125982
20
0.0038582677165354
11
3.3745313779527559
21
0.0034816141732283
0
LINE
8
BLACK
6
CONTINUOUS
10
3.3745313779527559
20
0.0034816141732283
11
3.3739987007874017
21
0.002948937007874
0
LINE
8
BLACK
6
CONTINUOUS
10
3.3739987007874017
20
0.002948937007874
11
3.3736220472440945
21
0.0028740157480315
0
LINE
8
BLACK
6
CONTINUOUS
10
3.3736220472440945
20
0.0028740157480315
11
2.3500000000000001
21
0.0028740157480315
0
LINE
8
BLACK
6
CONTINUOUS
10
2.3500000000000001
20
0.0028740157480315
11
2.3496233464566929
21
0.002948937007874
0
LINE
8
BLACK
6
CONTINUOUS
10
2.3496233464566929
20
0.002948937007874
11
2.3490906692913387
21
0.0034816141732283
0
LINE
8
BLACK
6
CONTINUOUS
10
2.3490906692913387
20
0.0034816141732283
11
2.3490157480314959
21
0.0038582677165354
0
LINE
8
BLACK
6
CONTINUOUS
10
2.3490157480314959
20
0.0038582677165354
11
2.3490157480314959
21
0.87
0
LINE
8
BLACK
6
CONTINUOUS
10
2.3490157480314959
20
0.87
11
2.3490906692913387
21
0.8703766535433071
0
LINE
8
BLACK
6
CONTINUOUS
10
2.3490906692913387
20
0.8703766535433071
11
2.3496233464566929
21
0.8709093307086614
0
LINE
8
BLACK
6
CONTINUOUS
10
2.3496233464566929
20
0.8709093307086614
11
2.3500000000000001
21
0.8709842519685039
0
LINE
8
BLACK
6
CONTINUOUS
10
2.3500000000000001
20
0.8709842519685039
11
3.3736220472440945
21
0.8709842519685039
0
LINE
8
BLACK
6
CONTINUOUS
10
3.3736220472440945
20
0.8709842519685039
11
3.3739987007874017
21
0.8709093307086614
0
LINE
8
BLACK
6
CONTINUOUS
10
2.3509842519685038
20
0.8690157480314961
11
2.3509842519685038
21
0.0048425196850394
0
LINE
8
BLACK
6
CONTINUOUS
10
2.3509842519685038
20
0.0048425196850394
11
3.3726377952755904
21
0.0048425196850394
0
LINE
8
BLACK
6
CONTINUOUS
10
3.3726377952755904
20
0.0048425196850394
11
3.3726377952755904
21
0.8690157480314961
0
LINE
8
BLACK
6
CONTINUOUS
10
3.3726377952755904
20
0.8690157480314961
11
2.3509842519685038
21
0.8690157480314961
  0
ENDSEC
  0
EOF
